{"glyphs":{"0":{"ha":682,"x_min":63,"x_max":619,"o":"m 342 -12 q 130 81 197 -12 q 63 319 63 175 l 63 804 q 128 1044 63 953 q 342 1135 194 1135 q 553 1044 486 1135 q 619 804 619 953 l 619 319 q 553 81 619 174 q 342 -12 486 -12 m 342 110 q 444 175 419 110 q 469 318 469 240 l 469 806 q 446 950 469 886 q 342 1014 422 1014 q 237 950 261 1014 q 213 806 213 886 l 213 318 q 238 175 213 240 q 342 110 264 110 z "},"1":{"ha":649,"x_min":113,"x_max":457,"o":"m 308 0 l 308 931 q 258 918 306 928 q 162 899 210 908 q 113 890 114 890 l 113 1003 q 188 1025 144 1011 q 274 1063 232 1039 q 344 1125 317 1088 l 457 1125 l 457 0 l 308 0 z "},"2":{"ha":664,"x_min":57,"x_max":614,"o":"m 57 0 l 57 106 l 343 551 q 427 689 390 626 q 464 846 464 751 q 439 967 464 922 q 351 1013 414 1013 q 244 949 271 1013 q 218 806 218 886 l 218 768 l 69 768 l 69 807 q 132 1047 69 958 q 344 1135 194 1135 q 547 1058 481 1135 q 614 844 614 981 q 576 665 614 736 q 490 519 539 594 l 232 125 l 588 125 l 588 0 l 57 0 z "},"3":{"ha":649,"x_min":56,"x_max":608,"o":"m 331 -12 q 124 65 193 -12 q 56 276 56 142 l 56 314 l 203 314 q 203 301 203 308 q 203 289 203 294 q 229 162 206 213 q 331 111 253 111 q 435 168 411 111 q 460 318 460 225 q 427 463 460 407 q 313 525 394 519 q 302 526 308 526 q 292 526 296 526 l 292 675 q 301 675 296 675 q 311 675 307 675 q 425 717 390 678 q 460 846 460 756 q 434 968 460 922 q 332 1014 408 1014 q 231 963 256 1014 q 203 833 206 913 q 203 822 203 828 q 203 810 203 815 l 56 810 l 56 847 q 124 1058 56 982 q 332 1135 193 1135 q 540 1058 471 1135 q 608 846 608 981 q 564 683 608 744 q 447 600 519 622 q 566 505 524 576 q 608 318 608 433 q 544 78 608 168 q 331 -12 479 -12 z "},"4":{"ha":682,"x_min":56,"x_max":654,"o":"m 379 0 l 379 296 l 56 296 l 56 461 l 344 1125 l 529 1125 l 529 436 l 654 436 l 654 296 l 529 296 l 529 0 l 379 0 m 206 436 l 379 436 l 379 936 l 206 436 z "},"5":{"ha":661,"x_min":65,"x_max":617,"o":"m 338 -11 q 176 28 236 -11 q 91 140 117 67 q 65 315 65 214 l 214 315 q 235 173 214 239 q 340 107 257 107 q 449 184 431 107 q 468 375 468 261 q 447 552 468 489 q 342 615 426 615 q 264 587 296 615 q 217 522 232 558 l 90 522 l 90 1125 l 575 1125 l 575 976 l 225 976 l 215 665 q 284 711 243 694 q 378 728 325 728 q 565 633 514 728 q 617 394 617 539 q 593 188 617 279 q 508 42 569 96 q 338 -11 447 -11 z "},"6":{"ha":679,"x_min":75,"x_max":631,"o":"m 351 -12 q 140 95 206 -12 q 75 357 75 203 l 75 736 q 133 1017 75 900 q 351 1135 192 1135 q 553 1063 483 1135 q 626 861 624 992 q 627 853 626 858 q 628 844 628 849 l 478 844 q 451 969 478 925 q 351 1013 425 1013 q 257 954 290 1013 q 224 772 224 896 l 224 601 q 287 658 246 636 q 388 679 328 679 q 579 590 528 679 q 631 354 631 501 q 567 94 631 201 q 351 -12 503 -12 m 351 111 q 453 172 425 111 q 481 318 481 233 q 463 492 481 418 q 351 567 446 567 q 272 542 304 567 q 224 490 240 518 l 224 322 q 251 174 224 236 q 351 111 278 111 z "},"7":{"ha":535,"x_min":38,"x_max":488,"o":"m 136 0 l 339 1008 l 38 1008 l 38 1125 l 488 1125 l 488 1053 l 279 0 l 136 0 z "},"8":{"ha":664,"x_min":56,"x_max":610,"o":"m 333 -12 q 118 76 181 -12 q 56 317 56 165 q 73 444 56 392 q 122 532 90 497 q 194 593 153 567 q 104 690 139 631 q 69 844 69 750 q 133 1056 69 978 q 333 1135 197 1135 q 532 1056 469 1135 q 594 844 594 978 q 560 690 594 750 q 469 593 526 631 q 542 532 511 567 q 592 444 574 497 q 610 317 610 392 q 547 76 610 165 q 333 -12 485 -12 m 333 106 q 440 166 414 106 q 467 314 467 226 q 439 456 467 393 q 333 519 411 518 q 226 456 256 518 q 197 314 197 394 q 224 165 197 225 q 333 106 251 106 m 333 661 q 426 722 403 663 q 449 853 449 782 q 423 971 449 922 q 333 1019 397 1019 q 242 971 268 1019 q 215 853 215 922 q 239 722 215 782 q 333 661 263 663 z "},"9":{"ha":679,"x_min":61,"x_max":617,"o":"m 340 -12 q 138 60 208 -12 q 64 267 67 132 q 64 273 64 269 q 64 279 64 276 l 213 279 q 239 154 213 197 q 342 111 265 111 q 435 169 403 111 q 467 351 467 228 l 467 522 q 405 466 446 488 q 303 444 364 444 q 113 534 164 444 q 61 769 61 624 q 125 1028 61 922 q 340 1135 189 1135 q 551 1028 486 1135 q 617 767 617 921 l 617 389 q 558 106 617 225 q 340 -12 500 -12 m 340 557 q 419 581 389 557 q 467 635 450 606 l 467 801 q 440 950 467 888 q 340 1013 414 1013 q 239 950 267 1013 q 211 806 211 888 q 228 631 211 704 q 340 557 246 557 z "},"A":{"ha":683,"x_min":26,"x_max":657,"o":"m 26 0 l 265 1125 l 417 1125 l 657 0 l 508 0 l 457 283 l 228 283 l 174 0 l 26 0 m 249 396 l 436 396 l 342 903 l 249 396 z "},"Á":{"ha":683,"x_min":26,"x_max":657,"o":"m 26 0 l 265 1125 l 417 1125 l 657 0 l 508 0 l 457 283 l 228 283 l 174 0 l 26 0 m 249 396 l 436 396 l 342 903 l 249 396 m 303 1192 l 385 1467 l 533 1467 l 378 1192 l 303 1192 z "},"Ă":{"ha":683,"x_min":26,"x_max":657,"o":"m 26 0 l 265 1125 l 417 1125 l 657 0 l 508 0 l 457 283 l 228 283 l 174 0 l 26 0 m 249 396 l 436 396 l 342 903 l 249 396 m 342 1213 q 201 1267 242 1213 q 160 1401 160 1321 l 246 1401 q 269 1324 247 1351 q 342 1297 290 1297 q 415 1325 393 1297 q 438 1401 438 1353 l 525 1401 q 484 1267 525 1321 q 342 1213 443 1213 z "},"Ắ":{"ha":683,"x_min":26,"x_max":657,"o":"m 26 0 l 265 1125 l 417 1125 l 657 0 l 508 0 l 457 283 l 228 283 l 174 0 l 26 0 m 249 396 l 436 396 l 342 903 l 249 396 m 271 1443 l 360 1607 l 508 1607 l 360 1443 l 271 1443 m 342 1186 q 201 1240 242 1186 q 160 1375 160 1294 l 246 1375 q 269 1298 247 1325 q 342 1271 290 1271 q 415 1299 393 1271 q 438 1375 438 1326 l 525 1375 q 484 1240 525 1294 q 342 1186 443 1186 z "},"Ặ":{"ha":683,"x_min":26,"x_max":657,"o":"m 26 0 l 265 1125 l 417 1125 l 657 0 l 508 0 l 457 283 l 228 283 l 174 0 l 26 0 m 249 396 l 436 396 l 342 903 l 249 396 m 267 -244 l 267 -87 l 417 -87 l 417 -244 l 267 -244 m 342 1213 q 201 1267 242 1213 q 160 1401 160 1321 l 246 1401 q 269 1324 247 1351 q 342 1297 290 1297 q 415 1325 393 1297 q 438 1401 438 1353 l 525 1401 q 484 1267 525 1321 q 342 1213 443 1213 z "},"Ằ":{"ha":683,"x_min":26,"x_max":657,"o":"m 26 0 l 265 1125 l 417 1125 l 657 0 l 508 0 l 457 283 l 228 283 l 174 0 l 26 0 m 249 396 l 436 396 l 342 903 l 249 396 m 318 1443 l 169 1607 l 318 1607 l 407 1443 l 318 1443 m 342 1186 q 201 1240 242 1186 q 160 1375 160 1294 l 246 1375 q 269 1298 247 1325 q 342 1271 290 1271 q 415 1299 393 1271 q 438 1375 438 1326 l 525 1375 q 484 1240 525 1294 q 342 1186 443 1186 z "},"Ẳ":{"ha":683,"x_min":26,"x_max":657,"o":"m 26 0 l 265 1125 l 417 1125 l 657 0 l 508 0 l 457 283 l 228 283 l 174 0 l 26 0 m 249 396 l 436 396 l 342 903 l 249 396 m 347 1403 l 300 1458 q 349 1494 331 1476 q 367 1539 367 1511 q 347 1581 367 1568 q 299 1593 326 1593 q 267 1591 285 1593 q 235 1583 250 1589 l 235 1658 q 336 1672 282 1672 q 437 1643 396 1672 q 478 1551 478 1614 q 441 1460 478 1496 q 347 1403 404 1425 m 342 1213 q 201 1267 242 1213 q 160 1401 160 1321 l 246 1401 q 269 1324 247 1351 q 342 1297 290 1297 q 415 1325 393 1297 q 438 1401 438 1353 l 525 1401 q 484 1267 525 1321 q 342 1213 443 1213 z "},"Ẵ":{"ha":683,"x_min":26,"x_max":657,"o":"m 26 0 l 265 1125 l 417 1125 l 657 0 l 508 0 l 457 283 l 228 283 l 174 0 l 26 0 m 249 396 l 436 396 l 342 903 l 249 396 z "},"Â":{"ha":683,"x_min":26,"x_max":657,"o":"m 26 0 l 265 1125 l 417 1125 l 657 0 l 508 0 l 457 283 l 228 283 l 174 0 l 26 0 m 249 396 l 436 396 l 342 903 l 249 396 m 146 1204 l 265 1447 l 417 1447 l 538 1204 l 425 1204 l 340 1372 l 257 1204 l 146 1204 z "},"Ấ":{"ha":683,"x_min":26,"x_max":721,"o":"m 26 0 l 265 1125 l 417 1125 l 657 0 l 508 0 l 457 283 l 228 283 l 174 0 l 26 0 m 249 396 l 436 396 l 342 903 l 249 396 m 146 1204 l 265 1419 l 417 1419 l 538 1204 l 425 1204 l 340 1344 l 257 1204 l 146 1204 m 518 1349 l 592 1508 l 721 1508 l 610 1349 l 518 1349 z "},"Ậ":{"ha":683,"x_min":26,"x_max":657,"o":"m 26 0 l 265 1125 l 417 1125 l 657 0 l 508 0 l 457 283 l 228 283 l 174 0 l 26 0 m 249 396 l 436 396 l 342 903 l 249 396 m 146 1204 l 265 1419 l 417 1419 l 538 1204 l 425 1204 l 340 1344 l 257 1204 l 146 1204 m 267 -244 l 267 -87 l 417 -87 l 417 -244 l 267 -244 z "},"Ầ":{"ha":683,"x_min":26,"x_max":657,"o":"m 26 0 l 265 1125 l 417 1125 l 657 0 l 508 0 l 457 283 l 228 283 l 174 0 l 26 0 m 249 396 l 436 396 l 342 903 l 249 396 m 146 1204 l 265 1419 l 417 1419 l 538 1204 l 425 1204 l 340 1344 l 257 1204 l 146 1204 m 553 1349 l 442 1508 l 571 1508 l 644 1349 l 553 1349 z "},"Ẩ":{"ha":683,"x_min":26,"x_max":682,"o":"m 26 0 l 265 1125 l 417 1125 l 657 0 l 508 0 l 457 283 l 228 283 l 174 0 l 26 0 m 249 396 l 436 396 l 342 903 l 249 396 m 551 1318 l 504 1374 q 553 1410 535 1392 q 571 1454 571 1428 q 551 1496 571 1483 q 503 1508 531 1508 q 472 1506 489 1508 q 439 1499 454 1504 l 439 1574 q 540 1588 486 1588 q 641 1558 600 1588 q 682 1467 682 1529 q 645 1374 682 1406 q 551 1318 608 1342 m 146 1204 l 265 1419 l 417 1419 l 538 1204 l 425 1204 l 340 1344 l 257 1204 l 146 1204 z "},"Ẫ":{"ha":683,"x_min":26,"x_max":657,"o":"m 26 0 l 265 1125 l 417 1125 l 657 0 l 508 0 l 457 283 l 228 283 l 174 0 l 26 0 m 249 396 l 436 396 l 342 903 l 249 396 z "},"Ȁ":{"ha":683,"x_min":26,"x_max":657,"o":"m 26 0 l 265 1125 l 417 1125 l 657 0 l 508 0 l 457 283 l 228 283 l 174 0 l 26 0 m 249 396 l 436 396 l 342 903 l 249 396 m 224 1211 l 68 1447 l 218 1447 l 299 1211 l 224 1211 m 401 1211 l 299 1447 l 421 1447 l 476 1211 l 401 1211 z "},"Ä":{"ha":683,"x_min":26,"x_max":657,"o":"m 26 0 l 265 1125 l 417 1125 l 657 0 l 508 0 l 457 283 l 228 283 l 174 0 l 26 0 m 249 396 l 436 396 l 342 903 l 249 396 m 386 1293 l 386 1447 l 536 1447 l 536 1293 l 386 1293 m 147 1293 l 147 1447 l 297 1447 l 297 1293 l 147 1293 z "},"Ạ":{"ha":683,"x_min":26,"x_max":657,"o":"m 26 0 l 265 1125 l 417 1125 l 657 0 l 508 0 l 457 283 l 228 283 l 174 0 l 26 0 m 249 396 l 436 396 l 342 903 l 249 396 m 267 -244 l 267 -87 l 417 -87 l 417 -244 l 267 -244 z "},"À":{"ha":683,"x_min":26,"x_max":657,"o":"m 26 0 l 265 1125 l 417 1125 l 657 0 l 508 0 l 457 283 l 228 283 l 174 0 l 26 0 m 249 396 l 436 396 l 342 903 l 249 396 m 307 1192 l 153 1467 l 301 1467 l 381 1192 l 307 1192 z "},"Ả":{"ha":683,"x_min":26,"x_max":657,"o":"m 26 0 l 265 1125 l 417 1125 l 657 0 l 508 0 l 457 283 l 228 283 l 174 0 l 26 0 m 249 396 l 436 396 l 342 903 l 249 396 m 343 1206 l 296 1261 q 361 1297 336 1279 q 386 1342 386 1314 q 361 1383 386 1371 q 301 1396 336 1396 q 231 1386 264 1396 l 231 1461 q 343 1475 285 1475 q 453 1446 408 1475 q 497 1354 497 1417 q 453 1260 497 1293 q 343 1206 410 1228 z "},"Ȃ":{"ha":683,"x_min":26,"x_max":657,"o":"m 26 0 l 265 1125 l 417 1125 l 657 0 l 508 0 l 457 283 l 228 283 l 174 0 l 26 0 m 249 396 l 436 396 l 342 903 l 249 396 m 158 1240 q 195 1388 160 1328 q 342 1447 231 1447 q 489 1388 453 1447 q 525 1240 525 1328 l 438 1240 q 416 1335 438 1307 q 342 1363 394 1363 q 269 1334 290 1363 q 246 1240 247 1306 l 158 1240 z "},"Ā":{"ha":683,"x_min":26,"x_max":657,"o":"m 26 0 l 265 1125 l 417 1125 l 657 0 l 508 0 l 457 283 l 228 283 l 174 0 l 26 0 m 249 396 l 436 396 l 342 903 l 249 396 m 208 1274 l 208 1364 l 475 1364 l 475 1274 l 208 1274 z "},"Ą":{"ha":683,"x_min":26,"x_max":675,"o":"m 26 0 l 265 1125 l 417 1125 l 657 0 l 508 0 l 457 283 l 228 283 l 174 0 l 26 0 m 249 396 l 436 396 l 342 903 l 249 396 m 600 -321 q 506 -312 550 -321 q 434 -278 461 -304 q 407 -201 407 -253 q 457 -75 407 -133 q 561 0 507 -17 l 636 0 q 558 -83 597 -33 q 519 -179 519 -132 q 556 -234 519 -222 q 631 -246 592 -246 q 675 -243 650 -246 l 650 -317 q 600 -321 628 -321 z "},"Å":{"ha":683,"x_min":26,"x_max":657,"o":"m 26 0 l 265 1125 l 417 1125 l 657 0 l 508 0 l 457 283 l 228 283 l 174 0 l 26 0 m 249 396 l 436 396 l 342 903 l 249 396 m 342 1150 q 229 1192 272 1150 q 186 1306 186 1235 q 229 1418 186 1376 q 342 1460 272 1460 q 454 1418 411 1460 q 497 1306 497 1376 q 454 1192 497 1235 q 342 1150 411 1150 m 342 1225 q 400 1247 378 1225 q 422 1306 422 1268 q 400 1365 422 1344 q 342 1386 378 1386 q 283 1365 304 1386 q 261 1306 261 1344 q 283 1247 261 1268 q 342 1225 304 1225 z "},"Ǻ":{"ha":683,"x_min":26,"x_max":657,"o":"m 26 0 l 265 1125 l 417 1125 l 657 0 l 508 0 l 457 283 l 228 283 l 174 0 l 26 0 m 249 396 l 436 396 l 342 903 l 249 396 m 342 1150 q 229 1192 272 1150 q 186 1306 186 1235 q 229 1418 186 1376 q 342 1460 272 1460 q 454 1418 411 1460 q 497 1306 497 1376 q 454 1192 497 1235 q 342 1150 411 1150 m 342 1225 q 400 1247 378 1225 q 422 1306 422 1268 q 400 1365 422 1344 q 342 1386 378 1386 q 283 1365 304 1386 q 261 1306 261 1344 q 283 1247 261 1268 q 342 1225 304 1225 m 303 1526 l 385 1801 l 533 1801 l 378 1526 l 303 1526 z "},"Ã":{"ha":683,"x_min":26,"x_max":657,"o":"m 26 0 l 265 1125 l 417 1125 l 657 0 l 508 0 l 457 283 l 228 283 l 174 0 l 26 0 m 249 396 l 436 396 l 342 903 l 249 396 m 447 1294 q 349 1328 389 1294 q 265 1363 310 1363 q 230 1349 242 1363 q 218 1306 218 1336 l 133 1306 q 157 1412 133 1368 q 244 1456 181 1456 q 337 1422 297 1456 q 421 1389 376 1389 q 456 1401 444 1389 q 467 1447 467 1414 l 550 1447 q 529 1340 550 1385 q 447 1294 508 1294 z "},"Æ":{"ha":882,"x_min":-71,"x_max":840,"o":"m -71 0 l 403 1125 l 840 1125 l 840 1011 l 556 1011 l 556 639 l 760 639 l 760 526 l 556 526 l 556 114 l 840 114 l 840 0 l 406 0 l 406 285 l 199 285 l 79 0 l -71 0 m 240 397 l 406 397 l 406 840 l 240 397 z "},"Ǽ":{"ha":882,"x_min":-71,"x_max":840,"o":"m -71 0 l 403 1125 l 840 1125 l 840 1011 l 556 1011 l 556 639 l 760 639 l 760 526 l 556 526 l 556 114 l 840 114 l 840 0 l 406 0 l 406 285 l 199 285 l 79 0 l -71 0 m 240 397 l 406 397 l 406 840 l 240 397 m 442 1192 l 524 1467 l 672 1467 l 517 1192 l 442 1192 z "},"B":{"ha":728,"x_min":88,"x_max":676,"o":"m 88 0 l 88 1125 l 346 1125 q 514 1094 447 1125 q 613 1001 581 1064 q 646 843 646 939 q 606 678 646 739 q 485 606 567 617 q 631 511 586 582 q 676 321 676 440 q 646 151 676 224 q 552 40 615 79 q 388 0 489 0 l 88 0 m 244 113 l 350 113 q 491 162 456 113 q 526 321 526 211 q 483 481 526 426 q 338 536 440 536 l 244 536 l 244 113 m 244 656 l 338 656 q 473 699 436 656 q 510 843 510 743 q 456 983 510 958 q 282 1008 401 1008 l 244 1008 l 244 656 z "},"Ḃ":{"ha":728,"x_min":88,"x_max":676,"o":"m 88 0 l 88 1125 l 346 1125 q 514 1094 447 1125 q 613 1001 581 1064 q 646 843 646 939 q 606 678 646 739 q 485 606 567 617 q 631 511 586 582 q 676 321 676 440 q 646 151 676 224 q 552 40 615 79 q 388 0 489 0 l 88 0 m 244 113 l 350 113 q 491 162 456 113 q 526 321 526 211 q 483 481 526 426 q 338 536 440 536 l 244 536 l 244 113 m 244 656 l 338 656 q 473 699 436 656 q 510 843 510 743 q 456 983 510 958 q 282 1008 401 1008 l 244 1008 l 244 656 m 289 1254 l 289 1419 l 439 1419 l 439 1254 l 289 1254 z "},"C":{"ha":715,"x_min":67,"x_max":653,"o":"m 369 -12 q 128 96 190 -12 q 67 361 67 204 l 67 758 q 128 1032 67 929 q 369 1135 190 1135 q 590 1049 526 1135 q 653 811 653 964 l 653 722 l 504 722 l 504 801 q 487 953 504 894 q 371 1013 469 1013 q 248 949 271 1013 q 225 782 225 886 l 225 336 q 257 160 225 208 q 371 111 289 111 q 485 173 465 111 q 504 335 504 235 l 504 418 l 653 418 l 653 335 q 594 83 653 179 q 369 -12 535 -12 z "},"Ć":{"ha":715,"x_min":67,"x_max":653,"o":"m 369 -12 q 128 96 190 -12 q 67 361 67 204 l 67 758 q 128 1032 67 929 q 369 1135 190 1135 q 590 1049 526 1135 q 653 811 653 964 l 653 722 l 504 722 l 504 801 q 487 953 504 894 q 371 1013 469 1013 q 248 949 271 1013 q 225 782 225 886 l 225 336 q 257 160 225 208 q 371 111 289 111 q 485 173 465 111 q 504 335 504 235 l 504 418 l 653 418 l 653 335 q 594 83 653 179 q 369 -12 535 -12 m 319 1192 l 401 1467 l 550 1467 l 394 1192 l 319 1192 z "},"Č":{"ha":715,"x_min":67,"x_max":653,"o":"m 369 -12 q 128 96 190 -12 q 67 361 67 204 l 67 758 q 128 1032 67 929 q 369 1135 190 1135 q 590 1049 526 1135 q 653 811 653 964 l 653 722 l 504 722 l 504 801 q 487 953 504 894 q 371 1013 469 1013 q 248 949 271 1013 q 225 782 225 886 l 225 336 q 257 160 225 208 q 371 111 289 111 q 485 173 465 111 q 504 335 504 235 l 504 418 l 653 418 l 653 335 q 594 83 653 179 q 369 -12 535 -12 m 285 1207 l 164 1447 l 278 1447 l 358 1285 l 439 1447 l 553 1447 l 431 1207 l 285 1207 z "},"Ç":{"ha":715,"x_min":67,"x_max":653,"o":"m 369 -12 q 128 96 190 -12 q 67 361 67 204 l 67 758 q 128 1032 67 929 q 369 1135 190 1135 q 590 1049 526 1135 q 653 811 653 964 l 653 722 l 504 722 l 504 801 q 487 953 504 894 q 371 1013 469 1013 q 248 949 271 1013 q 225 782 225 886 l 225 336 q 257 160 225 208 q 371 111 289 111 q 485 173 465 111 q 504 335 504 235 l 504 418 l 653 418 l 653 335 q 594 83 653 179 q 369 -12 535 -12 m 376 -326 q 283 -312 336 -326 l 283 -237 q 354 -247 317 -247 q 414 -235 389 -247 q 439 -193 439 -222 q 408 -140 439 -157 q 321 -115 378 -124 l 321 0 l 396 0 l 396 -78 q 507 -110 464 -78 q 550 -197 550 -142 q 500 -295 550 -264 q 376 -326 450 -326 z "},"Ĉ":{"ha":715,"x_min":67,"x_max":653,"o":"m 369 -12 q 128 96 190 -12 q 67 361 67 204 l 67 758 q 128 1032 67 929 q 369 1135 190 1135 q 590 1049 526 1135 q 653 811 653 964 l 653 722 l 504 722 l 504 801 q 487 953 504 894 q 371 1013 469 1013 q 248 949 271 1013 q 225 782 225 886 l 225 336 q 257 160 225 208 q 371 111 289 111 q 485 173 465 111 q 504 335 504 235 l 504 418 l 653 418 l 653 335 q 594 83 653 179 q 369 -12 535 -12 m 163 1204 l 282 1447 l 433 1447 l 554 1204 l 442 1204 l 357 1372 l 274 1204 l 163 1204 z "},"Ċ":{"ha":715,"x_min":67,"x_max":653,"o":"m 369 -12 q 128 96 190 -12 q 67 361 67 204 l 67 758 q 128 1032 67 929 q 369 1135 190 1135 q 590 1049 526 1135 q 653 811 653 964 l 653 722 l 504 722 l 504 801 q 487 953 504 894 q 371 1013 469 1013 q 248 949 271 1013 q 225 782 225 886 l 225 336 q 257 160 225 208 q 371 111 289 111 q 485 173 465 111 q 504 335 504 235 l 504 418 l 653 418 l 653 335 q 594 83 653 179 q 369 -12 535 -12 m 283 1254 l 283 1419 l 433 1419 l 433 1254 l 283 1254 z "},"D":{"ha":732,"x_min":88,"x_max":665,"o":"m 88 0 l 88 1125 l 332 1125 q 592 1039 519 1125 q 665 782 665 953 l 665 368 q 594 94 665 189 q 344 0 522 0 l 88 0 m 244 113 l 333 113 q 484 187 461 113 q 507 397 507 261 l 507 763 q 478 951 507 893 q 329 1008 450 1008 l 244 1008 l 244 113 z "},"Ǳ":{"ha":1311,"x_min":88,"x_max":1282,"o":"m 88 0 l 88 1125 l 332 1125 q 592 1039 519 1125 q 665 782 665 953 l 665 368 q 594 94 665 189 q 344 0 522 0 l 88 0 m 244 113 l 333 113 q 484 187 461 113 q 507 397 507 261 l 507 763 q 478 951 507 893 q 329 1008 450 1008 l 244 1008 l 244 113 m 785 0 l 785 113 l 1115 1013 l 806 1013 l 806 1125 l 1282 1125 l 1282 1057 l 933 113 l 1282 113 l 1282 0 l 785 0 z "},"Ǆ":{"ha":1311,"x_min":88,"x_max":1282,"o":"m 88 0 l 88 1125 l 332 1125 q 592 1039 519 1125 q 665 782 665 953 l 665 368 q 594 94 665 189 q 344 0 522 0 l 88 0 m 244 113 l 333 113 q 484 187 461 113 q 507 397 507 261 l 507 763 q 478 951 507 893 q 329 1008 450 1008 l 244 1008 l 244 113 z "},"Ð":{"ha":719,"x_min":19,"x_max":665,"o":"m 88 0 l 88 539 l 19 539 l 19 629 l 88 629 l 88 1125 l 332 1125 q 592 1039 519 1125 q 665 782 665 953 l 665 368 q 594 94 665 189 q 344 0 522 0 l 88 0 m 244 113 l 333 113 q 484 187 461 113 q 507 397 507 261 l 507 763 q 478 951 507 893 q 329 1008 450 1008 l 244 1008 l 244 629 l 329 629 l 329 539 l 244 539 l 244 113 z "},"Ď":{"ha":732,"x_min":88,"x_max":665,"o":"m 88 0 l 88 1125 l 332 1125 q 592 1039 519 1125 q 665 782 665 953 l 665 368 q 594 94 665 189 q 344 0 522 0 l 88 0 m 244 113 l 333 113 q 484 187 461 113 q 507 397 507 261 l 507 763 q 478 951 507 893 q 329 1008 450 1008 l 244 1008 l 244 113 m 293 1207 l 172 1447 l 286 1447 l 367 1285 l 447 1447 l 561 1447 l 439 1207 l 293 1207 z "},"Đ":{"ha":735,"x_min":24,"x_max":667,"o":"m 90 0 l 90 539 l 24 539 l 24 629 l 90 629 l 90 1125 l 336 1125 q 595 1039 524 1125 q 667 782 667 953 l 667 368 q 596 94 667 189 q 347 0 525 0 l 90 0 m 249 113 l 336 113 q 487 187 464 113 q 510 397 510 261 l 510 763 q 481 951 510 893 q 332 1008 453 1008 l 249 1008 l 249 629 l 332 629 l 332 539 l 249 539 l 249 113 z "},"Ḋ":{"ha":732,"x_min":88,"x_max":665,"o":"m 88 0 l 88 1125 l 332 1125 q 592 1039 519 1125 q 665 782 665 953 l 665 368 q 594 94 665 189 q 344 0 522 0 l 88 0 m 244 113 l 333 113 q 484 187 461 113 q 507 397 507 261 l 507 763 q 478 951 507 893 q 329 1008 450 1008 l 244 1008 l 244 113 m 292 1254 l 292 1419 l 442 1419 l 442 1254 l 292 1254 z "},"ǲ":{"ha":1214,"x_min":88,"x_max":1182,"o":"m 88 0 l 88 1125 l 332 1125 q 592 1039 519 1125 q 665 782 665 953 l 665 368 q 594 94 665 189 q 344 0 522 0 l 88 0 m 244 113 l 333 113 q 484 187 461 113 q 507 397 507 261 l 507 763 q 478 951 507 893 q 329 1008 450 1008 l 244 1008 l 244 113 m 776 0 l 776 100 l 1022 692 l 801 692 l 801 803 l 1182 803 l 1182 722 l 935 113 l 1176 113 l 1176 0 l 776 0 z "},"ǅ":{"ha":1214,"x_min":88,"x_max":1182,"o":"m 88 0 l 88 1125 l 332 1125 q 592 1039 519 1125 q 665 782 665 953 l 665 368 q 594 94 665 189 q 344 0 522 0 l 88 0 m 244 113 l 333 113 q 484 187 461 113 q 507 397 507 261 l 507 763 q 478 951 507 893 q 329 1008 450 1008 l 244 1008 l 244 113 z "},"E":{"ha":565,"x_min":88,"x_max":526,"o":"m 88 0 l 88 1125 l 524 1125 l 524 1008 l 244 1008 l 244 636 l 471 636 l 471 525 l 244 525 l 244 113 l 526 113 l 526 0 l 88 0 z "},"É":{"ha":565,"x_min":88,"x_max":526,"o":"m 88 0 l 88 1125 l 524 1125 l 524 1008 l 244 1008 l 244 636 l 471 636 l 471 525 l 244 525 l 244 113 l 526 113 l 526 0 l 88 0 m 272 1192 l 354 1467 l 503 1467 l 347 1192 l 272 1192 z "},"Ĕ":{"ha":565,"x_min":88,"x_max":526,"o":"m 88 0 l 88 1125 l 524 1125 l 524 1008 l 244 1008 l 244 636 l 471 636 l 471 525 l 244 525 l 244 113 l 526 113 l 526 0 l 88 0 m 311 1213 q 170 1267 211 1213 q 129 1401 129 1321 l 215 1401 q 238 1324 217 1351 q 311 1297 260 1297 q 385 1325 363 1297 q 407 1401 407 1353 l 494 1401 q 453 1267 494 1321 q 311 1213 413 1213 z "},"Ě":{"ha":565,"x_min":88,"x_max":526,"o":"m 88 0 l 88 1125 l 524 1125 l 524 1008 l 244 1008 l 244 636 l 471 636 l 471 525 l 244 525 l 244 113 l 526 113 l 526 0 l 88 0 m 238 1207 l 117 1447 l 231 1447 l 311 1285 l 392 1447 l 506 1447 l 383 1207 l 238 1207 z "},"Ê":{"ha":565,"x_min":88,"x_max":526,"o":"m 88 0 l 88 1125 l 524 1125 l 524 1008 l 244 1008 l 244 636 l 471 636 l 471 525 l 244 525 l 244 113 l 526 113 l 526 0 l 88 0 m 115 1204 l 235 1447 l 386 1447 l 507 1204 l 394 1204 l 310 1372 l 226 1204 l 115 1204 z "},"Ế":{"ha":565,"x_min":88,"x_max":690,"o":"m 88 0 l 88 1125 l 524 1125 l 524 1008 l 244 1008 l 244 636 l 471 636 l 471 525 l 244 525 l 244 113 l 526 113 l 526 0 l 88 0 m 115 1204 l 235 1419 l 386 1419 l 507 1204 l 394 1204 l 310 1344 l 226 1204 l 115 1204 m 488 1349 l 561 1508 l 690 1508 l 579 1349 l 488 1349 z "},"Ệ":{"ha":565,"x_min":88,"x_max":526,"o":"m 88 0 l 88 1125 l 524 1125 l 524 1008 l 244 1008 l 244 636 l 471 636 l 471 525 l 244 525 l 244 113 l 526 113 l 526 0 l 88 0 m 115 1204 l 235 1419 l 386 1419 l 507 1204 l 394 1204 l 310 1344 l 226 1204 l 115 1204 m 208 -244 l 208 -87 l 358 -87 l 358 -244 l 208 -244 z "},"Ề":{"ha":565,"x_min":88,"x_max":614,"o":"m 88 0 l 88 1125 l 524 1125 l 524 1008 l 244 1008 l 244 636 l 471 636 l 471 525 l 244 525 l 244 113 l 526 113 l 526 0 l 88 0 m 115 1204 l 235 1419 l 386 1419 l 507 1204 l 394 1204 l 310 1344 l 226 1204 l 115 1204 m 522 1349 l 411 1508 l 540 1508 l 614 1349 l 522 1349 z "},"Ể":{"ha":565,"x_min":88,"x_max":651,"o":"m 88 0 l 88 1125 l 524 1125 l 524 1008 l 244 1008 l 244 636 l 471 636 l 471 525 l 244 525 l 244 113 l 526 113 l 526 0 l 88 0 m 521 1318 l 474 1374 q 522 1410 504 1392 q 540 1454 540 1428 q 520 1496 540 1483 q 472 1508 500 1508 q 441 1506 458 1508 q 408 1499 424 1504 l 408 1574 q 510 1588 456 1588 q 610 1558 569 1588 q 651 1467 651 1529 q 615 1374 651 1406 q 521 1318 578 1342 m 115 1204 l 235 1419 l 386 1419 l 507 1204 l 394 1204 l 310 1344 l 226 1204 l 115 1204 z "},"Ễ":{"ha":565,"x_min":88,"x_max":526,"o":"m 88 0 l 88 1125 l 524 1125 l 524 1008 l 244 1008 l 244 636 l 471 636 l 471 525 l 244 525 l 244 113 l 526 113 l 526 0 l 88 0 z "},"Ȅ":{"ha":565,"x_min":38,"x_max":526,"o":"m 88 0 l 88 1125 l 524 1125 l 524 1008 l 244 1008 l 244 636 l 471 636 l 471 525 l 244 525 l 244 113 l 526 113 l 526 0 l 88 0 m 193 1211 l 38 1447 l 188 1447 l 268 1211 l 193 1211 m 371 1211 l 268 1447 l 390 1447 l 446 1211 l 371 1211 z "},"Ë":{"ha":565,"x_min":88,"x_max":526,"o":"m 88 0 l 88 1125 l 524 1125 l 524 1008 l 244 1008 l 244 636 l 471 636 l 471 525 l 244 525 l 244 113 l 526 113 l 526 0 l 88 0 m 356 1293 l 356 1447 l 506 1447 l 506 1293 l 356 1293 m 117 1293 l 117 1447 l 267 1447 l 267 1293 l 117 1293 z "},"Ė":{"ha":565,"x_min":88,"x_max":526,"o":"m 88 0 l 88 1125 l 524 1125 l 524 1008 l 244 1008 l 244 636 l 471 636 l 471 525 l 244 525 l 244 113 l 526 113 l 526 0 l 88 0 m 236 1254 l 236 1419 l 386 1419 l 386 1254 l 236 1254 z "},"Ẹ":{"ha":565,"x_min":88,"x_max":526,"o":"m 88 0 l 88 1125 l 524 1125 l 524 1008 l 244 1008 l 244 636 l 471 636 l 471 525 l 244 525 l 244 113 l 526 113 l 526 0 l 88 0 m 208 -244 l 208 -87 l 358 -87 l 358 -244 l 208 -244 z "},"È":{"ha":565,"x_min":88,"x_max":526,"o":"m 88 0 l 88 1125 l 524 1125 l 524 1008 l 244 1008 l 244 636 l 471 636 l 471 525 l 244 525 l 244 113 l 526 113 l 526 0 l 88 0 m 276 1192 l 122 1467 l 271 1467 l 350 1192 l 276 1192 z "},"Ẻ":{"ha":565,"x_min":88,"x_max":526,"o":"m 88 0 l 88 1125 l 524 1125 l 524 1008 l 244 1008 l 244 636 l 471 636 l 471 525 l 244 525 l 244 113 l 526 113 l 526 0 l 88 0 m 313 1206 l 265 1261 q 331 1297 306 1279 q 356 1342 356 1314 q 331 1383 356 1371 q 271 1396 306 1396 q 200 1386 233 1396 l 200 1461 q 313 1475 254 1475 q 422 1446 378 1475 q 467 1354 467 1417 q 423 1260 467 1293 q 313 1206 379 1228 z "},"Ȇ":{"ha":565,"x_min":88,"x_max":526,"o":"m 88 0 l 88 1125 l 524 1125 l 524 1008 l 244 1008 l 244 636 l 471 636 l 471 525 l 244 525 l 244 113 l 526 113 l 526 0 l 88 0 m 128 1240 q 165 1388 129 1328 q 311 1447 200 1447 q 458 1388 422 1447 q 494 1240 494 1328 l 407 1240 q 385 1335 407 1307 q 311 1363 364 1363 q 238 1334 260 1363 q 215 1240 217 1306 l 128 1240 z "},"Ē":{"ha":565,"x_min":88,"x_max":526,"o":"m 88 0 l 88 1125 l 524 1125 l 524 1008 l 244 1008 l 244 636 l 471 636 l 471 525 l 244 525 l 244 113 l 526 113 l 526 0 l 88 0 m 178 1274 l 178 1364 l 444 1364 l 444 1274 l 178 1274 z "},"Ę":{"ha":565,"x_min":88,"x_max":526,"o":"m 88 0 l 88 1125 l 524 1125 l 524 1008 l 244 1008 l 244 636 l 471 636 l 471 525 l 244 525 l 244 113 l 526 113 l 526 0 l 88 0 m 442 -321 q 347 -312 392 -321 q 276 -278 303 -304 q 249 -201 249 -253 q 299 -75 249 -133 q 403 0 349 -17 l 478 0 q 400 -83 439 -33 q 361 -179 361 -132 q 397 -234 361 -222 q 472 -246 433 -246 q 517 -243 492 -246 l 492 -317 q 442 -321 469 -321 z "},"Ẽ":{"ha":565,"x_min":88,"x_max":526,"o":"m 88 0 l 88 1125 l 524 1125 l 524 1008 l 244 1008 l 244 636 l 471 636 l 471 525 l 244 525 l 244 113 l 526 113 l 526 0 l 88 0 m 417 1294 q 319 1328 358 1294 q 235 1363 279 1363 q 199 1349 211 1363 q 188 1306 188 1336 l 103 1306 q 126 1412 103 1368 q 214 1456 150 1456 q 306 1422 267 1456 q 390 1389 346 1389 q 425 1401 414 1389 q 436 1447 436 1414 l 519 1447 q 499 1340 519 1385 q 417 1294 478 1294 z "},"F":{"ha":543,"x_min":88,"x_max":522,"o":"m 88 0 l 88 1125 l 522 1125 l 522 1013 l 244 1013 l 244 638 l 460 638 l 460 526 l 244 526 l 244 0 l 88 0 z "},"Ḟ":{"ha":543,"x_min":88,"x_max":522,"o":"m 88 0 l 88 1125 l 522 1125 l 522 1013 l 244 1013 l 244 638 l 460 638 l 460 526 l 244 526 l 244 0 l 88 0 m 197 1254 l 197 1419 l 347 1419 l 347 1254 l 197 1254 z "},"G":{"ha":743,"x_min":67,"x_max":669,"o":"m 356 -14 q 132 87 197 -14 q 67 369 67 188 l 67 746 q 128 1033 67 931 q 368 1135 190 1135 q 594 1054 526 1135 q 661 807 661 974 l 661 765 l 514 765 l 514 800 q 490 961 514 910 q 371 1013 465 1013 q 245 943 267 1013 q 224 769 224 874 l 224 353 q 253 171 224 231 q 375 111 282 111 q 497 176 467 111 q 528 368 528 242 l 528 446 l 385 446 l 385 557 l 669 557 l 669 0 l 571 0 l 556 129 q 486 26 533 67 q 356 -14 439 -14 z "},"Ǵ":{"ha":743,"x_min":67,"x_max":669,"o":"m 356 -14 q 132 87 197 -14 q 67 369 67 188 l 67 746 q 128 1033 67 931 q 368 1135 190 1135 q 594 1054 526 1135 q 661 807 661 974 l 661 765 l 514 765 l 514 800 q 490 961 514 910 q 371 1013 465 1013 q 245 943 267 1013 q 224 769 224 874 l 224 353 q 253 171 224 231 q 375 111 282 111 q 497 176 467 111 q 528 368 528 242 l 528 446 l 385 446 l 385 557 l 669 557 l 669 0 l 571 0 l 556 129 q 486 26 533 67 q 356 -14 439 -14 m 333 1192 l 415 1467 l 564 1467 l 408 1192 l 333 1192 z "},"Ğ":{"ha":743,"x_min":67,"x_max":669,"o":"m 356 -14 q 132 87 197 -14 q 67 369 67 188 l 67 746 q 128 1033 67 931 q 368 1135 190 1135 q 594 1054 526 1135 q 661 807 661 974 l 661 765 l 514 765 l 514 800 q 490 961 514 910 q 371 1013 465 1013 q 245 943 267 1013 q 224 769 224 874 l 224 353 q 253 171 224 231 q 375 111 282 111 q 497 176 467 111 q 528 368 528 242 l 528 446 l 385 446 l 385 557 l 669 557 l 669 0 l 571 0 l 556 129 q 486 26 533 67 q 356 -14 439 -14 m 372 1213 q 231 1267 272 1213 q 190 1401 190 1321 l 276 1401 q 299 1324 278 1351 q 372 1297 321 1297 q 446 1325 424 1297 q 468 1401 468 1353 l 556 1401 q 515 1267 556 1321 q 372 1213 474 1213 z "},"Ǧ":{"ha":743,"x_min":67,"x_max":669,"o":"m 356 -14 q 132 87 197 -14 q 67 369 67 188 l 67 746 q 128 1033 67 931 q 368 1135 190 1135 q 594 1054 526 1135 q 661 807 661 974 l 661 765 l 514 765 l 514 800 q 490 961 514 910 q 371 1013 465 1013 q 245 943 267 1013 q 224 769 224 874 l 224 353 q 253 171 224 231 q 375 111 282 111 q 497 176 467 111 q 528 368 528 242 l 528 446 l 385 446 l 385 557 l 669 557 l 669 0 l 571 0 l 556 129 q 486 26 533 67 q 356 -14 439 -14 m 299 1207 l 178 1447 l 292 1447 l 372 1285 l 453 1447 l 567 1447 l 444 1207 l 299 1207 z "},"Ĝ":{"ha":743,"x_min":67,"x_max":669,"o":"m 356 -14 q 132 87 197 -14 q 67 369 67 188 l 67 746 q 128 1033 67 931 q 368 1135 190 1135 q 594 1054 526 1135 q 661 807 661 974 l 661 765 l 514 765 l 514 800 q 490 961 514 910 q 371 1013 465 1013 q 245 943 267 1013 q 224 769 224 874 l 224 353 q 253 171 224 231 q 375 111 282 111 q 497 176 467 111 q 528 368 528 242 l 528 446 l 385 446 l 385 557 l 669 557 l 669 0 l 571 0 l 556 129 q 486 26 533 67 q 356 -14 439 -14 m 176 1204 l 296 1447 l 447 1447 l 568 1204 l 456 1204 l 371 1372 l 288 1204 l 176 1204 z "},"Ģ":{"ha":743,"x_min":67,"x_max":669,"o":"m 356 -14 q 132 87 197 -14 q 67 369 67 188 l 67 746 q 128 1033 67 931 q 368 1135 190 1135 q 594 1054 526 1135 q 661 807 661 974 l 661 765 l 514 765 l 514 800 q 490 961 514 910 q 371 1013 465 1013 q 245 943 267 1013 q 224 769 224 874 l 224 353 q 253 171 224 231 q 375 111 282 111 q 497 176 467 111 q 528 368 528 242 l 528 446 l 385 446 l 385 557 l 669 557 l 669 0 l 571 0 l 556 129 q 486 26 533 67 q 356 -14 439 -14 m 333 -399 l 296 -325 q 356 -301 339 -322 q 374 -239 374 -279 l 297 -239 l 297 -87 l 449 -87 l 447 -231 q 426 -350 446 -304 q 333 -399 406 -396 z "},"Ġ":{"ha":743,"x_min":67,"x_max":669,"o":"m 356 -14 q 132 87 197 -14 q 67 369 67 188 l 67 746 q 128 1033 67 931 q 368 1135 190 1135 q 594 1054 526 1135 q 661 807 661 974 l 661 765 l 514 765 l 514 800 q 490 961 514 910 q 371 1013 465 1013 q 245 943 267 1013 q 224 769 224 874 l 224 353 q 253 171 224 231 q 375 111 282 111 q 497 176 467 111 q 528 368 528 242 l 528 446 l 385 446 l 385 557 l 669 557 l 669 0 l 571 0 l 556 129 q 486 26 533 67 q 356 -14 439 -14 m 297 1254 l 297 1419 l 447 1419 l 447 1254 l 297 1254 z "},"H":{"ha":779,"x_min":88,"x_max":690,"o":"m 88 0 l 88 1125 l 244 1125 l 244 639 l 533 639 l 533 1125 l 690 1125 l 690 0 l 533 0 l 533 526 l 244 526 l 244 0 l 88 0 z "},"Ħ":{"ha":779,"x_min":22,"x_max":756,"o":"m 88 0 l 88 860 l 22 860 l 22 940 l 88 940 l 88 1125 l 244 1125 l 244 940 l 533 940 l 533 1125 l 690 1125 l 690 940 l 756 940 l 756 860 l 690 860 l 690 0 l 533 0 l 533 526 l 244 526 l 244 0 l 88 0 m 244 639 l 533 639 l 533 860 l 244 860 l 244 639 z "},"Ĥ":{"ha":779,"x_min":88,"x_max":690,"o":"m 88 0 l 88 1125 l 244 1125 l 244 639 l 533 639 l 533 1125 l 690 1125 l 690 0 l 533 0 l 533 526 l 244 526 l 244 0 l 88 0 m 194 1204 l 314 1447 l 465 1447 l 586 1204 l 474 1204 l 389 1372 l 306 1204 l 194 1204 z "},"I":{"ha":344,"x_min":96,"x_max":250,"o":"m 96 0 l 96 1125 l 250 1125 l 250 0 l 96 0 z "},"Ĳ":{"ha":763,"x_min":96,"x_max":674,"o":"m 96 0 l 96 1125 l 250 1125 l 250 0 l 96 0 m 354 -26 l 354 86 q 487 118 456 86 q 518 257 518 150 l 518 1125 l 674 1125 l 674 254 q 624 42 674 110 q 429 -26 575 -26 l 354 -26 z "},"Í":{"ha":344,"x_min":96,"x_max":364,"o":"m 96 0 l 96 1125 l 250 1125 l 250 0 l 96 0 m 133 1192 l 215 1467 l 364 1467 l 208 1192 l 133 1192 z "},"Ĭ":{"ha":344,"x_min":-10,"x_max":356,"o":"m 96 0 l 96 1125 l 250 1125 l 250 0 l 96 0 m 172 1213 q 31 1267 72 1213 q -10 1401 -10 1321 l 76 1401 q 99 1324 78 1351 q 172 1297 121 1297 q 246 1325 224 1297 q 268 1401 268 1353 l 356 1401 q 315 1267 356 1321 q 172 1213 274 1213 z "},"Î":{"ha":344,"x_min":-24,"x_max":368,"o":"m 96 0 l 96 1125 l 250 1125 l 250 0 l 96 0 m -24 1204 l 96 1447 l 247 1447 l 368 1204 l 256 1204 l 171 1372 l 88 1204 l -24 1204 z "},"Ȉ":{"ha":344,"x_min":-101,"x_max":307,"o":"m 96 0 l 96 1125 l 250 1125 l 250 0 l 96 0 m 54 1211 l -101 1447 l 49 1447 l 129 1211 l 54 1211 m 232 1211 l 129 1447 l 251 1447 l 307 1211 l 232 1211 z "},"Ï":{"ha":344,"x_min":-22,"x_max":367,"o":"m 96 0 l 96 1125 l 250 1125 l 250 0 l 96 0 m 217 1293 l 217 1447 l 367 1447 l 367 1293 l 217 1293 m -22 1293 l -22 1447 l 128 1447 l 128 1293 l -22 1293 z "},"İ":{"ha":344,"x_min":96,"x_max":250,"o":"m 96 0 l 96 1125 l 250 1125 l 250 0 l 96 0 m 97 1254 l 97 1419 l 247 1419 l 247 1254 l 97 1254 z "},"Ị":{"ha":344,"x_min":96,"x_max":250,"o":"m 96 0 l 96 1125 l 250 1125 l 250 0 l 96 0 m 97 -244 l 97 -87 l 247 -87 l 247 -244 l 97 -244 z "},"Ì":{"ha":344,"x_min":-17,"x_max":250,"o":"m 96 0 l 96 1125 l 250 1125 l 250 0 l 96 0 m 138 1192 l -17 1467 l 132 1467 l 211 1192 l 138 1192 z "},"Ỉ":{"ha":344,"x_min":61,"x_max":328,"o":"m 96 0 l 96 1125 l 250 1125 l 250 0 l 96 0 m 174 1206 l 126 1261 q 192 1297 167 1279 q 217 1342 217 1314 q 192 1383 217 1371 q 132 1396 167 1396 q 61 1386 94 1396 l 61 1461 q 174 1475 115 1475 q 283 1446 239 1475 q 328 1354 328 1417 q 284 1260 328 1293 q 174 1206 240 1228 z "},"Ȋ":{"ha":344,"x_min":-11,"x_max":356,"o":"m 96 0 l 96 1125 l 250 1125 l 250 0 l 96 0 m -11 1240 q 26 1388 -10 1328 q 172 1447 61 1447 q 319 1388 283 1447 q 356 1240 356 1328 l 268 1240 q 247 1335 268 1307 q 172 1363 225 1363 q 99 1334 121 1363 q 76 1240 78 1306 l -11 1240 z "},"Ī":{"ha":344,"x_min":39,"x_max":306,"o":"m 96 0 l 96 1125 l 250 1125 l 250 0 l 96 0 m 39 1274 l 39 1364 l 306 1364 l 306 1274 l 39 1274 z "},"Į":{"ha":344,"x_min":-17,"x_max":251,"o":"m 96 0 l 96 1125 l 250 1125 l 250 0 l 96 0 m 176 -321 q 82 -312 126 -321 q 10 -278 38 -304 q -17 -201 -17 -253 q 33 -75 -17 -133 q 138 0 83 -17 l 213 0 q 135 -83 174 -33 q 96 -179 96 -132 q 132 -234 96 -222 q 207 -246 168 -246 q 251 -243 226 -246 l 226 -317 q 176 -321 204 -321 z "},"Ĩ":{"ha":344,"x_min":-36,"x_max":381,"o":"m 96 0 l 96 1125 l 250 1125 l 250 0 l 96 0 m 278 1294 q 180 1328 219 1294 q 96 1363 140 1363 q 60 1349 72 1363 q 49 1306 49 1336 l -36 1306 q -12 1412 -36 1368 q 75 1456 11 1456 q 167 1422 128 1456 q 251 1389 207 1389 q 286 1401 275 1389 q 297 1447 297 1414 l 381 1447 q 360 1340 381 1385 q 278 1294 339 1294 z "},"J":{"ha":418,"x_min":10,"x_max":329,"o":"m 10 -26 l 10 86 q 142 118 111 86 q 174 257 174 150 l 174 1125 l 329 1125 l 329 254 q 280 42 329 110 q 85 -26 231 -26 l 10 -26 z "},"Ĵ":{"ha":418,"x_min":10,"x_max":447,"o":"m 10 -26 l 10 86 q 142 118 111 86 q 174 257 174 150 l 174 1125 l 329 1125 l 329 254 q 280 42 329 110 q 85 -26 231 -26 l 10 -26 m 56 1204 l 175 1447 l 326 1447 l 447 1204 l 335 1204 l 250 1372 l 167 1204 l 56 1204 z "},"K":{"ha":688,"x_min":88,"x_max":685,"o":"m 88 0 l 88 1125 l 244 1125 l 244 594 l 503 1125 l 649 1125 l 426 629 l 685 0 l 532 0 l 317 528 l 244 397 l 244 0 l 88 0 z "},"Ķ":{"ha":688,"x_min":88,"x_max":685,"o":"m 88 0 l 88 1125 l 244 1125 l 244 594 l 503 1125 l 649 1125 l 426 629 l 685 0 l 532 0 l 317 528 l 244 397 l 244 0 l 88 0 m 306 -399 l 268 -325 q 328 -301 311 -322 q 346 -239 346 -279 l 269 -239 l 269 -87 l 421 -87 l 419 -231 q 398 -350 418 -304 q 306 -399 378 -396 z "},"L":{"ha":551,"x_min":88,"x_max":532,"o":"m 88 0 l 88 1125 l 244 1125 l 244 113 l 532 113 l 532 0 l 88 0 z "},"Ǉ":{"ha":969,"x_min":88,"x_max":881,"o":"m 88 0 l 88 1125 l 244 1125 l 244 113 l 532 113 l 532 0 l 88 0 m 561 -26 l 561 86 q 694 118 663 86 q 725 257 725 150 l 725 1125 l 881 1125 l 881 254 q 831 42 881 110 q 636 -26 782 -26 l 561 -26 z "},"Ĺ":{"ha":551,"x_min":88,"x_max":532,"o":"m 88 0 l 88 1125 l 244 1125 l 244 113 l 532 113 l 532 0 l 88 0 m 128 1192 l 210 1467 l 358 1467 l 203 1192 l 128 1192 z "},"Ľ":{"ha":551,"x_min":88,"x_max":533,"o":"m 88 0 l 88 1125 l 244 1125 l 244 113 l 532 113 l 532 0 l 88 0 m 403 783 l 379 847 q 438 891 417 860 q 460 965 460 922 l 381 965 l 381 1125 l 533 1125 l 533 968 q 501 851 533 894 q 403 783 469 807 z "},"Ļ":{"ha":551,"x_min":88,"x_max":532,"o":"m 88 0 l 88 1125 l 244 1125 l 244 113 l 532 113 l 532 0 l 88 0 m 271 -399 l 233 -325 q 294 -301 276 -322 q 311 -239 311 -279 l 235 -239 l 235 -87 l 386 -87 l 385 -231 q 363 -350 383 -304 q 271 -399 343 -396 z "},"Ŀ":{"ha":551,"x_min":88,"x_max":532,"o":"m 88 0 l 88 1125 l 244 1125 l 244 113 l 532 113 l 532 0 l 88 0 m 388 529 l 388 682 l 496 682 l 496 529 l 388 529 z "},"ǈ":{"ha":871,"x_min":88,"x_max":797,"o":"m 88 0 l 88 1125 l 244 1125 l 244 113 l 532 113 l 532 0 l 88 0 m 601 -203 q 561 -201 582 -203 q 525 -193 540 -200 l 525 -86 q 544 -89 532 -87 q 564 -90 557 -90 q 630 -63 613 -90 q 647 7 647 -36 l 647 803 l 796 803 l 796 -8 q 744 -153 796 -103 q 601 -203 692 -203 m 647 922 l 647 1078 l 797 1078 l 797 922 l 647 922 z "},"Ł":{"ha":551,"x_min":-8,"x_max":532,"o":"m 88 0 l 88 524 l -8 471 l -8 592 l 88 644 l 88 1125 l 244 1125 l 244 732 l 390 811 l 390 692 l 244 611 l 244 113 l 532 113 l 532 0 l 88 0 z "},"M":{"ha":917,"x_min":85,"x_max":832,"o":"m 85 0 l 106 1125 l 260 1125 l 458 213 l 658 1125 l 811 1125 l 832 0 l 706 0 l 693 817 l 503 0 l 414 0 l 225 817 l 213 0 l 85 0 z "},"Ṁ":{"ha":917,"x_min":85,"x_max":832,"o":"m 85 0 l 106 1125 l 260 1125 l 458 213 l 658 1125 l 811 1125 l 832 0 l 706 0 l 693 817 l 503 0 l 414 0 l 225 817 l 213 0 l 85 0 m 383 1254 l 383 1419 l 533 1419 l 533 1254 l 383 1254 z "},"N":{"ha":733,"x_min":88,"x_max":644,"o":"m 88 0 l 88 1125 l 194 1125 l 514 378 l 514 1125 l 644 1125 l 644 0 l 544 0 l 221 768 l 221 0 l 88 0 z "},"Ǌ":{"ha":1151,"x_min":88,"x_max":1063,"o":"m 88 0 l 88 1125 l 194 1125 l 514 378 l 514 1125 l 644 1125 l 644 0 l 544 0 l 221 768 l 221 0 l 88 0 m 743 -26 l 743 86 q 876 118 844 86 q 907 257 907 150 l 907 1125 l 1063 1125 l 1063 254 q 1013 42 1063 110 q 818 -26 964 -26 l 743 -26 z "},"Ń":{"ha":733,"x_min":88,"x_max":644,"o":"m 88 0 l 88 1125 l 194 1125 l 514 378 l 514 1125 l 644 1125 l 644 0 l 544 0 l 221 768 l 221 0 l 88 0 m 328 1192 l 410 1467 l 558 1467 l 403 1192 l 328 1192 z "},"Ň":{"ha":733,"x_min":88,"x_max":644,"o":"m 88 0 l 88 1125 l 194 1125 l 514 378 l 514 1125 l 644 1125 l 644 0 l 544 0 l 221 768 l 221 0 l 88 0 m 293 1207 l 172 1447 l 286 1447 l 367 1285 l 447 1447 l 561 1447 l 439 1207 l 293 1207 z "},"Ņ":{"ha":733,"x_min":88,"x_max":644,"o":"m 88 0 l 88 1125 l 194 1125 l 514 378 l 514 1125 l 644 1125 l 644 0 l 544 0 l 221 768 l 221 0 l 88 0 m 328 -399 l 290 -325 q 351 -301 333 -322 q 368 -239 368 -279 l 292 -239 l 292 -87 l 443 -87 l 442 -231 q 420 -350 440 -304 q 328 -399 400 -396 z "},"Ŋ":{"ha":738,"x_min":88,"x_max":644,"o":"m 371 -254 l 371 -147 q 499 -112 476 -147 q 521 13 521 -78 l 521 58 l 213 768 l 213 0 l 88 0 l 88 1125 l 194 1125 l 522 378 l 522 1125 l 644 1125 l 644 0 q 601 -190 644 -125 q 424 -254 558 -254 l 371 -254 z "},"ǋ":{"ha":1053,"x_min":88,"x_max":979,"o":"m 88 0 l 88 1125 l 194 1125 l 514 378 l 514 1125 l 644 1125 l 644 0 l 544 0 l 221 768 l 221 0 l 88 0 m 783 -203 q 743 -201 764 -203 q 707 -193 722 -200 l 707 -86 q 726 -89 714 -87 q 746 -90 739 -90 q 812 -63 794 -90 q 829 7 829 -36 l 829 803 l 978 803 l 978 -8 q 926 -153 978 -103 q 783 -203 874 -203 m 829 922 l 829 1078 l 979 1078 l 979 922 l 829 922 z "},"Ñ":{"ha":733,"x_min":88,"x_max":644,"o":"m 88 0 l 88 1125 l 194 1125 l 514 378 l 514 1125 l 644 1125 l 644 0 l 544 0 l 221 768 l 221 0 l 88 0 m 472 1294 q 374 1328 414 1294 q 290 1363 335 1363 q 255 1349 267 1363 q 243 1306 243 1336 l 158 1306 q 182 1412 158 1368 q 269 1456 206 1456 q 362 1422 322 1456 q 446 1389 401 1389 q 481 1401 469 1389 q 492 1447 492 1414 l 575 1447 q 554 1340 575 1385 q 472 1294 533 1294 z "},"O":{"ha":749,"x_min":67,"x_max":682,"o":"m 375 -12 q 135 86 203 -12 q 67 353 67 185 l 67 779 q 135 1040 67 946 q 375 1135 204 1135 q 613 1040 544 1135 q 682 779 682 944 l 682 351 q 613 87 682 186 q 375 -12 544 -12 m 375 111 q 497 168 469 111 q 524 318 524 225 l 524 811 q 497 959 524 906 q 375 1013 469 1013 q 253 959 281 1013 q 225 811 225 906 l 225 318 q 253 168 225 225 q 375 111 281 111 z "},"Ó":{"ha":749,"x_min":67,"x_max":682,"o":"m 375 -12 q 135 86 203 -12 q 67 353 67 185 l 67 779 q 135 1040 67 946 q 375 1135 204 1135 q 613 1040 544 1135 q 682 779 682 944 l 682 351 q 613 87 682 186 q 375 -12 544 -12 m 375 111 q 497 168 469 111 q 524 318 524 225 l 524 811 q 497 959 524 906 q 375 1013 469 1013 q 253 959 281 1013 q 225 811 225 906 l 225 318 q 253 168 225 225 q 375 111 281 111 m 336 1192 l 418 1467 l 567 1467 l 411 1192 l 336 1192 z "},"Ŏ":{"ha":749,"x_min":67,"x_max":682,"o":"m 375 -12 q 135 86 203 -12 q 67 353 67 185 l 67 779 q 135 1040 67 946 q 375 1135 204 1135 q 613 1040 544 1135 q 682 779 682 944 l 682 351 q 613 87 682 186 q 375 -12 544 -12 m 375 111 q 497 168 469 111 q 524 318 524 225 l 524 811 q 497 959 524 906 q 375 1013 469 1013 q 253 959 281 1013 q 225 811 225 906 l 225 318 q 253 168 225 225 q 375 111 281 111 m 375 1213 q 234 1267 275 1213 q 193 1401 193 1321 l 279 1401 q 302 1324 281 1351 q 375 1297 324 1297 q 449 1325 426 1297 q 471 1401 471 1353 l 558 1401 q 517 1267 558 1321 q 375 1213 476 1213 z "},"Ô":{"ha":749,"x_min":67,"x_max":682,"o":"m 375 -12 q 135 86 203 -12 q 67 353 67 185 l 67 779 q 135 1040 67 946 q 375 1135 204 1135 q 613 1040 544 1135 q 682 779 682 944 l 682 351 q 613 87 682 186 q 375 -12 544 -12 m 375 111 q 497 168 469 111 q 524 318 524 225 l 524 811 q 497 959 524 906 q 375 1013 469 1013 q 253 959 281 1013 q 225 811 225 906 l 225 318 q 253 168 225 225 q 375 111 281 111 m 179 1204 l 299 1447 l 450 1447 l 571 1204 l 458 1204 l 374 1372 l 290 1204 l 179 1204 z "},"Ố":{"ha":749,"x_min":67,"x_max":754,"o":"m 375 -12 q 135 86 203 -12 q 67 353 67 185 l 67 779 q 135 1040 67 946 q 375 1135 204 1135 q 613 1040 544 1135 q 682 779 682 944 l 682 351 q 613 87 682 186 q 375 -12 544 -12 m 375 111 q 497 168 469 111 q 524 318 524 225 l 524 811 q 497 959 524 906 q 375 1013 469 1013 q 253 959 281 1013 q 225 811 225 906 l 225 318 q 253 168 225 225 q 375 111 281 111 m 179 1204 l 299 1419 l 450 1419 l 571 1204 l 458 1204 l 374 1344 l 290 1204 l 179 1204 m 551 1349 l 625 1508 l 754 1508 l 643 1349 l 551 1349 z "},"Ộ":{"ha":749,"x_min":67,"x_max":682,"o":"m 375 -12 q 135 86 203 -12 q 67 353 67 185 l 67 779 q 135 1040 67 946 q 375 1135 204 1135 q 613 1040 544 1135 q 682 779 682 944 l 682 351 q 613 87 682 186 q 375 -12 544 -12 m 375 111 q 497 168 469 111 q 524 318 524 225 l 524 811 q 497 959 524 906 q 375 1013 469 1013 q 253 959 281 1013 q 225 811 225 906 l 225 318 q 253 168 225 225 q 375 111 281 111 m 179 1204 l 299 1419 l 450 1419 l 571 1204 l 458 1204 l 374 1344 l 290 1204 l 179 1204 m 300 -244 l 300 -87 l 450 -87 l 450 -244 l 300 -244 z "},"Ồ":{"ha":749,"x_min":67,"x_max":682,"o":"m 375 -12 q 135 86 203 -12 q 67 353 67 185 l 67 779 q 135 1040 67 946 q 375 1135 204 1135 q 613 1040 544 1135 q 682 779 682 944 l 682 351 q 613 87 682 186 q 375 -12 544 -12 m 375 111 q 497 168 469 111 q 524 318 524 225 l 524 811 q 497 959 524 906 q 375 1013 469 1013 q 253 959 281 1013 q 225 811 225 906 l 225 318 q 253 168 225 225 q 375 111 281 111 m 179 1204 l 299 1419 l 450 1419 l 571 1204 l 458 1204 l 374 1344 l 290 1204 l 179 1204 m 586 1349 l 475 1508 l 604 1508 l 678 1349 l 586 1349 z "},"Ổ":{"ha":749,"x_min":67,"x_max":715,"o":"m 375 -12 q 135 86 203 -12 q 67 353 67 185 l 67 779 q 135 1040 67 946 q 375 1135 204 1135 q 613 1040 544 1135 q 682 779 682 944 l 682 351 q 613 87 682 186 q 375 -12 544 -12 m 375 111 q 497 168 469 111 q 524 318 524 225 l 524 811 q 497 959 524 906 q 375 1013 469 1013 q 253 959 281 1013 q 225 811 225 906 l 225 318 q 253 168 225 225 q 375 111 281 111 m 585 1318 l 538 1374 q 586 1410 568 1392 q 604 1454 604 1428 q 584 1496 604 1483 q 536 1508 564 1508 q 505 1506 522 1508 q 472 1499 488 1504 l 472 1574 q 574 1588 519 1588 q 674 1558 633 1588 q 715 1467 715 1529 q 678 1374 715 1406 q 585 1318 642 1342 m 179 1204 l 299 1419 l 450 1419 l 571 1204 l 458 1204 l 374 1344 l 290 1204 l 179 1204 z "},"Ỗ":{"ha":749,"x_min":67,"x_max":682,"o":"m 375 -12 q 135 86 203 -12 q 67 353 67 185 l 67 779 q 135 1040 67 946 q 375 1135 204 1135 q 613 1040 544 1135 q 682 779 682 944 l 682 351 q 613 87 682 186 q 375 -12 544 -12 m 375 111 q 497 168 469 111 q 524 318 524 225 l 524 811 q 497 959 524 906 q 375 1013 469 1013 q 253 959 281 1013 q 225 811 225 906 l 225 318 q 253 168 225 225 q 375 111 281 111 z "},"Ȍ":{"ha":749,"x_min":67,"x_max":682,"o":"m 375 -12 q 135 86 203 -12 q 67 353 67 185 l 67 779 q 135 1040 67 946 q 375 1135 204 1135 q 613 1040 544 1135 q 682 779 682 944 l 682 351 q 613 87 682 186 q 375 -12 544 -12 m 375 111 q 497 168 469 111 q 524 318 524 225 l 524 811 q 497 959 524 906 q 375 1013 469 1013 q 253 959 281 1013 q 225 811 225 906 l 225 318 q 253 168 225 225 q 375 111 281 111 m 257 1211 l 101 1447 l 251 1447 l 332 1211 l 257 1211 m 435 1211 l 332 1447 l 454 1447 l 510 1211 l 435 1211 z "},"Ö":{"ha":749,"x_min":67,"x_max":682,"o":"m 375 -12 q 135 86 203 -12 q 67 353 67 185 l 67 779 q 135 1040 67 946 q 375 1135 204 1135 q 613 1040 544 1135 q 682 779 682 944 l 682 351 q 613 87 682 186 q 375 -12 544 -12 m 375 111 q 497 168 469 111 q 524 318 524 225 l 524 811 q 497 959 524 906 q 375 1013 469 1013 q 253 959 281 1013 q 225 811 225 906 l 225 318 q 253 168 225 225 q 375 111 281 111 m 419 1293 l 419 1447 l 569 1447 l 569 1293 l 419 1293 m 181 1293 l 181 1447 l 331 1447 l 331 1293 l 181 1293 z "},"Ȫ":{"ha":749,"x_min":67,"x_max":682,"o":"m 375 -12 q 135 86 203 -12 q 67 353 67 185 l 67 779 q 135 1040 67 946 q 375 1135 204 1135 q 613 1040 544 1135 q 682 779 682 944 l 682 351 q 613 87 682 186 q 375 -12 544 -12 m 375 111 q 497 168 469 111 q 524 318 524 225 l 524 811 q 497 959 524 906 q 375 1013 469 1013 q 253 959 281 1013 q 225 811 225 906 l 225 318 q 253 168 225 225 q 375 111 281 111 m 419 1293 l 419 1447 l 569 1447 l 569 1293 l 419 1293 m 181 1293 l 181 1447 l 331 1447 l 331 1293 l 181 1293 m 242 1596 l 242 1686 l 508 1686 l 508 1596 l 242 1596 z "},"Ȱ":{"ha":749,"x_min":67,"x_max":682,"o":"m 375 -12 q 135 86 203 -12 q 67 353 67 185 l 67 779 q 135 1040 67 946 q 375 1135 204 1135 q 613 1040 544 1135 q 682 779 682 944 l 682 351 q 613 87 682 186 q 375 -12 544 -12 m 375 111 q 497 168 469 111 q 524 318 524 225 l 524 811 q 497 959 524 906 q 375 1013 469 1013 q 253 959 281 1013 q 225 811 225 906 l 225 318 q 253 168 225 225 q 375 111 281 111 m 300 1254 l 300 1419 l 450 1419 l 450 1254 l 300 1254 m 242 1568 l 242 1658 l 508 1658 l 508 1568 l 242 1568 z "},"Ọ":{"ha":749,"x_min":67,"x_max":682,"o":"m 375 -12 q 135 86 203 -12 q 67 353 67 185 l 67 779 q 135 1040 67 946 q 375 1135 204 1135 q 613 1040 544 1135 q 682 779 682 944 l 682 351 q 613 87 682 186 q 375 -12 544 -12 m 375 111 q 497 168 469 111 q 524 318 524 225 l 524 811 q 497 959 524 906 q 375 1013 469 1013 q 253 959 281 1013 q 225 811 225 906 l 225 318 q 253 168 225 225 q 375 111 281 111 m 300 -244 l 300 -87 l 450 -87 l 450 -244 l 300 -244 z "},"Ò":{"ha":749,"x_min":67,"x_max":682,"o":"m 375 -12 q 135 86 203 -12 q 67 353 67 185 l 67 779 q 135 1040 67 946 q 375 1135 204 1135 q 613 1040 544 1135 q 682 779 682 944 l 682 351 q 613 87 682 186 q 375 -12 544 -12 m 375 111 q 497 168 469 111 q 524 318 524 225 l 524 811 q 497 959 524 906 q 375 1013 469 1013 q 253 959 281 1013 q 225 811 225 906 l 225 318 q 253 168 225 225 q 375 111 281 111 m 340 1192 l 186 1467 l 335 1467 l 414 1192 l 340 1192 z "},"Ỏ":{"ha":749,"x_min":67,"x_max":682,"o":"m 375 -12 q 135 86 203 -12 q 67 353 67 185 l 67 779 q 135 1040 67 946 q 375 1135 204 1135 q 613 1040 544 1135 q 682 779 682 944 l 682 351 q 613 87 682 186 q 375 -12 544 -12 m 375 111 q 497 168 469 111 q 524 318 524 225 l 524 811 q 497 959 524 906 q 375 1013 469 1013 q 253 959 281 1013 q 225 811 225 906 l 225 318 q 253 168 225 225 q 375 111 281 111 m 376 1206 l 329 1261 q 394 1297 369 1279 q 419 1342 419 1314 q 394 1383 419 1371 q 335 1396 369 1396 q 264 1386 297 1396 l 264 1461 q 376 1475 318 1475 q 486 1446 442 1475 q 531 1354 531 1417 q 487 1260 531 1293 q 376 1206 443 1228 z "},"Ơ":{"ha":749,"x_min":67,"x_max":682,"o":"m 375 -12 q 135 86 203 -12 q 67 353 67 185 l 67 779 q 135 1040 67 946 q 375 1135 204 1135 q 613 1040 544 1135 q 682 779 682 944 l 682 351 q 613 87 682 186 q 375 -12 544 -12 m 375 111 q 497 168 469 111 q 524 318 524 225 l 524 811 q 497 959 524 906 q 375 1013 469 1013 q 253 959 281 1013 q 225 811 225 906 l 225 318 q 253 168 225 225 q 375 111 281 111 m 436 1047 l 436 1125 l 464 1125 q 539 1228 539 1125 l 654 1228 q 606 1092 654 1138 q 467 1047 557 1047 l 436 1047 z "},"Ớ":{"ha":749,"x_min":67,"x_max":682,"o":"m 375 -12 q 135 86 203 -12 q 67 353 67 185 l 67 779 q 135 1040 67 946 q 375 1135 204 1135 q 613 1040 544 1135 q 682 779 682 944 l 682 351 q 613 87 682 186 q 375 -12 544 -12 m 375 111 q 497 168 469 111 q 524 318 524 225 l 524 811 q 497 959 524 906 q 375 1013 469 1013 q 253 959 281 1013 q 225 811 225 906 l 225 318 q 253 168 225 225 q 375 111 281 111 m 436 1047 l 436 1125 l 464 1125 q 539 1228 539 1125 l 654 1228 q 606 1092 654 1138 q 467 1047 557 1047 l 436 1047 m 336 1192 l 418 1467 l 567 1467 l 411 1192 l 336 1192 z "},"Ợ":{"ha":749,"x_min":67,"x_max":682,"o":"m 375 -12 q 135 86 203 -12 q 67 353 67 185 l 67 779 q 135 1040 67 946 q 375 1135 204 1135 q 613 1040 544 1135 q 682 779 682 944 l 682 351 q 613 87 682 186 q 375 -12 544 -12 m 375 111 q 497 168 469 111 q 524 318 524 225 l 524 811 q 497 959 524 906 q 375 1013 469 1013 q 253 959 281 1013 q 225 811 225 906 l 225 318 q 253 168 225 225 q 375 111 281 111 m 436 1047 l 436 1125 l 464 1125 q 539 1228 539 1125 l 654 1228 q 606 1092 654 1138 q 467 1047 557 1047 l 436 1047 m 300 -244 l 300 -87 l 450 -87 l 450 -244 l 300 -244 z "},"Ờ":{"ha":749,"x_min":67,"x_max":682,"o":"m 375 -12 q 135 86 203 -12 q 67 353 67 185 l 67 779 q 135 1040 67 946 q 375 1135 204 1135 q 613 1040 544 1135 q 682 779 682 944 l 682 351 q 613 87 682 186 q 375 -12 544 -12 m 375 111 q 497 168 469 111 q 524 318 524 225 l 524 811 q 497 959 524 906 q 375 1013 469 1013 q 253 959 281 1013 q 225 811 225 906 l 225 318 q 253 168 225 225 q 375 111 281 111 m 436 1047 l 436 1125 l 464 1125 q 539 1228 539 1125 l 654 1228 q 606 1092 654 1138 q 467 1047 557 1047 l 436 1047 m 340 1192 l 186 1467 l 335 1467 l 414 1192 l 340 1192 z "},"Ở":{"ha":749,"x_min":67,"x_max":682,"o":"m 375 -12 q 135 86 203 -12 q 67 353 67 185 l 67 779 q 135 1040 67 946 q 375 1135 204 1135 q 613 1040 544 1135 q 682 779 682 944 l 682 351 q 613 87 682 186 q 375 -12 544 -12 m 375 111 q 497 168 469 111 q 524 318 524 225 l 524 811 q 497 959 524 906 q 375 1013 469 1013 q 253 959 281 1013 q 225 811 225 906 l 225 318 q 253 168 225 225 q 375 111 281 111 m 436 1047 l 436 1125 l 464 1125 q 539 1228 539 1125 l 654 1228 q 606 1092 654 1138 q 467 1047 557 1047 l 436 1047 m 376 1206 l 329 1261 q 394 1297 369 1279 q 419 1342 419 1314 q 394 1383 419 1371 q 335 1396 369 1396 q 264 1386 297 1396 l 264 1461 q 376 1475 318 1475 q 486 1446 442 1475 q 531 1354 531 1417 q 487 1260 531 1293 q 376 1206 443 1228 z "},"Ỡ":{"ha":749,"x_min":67,"x_max":682,"o":"m 375 -12 q 135 86 203 -12 q 67 353 67 185 l 67 779 q 135 1040 67 946 q 375 1135 204 1135 q 613 1040 544 1135 q 682 779 682 944 l 682 351 q 613 87 682 186 q 375 -12 544 -12 m 375 111 q 497 168 469 111 q 524 318 524 225 l 524 811 q 497 959 524 906 q 375 1013 469 1013 q 253 959 281 1013 q 225 811 225 906 l 225 318 q 253 168 225 225 q 375 111 281 111 m 436 1047 l 436 1125 l 464 1125 q 539 1228 539 1125 l 654 1228 q 606 1092 654 1138 q 467 1047 557 1047 l 436 1047 m 481 1294 q 383 1328 422 1294 q 299 1363 343 1363 q 263 1349 275 1363 q 251 1306 251 1336 l 167 1306 q 190 1412 167 1368 q 278 1456 214 1456 q 370 1422 331 1456 q 454 1389 410 1389 q 489 1401 478 1389 q 500 1447 500 1414 l 583 1447 q 563 1340 583 1385 q 481 1294 542 1294 z "},"Ő":{"ha":749,"x_min":67,"x_max":682,"o":"m 375 -12 q 135 86 203 -12 q 67 353 67 185 l 67 779 q 135 1040 67 946 q 375 1135 204 1135 q 613 1040 544 1135 q 682 779 682 944 l 682 351 q 613 87 682 186 q 375 -12 544 -12 m 375 111 q 497 168 469 111 q 524 318 524 225 l 524 811 q 497 959 524 906 q 375 1013 469 1013 q 253 959 281 1013 q 225 811 225 906 l 225 318 q 253 168 225 225 q 375 111 281 111 m 431 1211 l 511 1449 l 661 1449 l 507 1211 l 431 1211 m 256 1211 l 310 1449 l 432 1449 l 331 1211 l 256 1211 z "},"Ȏ":{"ha":749,"x_min":67,"x_max":682,"o":"m 375 -12 q 135 86 203 -12 q 67 353 67 185 l 67 779 q 135 1040 67 946 q 375 1135 204 1135 q 613 1040 544 1135 q 682 779 682 944 l 682 351 q 613 87 682 186 q 375 -12 544 -12 m 375 111 q 497 168 469 111 q 524 318 524 225 l 524 811 q 497 959 524 906 q 375 1013 469 1013 q 253 959 281 1013 q 225 811 225 906 l 225 318 q 253 168 225 225 q 375 111 281 111 m 192 1240 q 228 1388 193 1328 q 375 1447 264 1447 q 522 1388 486 1447 q 558 1240 558 1328 l 471 1240 q 449 1335 471 1307 q 375 1363 428 1363 q 302 1334 324 1363 q 279 1240 281 1306 l 192 1240 z "},"Ō":{"ha":749,"x_min":67,"x_max":682,"o":"m 375 -12 q 135 86 203 -12 q 67 353 67 185 l 67 779 q 135 1040 67 946 q 375 1135 204 1135 q 613 1040 544 1135 q 682 779 682 944 l 682 351 q 613 87 682 186 q 375 -12 544 -12 m 375 111 q 497 168 469 111 q 524 318 524 225 l 524 811 q 497 959 524 906 q 375 1013 469 1013 q 253 959 281 1013 q 225 811 225 906 l 225 318 q 253 168 225 225 q 375 111 281 111 m 242 1274 l 242 1364 l 508 1364 l 508 1274 l 242 1274 z "},"Ǫ":{"ha":749,"x_min":67,"x_max":682,"o":"m 375 -12 q 135 86 203 -12 q 67 353 67 185 l 67 779 q 135 1040 67 946 q 375 1135 204 1135 q 613 1040 544 1135 q 682 779 682 944 l 682 351 q 613 87 682 186 q 375 -12 544 -12 m 375 111 q 497 168 469 111 q 524 318 524 225 l 524 811 q 497 959 524 906 q 375 1013 469 1013 q 253 959 281 1013 q 225 811 225 906 l 225 318 q 253 168 225 225 q 375 111 281 111 m 433 -321 q 339 -312 383 -321 q 267 -278 294 -304 q 240 -201 240 -253 q 290 -75 240 -133 q 394 0 340 -17 l 469 0 q 392 -83 431 -33 q 353 -179 353 -132 q 389 -234 353 -222 q 464 -246 425 -246 q 508 -243 483 -246 l 483 -317 q 433 -321 461 -321 z "},"Ø":{"ha":750,"x_min":67,"x_max":682,"o":"m 222 -103 l 168 -86 l 518 1222 l 574 1208 l 222 -103 m 375 -12 q 135 86 203 -12 q 67 353 67 185 l 67 779 q 135 1040 67 946 q 375 1135 204 1135 q 613 1040 544 1135 q 682 779 682 944 l 682 351 q 613 87 682 186 q 375 -12 544 -12 m 375 111 q 497 168 469 111 q 524 318 524 225 l 524 811 q 497 959 524 906 q 375 1013 469 1013 q 253 959 281 1013 q 225 811 225 906 l 225 318 q 253 168 225 225 q 375 111 281 111 z "},"Ǿ":{"ha":750,"x_min":67,"x_max":682,"o":"m 222 -103 l 168 -86 l 518 1222 l 574 1208 l 222 -103 m 375 -12 q 135 86 203 -12 q 67 353 67 185 l 67 779 q 135 1040 67 946 q 375 1135 204 1135 q 613 1040 544 1135 q 682 779 682 944 l 682 351 q 613 87 682 186 q 375 -12 544 -12 m 375 111 q 497 168 469 111 q 524 318 524 225 l 524 811 q 497 959 524 906 q 375 1013 469 1013 q 253 959 281 1013 q 225 811 225 906 l 225 318 q 253 168 225 225 q 375 111 281 111 m 336 1192 l 418 1467 l 567 1467 l 411 1192 l 336 1192 z "},"Õ":{"ha":749,"x_min":67,"x_max":682,"o":"m 375 -12 q 135 86 203 -12 q 67 353 67 185 l 67 779 q 135 1040 67 946 q 375 1135 204 1135 q 613 1040 544 1135 q 682 779 682 944 l 682 351 q 613 87 682 186 q 375 -12 544 -12 m 375 111 q 497 168 469 111 q 524 318 524 225 l 524 811 q 497 959 524 906 q 375 1013 469 1013 q 253 959 281 1013 q 225 811 225 906 l 225 318 q 253 168 225 225 q 375 111 281 111 m 481 1294 q 383 1328 422 1294 q 299 1363 343 1363 q 263 1349 275 1363 q 251 1306 251 1336 l 167 1306 q 190 1412 167 1368 q 278 1456 214 1456 q 370 1422 331 1456 q 454 1389 410 1389 q 489 1401 478 1389 q 500 1447 500 1414 l 583 1447 q 563 1340 583 1385 q 481 1294 542 1294 z "},"Ȭ":{"ha":749,"x_min":67,"x_max":682,"o":"m 375 -12 q 135 86 203 -12 q 67 353 67 185 l 67 779 q 135 1040 67 946 q 375 1135 204 1135 q 613 1040 544 1135 q 682 779 682 944 l 682 351 q 613 87 682 186 q 375 -12 544 -12 m 375 111 q 497 168 469 111 q 524 318 524 225 l 524 811 q 497 959 524 906 q 375 1013 469 1013 q 253 959 281 1013 q 225 811 225 906 l 225 318 q 253 168 225 225 q 375 111 281 111 m 481 1294 q 383 1328 422 1294 q 299 1363 343 1363 q 263 1349 275 1363 q 251 1306 251 1336 l 167 1306 q 190 1412 167 1368 q 278 1456 214 1456 q 370 1422 331 1456 q 454 1389 410 1389 q 489 1401 478 1389 q 500 1447 500 1414 l 583 1447 q 563 1340 583 1385 q 481 1294 542 1294 m 242 1604 l 242 1694 l 508 1694 l 508 1604 l 242 1604 z "},"Œ":{"ha":949,"x_min":67,"x_max":911,"o":"m 400 0 q 139 85 211 0 q 67 343 67 171 l 67 758 q 139 1031 67 938 q 389 1125 211 1125 l 908 1125 l 908 1008 l 635 1008 l 635 638 l 857 638 l 857 525 l 635 525 l 635 113 l 911 113 l 911 0 l 400 0 m 403 117 l 478 117 l 478 1013 l 400 1013 q 249 940 272 1013 q 225 729 225 867 l 225 360 q 253 174 225 232 q 403 117 282 117 z "},"P":{"ha":667,"x_min":88,"x_max":644,"o":"m 88 0 l 88 1125 l 367 1125 q 581 1043 518 1125 q 644 814 644 961 q 614 660 644 725 q 522 559 583 594 q 368 524 460 524 l 244 524 l 244 0 l 88 0 m 244 636 l 317 636 q 457 672 418 636 q 496 813 496 708 q 466 972 496 932 q 318 1013 436 1013 l 244 1013 l 244 636 z "},"Ṗ":{"ha":667,"x_min":88,"x_max":644,"o":"m 88 0 l 88 1125 l 367 1125 q 581 1043 518 1125 q 644 814 644 961 q 614 660 644 725 q 522 559 583 594 q 368 524 460 524 l 244 524 l 244 0 l 88 0 m 244 636 l 317 636 q 457 672 418 636 q 496 813 496 708 q 466 972 496 932 q 318 1013 436 1013 l 244 1013 l 244 636 m 258 1254 l 258 1419 l 408 1419 l 408 1254 l 258 1254 z "},"Þ":{"ha":699,"x_min":88,"x_max":675,"o":"m 88 0 l 88 1125 l 244 1125 l 244 978 l 407 978 q 611 889 547 978 q 675 651 675 800 q 643 473 675 546 q 546 362 611 400 q 381 324 481 324 l 244 324 l 244 0 l 88 0 m 244 450 l 342 450 q 478 492 435 450 q 522 651 522 533 q 485 803 522 760 q 360 847 447 847 l 244 847 l 244 450 z "},"Q":{"ha":751,"x_min":67,"x_max":683,"o":"m 604 -228 q 494 -135 547 -200 q 401 -11 442 -69 q 388 -12 394 -11 q 375 -12 382 -12 q 135 86 203 -12 q 67 353 67 185 l 67 779 q 135 1040 67 946 q 375 1135 204 1135 q 614 1040 544 1135 q 683 779 683 944 l 683 351 q 646 140 683 228 q 518 14 608 51 q 573 -52 543 -18 q 629 -104 603 -86 l 604 -228 m 375 111 q 497 168 469 111 q 525 318 525 225 l 525 811 q 497 959 525 906 q 375 1013 469 1013 q 253 959 281 1013 q 225 811 225 906 l 225 318 q 253 168 225 225 q 375 111 281 111 z "},"R":{"ha":721,"x_min":88,"x_max":665,"o":"m 88 0 l 88 1125 l 314 1125 q 564 1056 483 1125 q 644 826 644 986 q 613 658 644 728 q 506 564 581 589 l 665 0 l 514 0 l 367 528 l 244 528 l 244 0 l 88 0 m 244 640 l 304 640 q 448 679 403 640 q 493 826 493 718 q 457 969 493 925 q 314 1013 421 1013 l 244 1013 l 244 640 z "},"Ŕ":{"ha":721,"x_min":88,"x_max":665,"o":"m 88 0 l 88 1125 l 314 1125 q 564 1056 483 1125 q 644 826 644 986 q 613 658 644 728 q 506 564 581 589 l 665 0 l 514 0 l 367 528 l 244 528 l 244 0 l 88 0 m 244 640 l 304 640 q 448 679 403 640 q 493 826 493 718 q 457 969 493 925 q 314 1013 421 1013 l 244 1013 l 244 640 m 322 1192 l 404 1467 l 553 1467 l 397 1192 l 322 1192 z "},"Ř":{"ha":721,"x_min":88,"x_max":665,"o":"m 88 0 l 88 1125 l 314 1125 q 564 1056 483 1125 q 644 826 644 986 q 613 658 644 728 q 506 564 581 589 l 665 0 l 514 0 l 367 528 l 244 528 l 244 0 l 88 0 m 244 640 l 304 640 q 448 679 403 640 q 493 826 493 718 q 457 969 493 925 q 314 1013 421 1013 l 244 1013 l 244 640 m 288 1207 l 167 1447 l 281 1447 l 361 1285 l 442 1447 l 556 1447 l 433 1207 l 288 1207 z "},"Ŗ":{"ha":721,"x_min":88,"x_max":665,"o":"m 88 0 l 88 1125 l 314 1125 q 564 1056 483 1125 q 644 826 644 986 q 613 658 644 728 q 506 564 581 589 l 665 0 l 514 0 l 367 528 l 244 528 l 244 0 l 88 0 m 244 640 l 304 640 q 448 679 403 640 q 493 826 493 718 q 457 969 493 925 q 314 1013 421 1013 l 244 1013 l 244 640 m 322 -399 l 285 -325 q 345 -301 328 -322 q 363 -239 363 -279 l 286 -239 l 286 -87 l 438 -87 l 436 -231 q 415 -350 435 -304 q 322 -399 394 -396 z "},"Ȑ":{"ha":721,"x_min":88,"x_max":665,"o":"m 88 0 l 88 1125 l 314 1125 q 564 1056 483 1125 q 644 826 644 986 q 613 658 644 728 q 506 564 581 589 l 665 0 l 514 0 l 367 528 l 244 528 l 244 0 l 88 0 m 244 640 l 304 640 q 448 679 403 640 q 493 826 493 718 q 457 969 493 925 q 314 1013 421 1013 l 244 1013 l 244 640 m 243 1211 l 88 1447 l 238 1447 l 318 1211 l 243 1211 m 421 1211 l 318 1447 l 440 1447 l 496 1211 l 421 1211 z "},"Ȓ":{"ha":721,"x_min":88,"x_max":665,"o":"m 88 0 l 88 1125 l 314 1125 q 564 1056 483 1125 q 644 826 644 986 q 613 658 644 728 q 506 564 581 589 l 665 0 l 514 0 l 367 528 l 244 528 l 244 0 l 88 0 m 244 640 l 304 640 q 448 679 403 640 q 493 826 493 718 q 457 969 493 925 q 314 1013 421 1013 l 244 1013 l 244 640 m 178 1240 q 215 1388 179 1328 q 361 1447 250 1447 q 508 1388 472 1447 q 544 1240 544 1328 l 457 1240 q 435 1335 457 1307 q 361 1363 414 1363 q 288 1334 310 1363 q 265 1240 267 1306 l 178 1240 z "},"S":{"ha":657,"x_min":54,"x_max":622,"o":"m 353 -12 q 134 78 206 -12 q 54 315 63 169 l 193 353 q 231 187 200 263 q 353 111 263 111 q 445 144 414 111 q 476 243 476 178 q 441 365 476 319 q 354 460 406 411 l 165 626 q 83 733 110 676 q 57 875 57 790 q 128 1066 57 999 q 321 1135 199 1133 q 471 1104 411 1136 q 563 1008 531 1072 q 604 844 594 943 l 471 808 q 436 956 464 892 q 321 1014 408 1019 q 230 981 263 1010 q 197 890 197 951 q 215 806 197 839 q 271 738 232 772 l 461 571 q 573 438 524 514 q 622 256 622 361 q 547 59 622 131 q 353 -12 471 -12 z "},"Ś":{"ha":657,"x_min":54,"x_max":622,"o":"m 353 -12 q 134 78 206 -12 q 54 315 63 169 l 193 353 q 231 187 200 263 q 353 111 263 111 q 445 144 414 111 q 476 243 476 178 q 441 365 476 319 q 354 460 406 411 l 165 626 q 83 733 110 676 q 57 875 57 790 q 128 1066 57 999 q 321 1135 199 1133 q 471 1104 411 1136 q 563 1008 531 1072 q 604 844 594 943 l 471 808 q 436 956 464 892 q 321 1014 408 1019 q 230 981 263 1010 q 197 890 197 951 q 215 806 197 839 q 271 738 232 772 l 461 571 q 573 438 524 514 q 622 256 622 361 q 547 59 622 131 q 353 -12 471 -12 m 290 1192 l 372 1467 l 521 1467 l 365 1192 l 290 1192 z "},"Š":{"ha":657,"x_min":54,"x_max":622,"o":"m 353 -12 q 134 78 206 -12 q 54 315 63 169 l 193 353 q 231 187 200 263 q 353 111 263 111 q 445 144 414 111 q 476 243 476 178 q 441 365 476 319 q 354 460 406 411 l 165 626 q 83 733 110 676 q 57 875 57 790 q 128 1066 57 999 q 321 1135 199 1133 q 471 1104 411 1136 q 563 1008 531 1072 q 604 844 594 943 l 471 808 q 436 956 464 892 q 321 1014 408 1019 q 230 981 263 1010 q 197 890 197 951 q 215 806 197 839 q 271 738 232 772 l 461 571 q 573 438 524 514 q 622 256 622 361 q 547 59 622 131 q 353 -12 471 -12 m 256 1207 l 135 1447 l 249 1447 l 329 1285 l 410 1447 l 524 1447 l 401 1207 l 256 1207 z "},"Ş":{"ha":657,"x_min":54,"x_max":622,"o":"m 353 -12 q 134 78 206 -12 q 54 315 63 169 l 193 353 q 231 187 200 263 q 353 111 263 111 q 445 144 414 111 q 476 243 476 178 q 441 365 476 319 q 354 460 406 411 l 165 626 q 83 733 110 676 q 57 875 57 790 q 128 1066 57 999 q 321 1135 199 1133 q 471 1104 411 1136 q 563 1008 531 1072 q 604 844 594 943 l 471 808 q 436 956 464 892 q 321 1014 408 1019 q 230 981 263 1010 q 197 890 197 951 q 215 806 197 839 q 271 738 232 772 l 461 571 q 573 438 524 514 q 622 256 622 361 q 547 59 622 131 q 353 -12 471 -12 m 347 -326 q 254 -312 307 -326 l 254 -237 q 325 -247 288 -247 q 385 -235 360 -247 q 410 -193 410 -222 q 379 -140 410 -157 q 292 -115 349 -124 l 292 0 l 367 0 l 367 -78 q 478 -110 435 -78 q 521 -197 521 -142 q 471 -295 521 -264 q 347 -326 421 -326 z "},"Ŝ":{"ha":657,"x_min":54,"x_max":622,"o":"m 353 -12 q 134 78 206 -12 q 54 315 63 169 l 193 353 q 231 187 200 263 q 353 111 263 111 q 445 144 414 111 q 476 243 476 178 q 441 365 476 319 q 354 460 406 411 l 165 626 q 83 733 110 676 q 57 875 57 790 q 128 1066 57 999 q 321 1135 199 1133 q 471 1104 411 1136 q 563 1008 531 1072 q 604 844 594 943 l 471 808 q 436 956 464 892 q 321 1014 408 1019 q 230 981 263 1010 q 197 890 197 951 q 215 806 197 839 q 271 738 232 772 l 461 571 q 573 438 524 514 q 622 256 622 361 q 547 59 622 131 q 353 -12 471 -12 m 133 1204 l 253 1447 l 404 1447 l 525 1204 l 413 1204 l 328 1372 l 244 1204 l 133 1204 z "},"Ș":{"ha":657,"x_min":54,"x_max":622,"o":"m 353 -12 q 134 78 206 -12 q 54 315 63 169 l 193 353 q 231 187 200 263 q 353 111 263 111 q 445 144 414 111 q 476 243 476 178 q 441 365 476 319 q 354 460 406 411 l 165 626 q 83 733 110 676 q 57 875 57 790 q 128 1066 57 999 q 321 1135 199 1133 q 471 1104 411 1136 q 563 1008 531 1072 q 604 844 594 943 l 471 808 q 436 956 464 892 q 321 1014 408 1019 q 230 981 263 1010 q 197 890 197 951 q 215 806 197 839 q 271 738 232 772 l 461 571 q 573 438 524 514 q 622 256 622 361 q 547 59 622 131 q 353 -12 471 -12 m 290 -399 l 253 -325 q 313 -301 296 -322 q 331 -239 331 -279 l 254 -239 l 254 -87 l 406 -87 l 404 -231 q 383 -350 403 -304 q 290 -399 363 -396 z "},"Ṡ":{"ha":657,"x_min":54,"x_max":622,"o":"m 353 -12 q 134 78 206 -12 q 54 315 63 169 l 193 353 q 231 187 200 263 q 353 111 263 111 q 445 144 414 111 q 476 243 476 178 q 441 365 476 319 q 354 460 406 411 l 165 626 q 83 733 110 676 q 57 875 57 790 q 128 1066 57 999 q 321 1135 199 1133 q 471 1104 411 1136 q 563 1008 531 1072 q 604 844 594 943 l 471 808 q 436 956 464 892 q 321 1014 408 1019 q 230 981 263 1010 q 197 890 197 951 q 215 806 197 839 q 271 738 232 772 l 461 571 q 573 438 524 514 q 622 256 622 361 q 547 59 622 131 q 353 -12 471 -12 m 254 1254 l 254 1419 l 404 1419 l 404 1254 l 254 1254 z "},"ẞ":{"ha":749,"x_min":78,"x_max":707,"o":"m 353 -12 l 353 100 l 400 100 q 518 149 479 100 q 557 315 557 199 q 518 485 557 433 q 400 536 479 536 l 368 536 l 367 656 l 551 994 q 429 1013 500 1013 q 282 953 329 1013 q 235 781 235 894 l 235 0 l 78 0 l 78 774 q 160 1034 78 933 q 422 1135 243 1135 q 556 1119 497 1135 q 667 1078 615 1104 l 667 954 l 456 565 l 435 629 q 707 319 707 629 q 635 66 707 144 q 428 -12 563 -12 l 353 -12 z "},"Ə":{"ha":743,"x_min":61,"x_max":676,"o":"m 369 -12 q 129 86 197 -12 q 61 353 61 185 l 61 585 l 518 585 l 518 811 q 491 959 518 906 q 369 1013 464 1013 q 247 959 275 1013 q 219 811 219 906 l 219 714 l 61 714 l 61 779 q 129 1040 61 946 q 369 1135 197 1135 q 608 1040 539 1135 q 676 779 676 944 l 676 351 q 608 87 676 186 q 369 -12 539 -12 m 369 111 q 491 168 464 111 q 518 318 518 225 l 518 461 l 219 461 l 219 318 q 247 168 219 225 q 369 111 275 111 z "},"T":{"ha":556,"x_min":-1,"x_max":558,"o":"m 203 0 l 203 1008 l -1 1008 l -1 1125 l 558 1125 l 558 1008 l 360 1008 l 360 0 l 203 0 z "},"Ŧ":{"ha":556,"x_min":-1,"x_max":558,"o":"m 57 543 l 57 632 l 499 632 l 499 543 l 57 543 m 203 0 l 203 1008 l -1 1008 l -1 1125 l 558 1125 l 558 1008 l 360 1008 l 360 0 l 203 0 z "},"Ť":{"ha":556,"x_min":-1,"x_max":558,"o":"m 203 0 l 203 1008 l -1 1008 l -1 1125 l 558 1125 l 558 1008 l 360 1008 l 360 0 l 203 0 m 204 1207 l 83 1447 l 197 1447 l 278 1285 l 358 1447 l 472 1447 l 350 1207 l 204 1207 z "},"Ţ":{"ha":556,"x_min":-1,"x_max":558,"o":"m 203 0 l 203 1008 l -1 1008 l -1 1125 l 558 1125 l 558 1008 l 360 1008 l 360 0 l 203 0 m 296 -326 q 203 -312 256 -326 l 203 -237 q 274 -247 236 -247 q 333 -235 308 -247 q 358 -193 358 -222 q 328 -140 358 -157 q 240 -115 297 -124 l 240 0 l 315 0 l 315 -78 q 426 -110 383 -78 q 469 -197 469 -142 q 419 -295 469 -264 q 296 -326 369 -326 z "},"Ț":{"ha":556,"x_min":-1,"x_max":558,"o":"m 203 0 l 203 1008 l -1 1008 l -1 1125 l 558 1125 l 558 1008 l 360 1008 l 360 0 l 203 0 m 239 -399 l 201 -325 q 262 -301 244 -322 q 279 -239 279 -279 l 203 -239 l 203 -87 l 354 -87 l 353 -231 q 331 -350 351 -304 q 239 -399 311 -396 z "},"Ṫ":{"ha":556,"x_min":-1,"x_max":558,"o":"m 203 0 l 203 1008 l -1 1008 l -1 1125 l 558 1125 l 558 1008 l 360 1008 l 360 0 l 203 0 m 203 1254 l 203 1419 l 353 1419 l 353 1254 l 203 1254 z "},"U":{"ha":754,"x_min":78,"x_max":676,"o":"m 378 -12 q 135 95 193 -12 q 78 379 78 203 l 78 1125 l 228 1125 l 228 372 q 253 187 228 263 q 378 111 279 111 q 502 187 476 111 q 528 372 528 263 l 528 1125 l 676 1125 l 676 379 q 619 95 676 203 q 378 -12 561 -12 z "},"Ú":{"ha":754,"x_min":78,"x_max":676,"o":"m 378 -12 q 135 95 193 -12 q 78 379 78 203 l 78 1125 l 228 1125 l 228 372 q 253 187 228 263 q 378 111 279 111 q 502 187 476 111 q 528 372 528 263 l 528 1125 l 676 1125 l 676 379 q 619 95 676 203 q 378 -12 561 -12 m 339 1192 l 421 1467 l 569 1467 l 414 1192 l 339 1192 z "},"Ŭ":{"ha":754,"x_min":78,"x_max":676,"o":"m 378 -12 q 135 95 193 -12 q 78 379 78 203 l 78 1125 l 228 1125 l 228 372 q 253 187 228 263 q 378 111 279 111 q 502 187 476 111 q 528 372 528 263 l 528 1125 l 676 1125 l 676 379 q 619 95 676 203 q 378 -12 561 -12 m 378 1213 q 237 1267 278 1213 q 196 1401 196 1321 l 282 1401 q 305 1324 283 1351 q 378 1297 326 1297 q 451 1325 429 1297 q 474 1401 474 1353 l 561 1401 q 520 1267 561 1321 q 378 1213 479 1213 z "},"Û":{"ha":754,"x_min":78,"x_max":676,"o":"m 378 -12 q 135 95 193 -12 q 78 379 78 203 l 78 1125 l 228 1125 l 228 372 q 253 187 228 263 q 378 111 279 111 q 502 187 476 111 q 528 372 528 263 l 528 1125 l 676 1125 l 676 379 q 619 95 676 203 q 378 -12 561 -12 m 182 1204 l 301 1447 l 453 1447 l 574 1204 l 461 1204 l 376 1372 l 293 1204 l 182 1204 z "},"Ȕ":{"ha":754,"x_min":78,"x_max":676,"o":"m 378 -12 q 135 95 193 -12 q 78 379 78 203 l 78 1125 l 228 1125 l 228 372 q 253 187 228 263 q 378 111 279 111 q 502 187 476 111 q 528 372 528 263 l 528 1125 l 676 1125 l 676 379 q 619 95 676 203 q 378 -12 561 -12 m 260 1211 l 104 1447 l 254 1447 l 335 1211 l 260 1211 m 438 1211 l 335 1447 l 457 1447 l 513 1211 l 438 1211 z "},"Ü":{"ha":754,"x_min":78,"x_max":676,"o":"m 378 -12 q 135 95 193 -12 q 78 379 78 203 l 78 1125 l 228 1125 l 228 372 q 253 187 228 263 q 378 111 279 111 q 502 187 476 111 q 528 372 528 263 l 528 1125 l 676 1125 l 676 379 q 619 95 676 203 q 378 -12 561 -12 m 422 1293 l 422 1447 l 572 1447 l 572 1293 l 422 1293 m 183 1293 l 183 1447 l 333 1447 l 333 1293 l 183 1293 z "},"Ụ":{"ha":754,"x_min":78,"x_max":676,"o":"m 378 -12 q 135 95 193 -12 q 78 379 78 203 l 78 1125 l 228 1125 l 228 372 q 253 187 228 263 q 378 111 279 111 q 502 187 476 111 q 528 372 528 263 l 528 1125 l 676 1125 l 676 379 q 619 95 676 203 q 378 -12 561 -12 m 303 -244 l 303 -87 l 453 -87 l 453 -244 l 303 -244 z "},"Ù":{"ha":754,"x_min":78,"x_max":676,"o":"m 378 -12 q 135 95 193 -12 q 78 379 78 203 l 78 1125 l 228 1125 l 228 372 q 253 187 228 263 q 378 111 279 111 q 502 187 476 111 q 528 372 528 263 l 528 1125 l 676 1125 l 676 379 q 619 95 676 203 q 378 -12 561 -12 m 343 1192 l 189 1467 l 338 1467 l 417 1192 l 343 1192 z "},"Ủ":{"ha":754,"x_min":78,"x_max":676,"o":"m 378 -12 q 135 95 193 -12 q 78 379 78 203 l 78 1125 l 228 1125 l 228 372 q 253 187 228 263 q 378 111 279 111 q 502 187 476 111 q 528 372 528 263 l 528 1125 l 676 1125 l 676 379 q 619 95 676 203 q 378 -12 561 -12 m 379 1206 l 332 1261 q 397 1297 372 1279 q 422 1342 422 1314 q 397 1383 422 1371 q 338 1396 372 1396 q 267 1386 300 1396 l 267 1461 q 379 1475 321 1475 q 489 1446 444 1475 q 533 1354 533 1417 q 490 1260 533 1293 q 379 1206 446 1228 z "},"Ư":{"ha":754,"x_min":78,"x_max":776,"o":"m 378 -12 q 135 95 193 -12 q 78 379 78 203 l 78 1125 l 228 1125 l 228 372 q 253 187 228 263 q 378 111 279 111 q 502 187 476 111 q 528 372 528 263 l 528 1125 l 676 1125 l 676 379 q 619 95 676 203 q 378 -12 561 -12 m 572 1047 l 572 1125 l 586 1125 q 661 1228 661 1125 l 776 1228 q 728 1092 776 1138 q 589 1047 679 1047 l 572 1047 z "},"Ứ":{"ha":754,"x_min":78,"x_max":776,"o":"m 378 -12 q 135 95 193 -12 q 78 379 78 203 l 78 1125 l 228 1125 l 228 372 q 253 187 228 263 q 378 111 279 111 q 502 187 476 111 q 528 372 528 263 l 528 1125 l 676 1125 l 676 379 q 619 95 676 203 q 378 -12 561 -12 m 572 1047 l 572 1125 l 586 1125 q 661 1228 661 1125 l 776 1228 q 728 1092 776 1138 q 589 1047 679 1047 l 572 1047 m 339 1192 l 421 1467 l 569 1467 l 414 1192 l 339 1192 z "},"Ự":{"ha":754,"x_min":78,"x_max":776,"o":"m 378 -12 q 135 95 193 -12 q 78 379 78 203 l 78 1125 l 228 1125 l 228 372 q 253 187 228 263 q 378 111 279 111 q 502 187 476 111 q 528 372 528 263 l 528 1125 l 676 1125 l 676 379 q 619 95 676 203 q 378 -12 561 -12 m 572 1047 l 572 1125 l 586 1125 q 661 1228 661 1125 l 776 1228 q 728 1092 776 1138 q 589 1047 679 1047 l 572 1047 m 303 -244 l 303 -87 l 453 -87 l 453 -244 l 303 -244 z "},"Ừ":{"ha":754,"x_min":78,"x_max":776,"o":"m 378 -12 q 135 95 193 -12 q 78 379 78 203 l 78 1125 l 228 1125 l 228 372 q 253 187 228 263 q 378 111 279 111 q 502 187 476 111 q 528 372 528 263 l 528 1125 l 676 1125 l 676 379 q 619 95 676 203 q 378 -12 561 -12 m 572 1047 l 572 1125 l 586 1125 q 661 1228 661 1125 l 776 1228 q 728 1092 776 1138 q 589 1047 679 1047 l 572 1047 m 343 1192 l 189 1467 l 338 1467 l 417 1192 l 343 1192 z "},"Ử":{"ha":754,"x_min":78,"x_max":776,"o":"m 378 -12 q 135 95 193 -12 q 78 379 78 203 l 78 1125 l 228 1125 l 228 372 q 253 187 228 263 q 378 111 279 111 q 502 187 476 111 q 528 372 528 263 l 528 1125 l 676 1125 l 676 379 q 619 95 676 203 q 378 -12 561 -12 m 572 1047 l 572 1125 l 586 1125 q 661 1228 661 1125 l 776 1228 q 728 1092 776 1138 q 589 1047 679 1047 l 572 1047 m 379 1206 l 332 1261 q 397 1297 372 1279 q 422 1342 422 1314 q 397 1383 422 1371 q 338 1396 372 1396 q 267 1386 300 1396 l 267 1461 q 379 1475 321 1475 q 489 1446 444 1475 q 533 1354 533 1417 q 490 1260 533 1293 q 379 1206 446 1228 z "},"Ữ":{"ha":754,"x_min":78,"x_max":776,"o":"m 378 -12 q 135 95 193 -12 q 78 379 78 203 l 78 1125 l 228 1125 l 228 372 q 253 187 228 263 q 378 111 279 111 q 502 187 476 111 q 528 372 528 263 l 528 1125 l 676 1125 l 676 379 q 619 95 676 203 q 378 -12 561 -12 m 572 1047 l 572 1125 l 586 1125 q 661 1228 661 1125 l 776 1228 q 728 1092 776 1138 q 589 1047 679 1047 l 572 1047 m 483 1294 q 385 1328 425 1294 q 301 1363 346 1363 q 266 1349 278 1363 q 254 1306 254 1336 l 169 1306 q 193 1412 169 1368 q 281 1456 217 1456 q 373 1422 333 1456 q 457 1389 413 1389 q 492 1401 481 1389 q 503 1447 503 1414 l 586 1447 q 565 1340 586 1385 q 483 1294 544 1294 z "},"Ű":{"ha":754,"x_min":78,"x_max":676,"o":"m 378 -12 q 135 95 193 -12 q 78 379 78 203 l 78 1125 l 228 1125 l 228 372 q 253 187 228 263 q 378 111 279 111 q 502 187 476 111 q 528 372 528 263 l 528 1125 l 676 1125 l 676 379 q 619 95 676 203 q 378 -12 561 -12 m 433 1211 l 514 1449 l 664 1449 l 510 1211 l 433 1211 m 258 1211 l 313 1449 l 435 1449 l 333 1211 l 258 1211 z "},"Ȗ":{"ha":754,"x_min":78,"x_max":676,"o":"m 378 -12 q 135 95 193 -12 q 78 379 78 203 l 78 1125 l 228 1125 l 228 372 q 253 187 228 263 q 378 111 279 111 q 502 187 476 111 q 528 372 528 263 l 528 1125 l 676 1125 l 676 379 q 619 95 676 203 q 378 -12 561 -12 m 194 1240 q 231 1388 196 1328 q 378 1447 267 1447 q 525 1388 489 1447 q 561 1240 561 1328 l 474 1240 q 452 1335 474 1307 q 378 1363 431 1363 q 305 1334 326 1363 q 282 1240 283 1306 l 194 1240 z "},"Ū":{"ha":754,"x_min":78,"x_max":676,"o":"m 378 -12 q 135 95 193 -12 q 78 379 78 203 l 78 1125 l 228 1125 l 228 372 q 253 187 228 263 q 378 111 279 111 q 502 187 476 111 q 528 372 528 263 l 528 1125 l 676 1125 l 676 379 q 619 95 676 203 q 378 -12 561 -12 m 244 1274 l 244 1364 l 511 1364 l 511 1274 l 244 1274 z "},"Ų":{"ha":754,"x_min":78,"x_max":676,"o":"m 378 -12 q 135 95 193 -12 q 78 379 78 203 l 78 1125 l 228 1125 l 228 372 q 253 187 228 263 q 378 111 279 111 q 502 187 476 111 q 528 372 528 263 l 528 1125 l 676 1125 l 676 379 q 619 95 676 203 q 378 -12 561 -12 m 436 -321 q 342 -312 386 -321 q 270 -278 297 -304 q 243 -201 243 -253 q 293 -75 243 -133 q 397 0 343 -17 l 472 0 q 394 -83 433 -33 q 356 -179 356 -132 q 392 -234 356 -222 q 467 -246 428 -246 q 511 -243 486 -246 l 486 -317 q 436 -321 464 -321 z "},"Ů":{"ha":754,"x_min":78,"x_max":676,"o":"m 378 -12 q 135 95 193 -12 q 78 379 78 203 l 78 1125 l 228 1125 l 228 372 q 253 187 228 263 q 378 111 279 111 q 502 187 476 111 q 528 372 528 263 l 528 1125 l 676 1125 l 676 379 q 619 95 676 203 q 378 -12 561 -12 m 378 1150 q 265 1192 308 1150 q 222 1306 222 1235 q 265 1418 222 1376 q 378 1460 308 1460 q 490 1418 447 1460 q 533 1306 533 1376 q 490 1192 533 1235 q 378 1150 447 1150 m 378 1225 q 436 1247 414 1225 q 458 1306 458 1268 q 436 1365 458 1344 q 378 1386 414 1386 q 319 1365 340 1386 q 297 1306 297 1344 q 319 1247 297 1268 q 378 1225 340 1225 z "},"Ũ":{"ha":754,"x_min":78,"x_max":676,"o":"m 378 -12 q 135 95 193 -12 q 78 379 78 203 l 78 1125 l 228 1125 l 228 372 q 253 187 228 263 q 378 111 279 111 q 502 187 476 111 q 528 372 528 263 l 528 1125 l 676 1125 l 676 379 q 619 95 676 203 q 378 -12 561 -12 m 483 1294 q 385 1328 425 1294 q 301 1363 346 1363 q 266 1349 278 1363 q 254 1306 254 1336 l 169 1306 q 193 1412 169 1368 q 281 1456 217 1456 q 373 1422 333 1456 q 457 1389 413 1389 q 492 1401 481 1389 q 503 1447 503 1414 l 586 1447 q 565 1340 586 1385 q 483 1294 544 1294 z "},"V":{"ha":701,"x_min":32,"x_max":669,"o":"m 283 0 l 32 1125 l 179 1125 l 357 296 l 526 1125 l 669 1125 l 421 0 l 283 0 z "},"W":{"ha":1013,"x_min":50,"x_max":963,"o":"m 233 0 l 50 1125 l 181 1125 l 301 317 l 453 1121 l 564 1121 l 717 313 l 835 1125 l 963 1125 l 782 0 l 668 0 l 511 833 l 353 0 l 233 0 z "},"Ẃ":{"ha":1013,"x_min":50,"x_max":963,"o":"m 233 0 l 50 1125 l 181 1125 l 301 317 l 453 1121 l 564 1121 l 717 313 l 835 1125 l 963 1125 l 782 0 l 668 0 l 511 833 l 353 0 l 233 0 m 468 1192 l 550 1467 l 699 1467 l 543 1192 l 468 1192 z "},"Ŵ":{"ha":1013,"x_min":50,"x_max":963,"o":"m 233 0 l 50 1125 l 181 1125 l 301 317 l 453 1121 l 564 1121 l 717 313 l 835 1125 l 963 1125 l 782 0 l 668 0 l 511 833 l 353 0 l 233 0 m 311 1204 l 431 1447 l 582 1447 l 703 1204 l 590 1204 l 506 1372 l 422 1204 l 311 1204 z "},"Ẅ":{"ha":1013,"x_min":50,"x_max":963,"o":"m 233 0 l 50 1125 l 181 1125 l 301 317 l 453 1121 l 564 1121 l 717 313 l 835 1125 l 963 1125 l 782 0 l 668 0 l 511 833 l 353 0 l 233 0 m 551 1293 l 551 1447 l 701 1447 l 701 1293 l 551 1293 m 313 1293 l 313 1447 l 463 1447 l 463 1293 l 313 1293 z "},"Ẁ":{"ha":1013,"x_min":50,"x_max":963,"o":"m 233 0 l 50 1125 l 181 1125 l 301 317 l 453 1121 l 564 1121 l 717 313 l 835 1125 l 963 1125 l 782 0 l 668 0 l 511 833 l 353 0 l 233 0 m 472 1192 l 318 1467 l 467 1467 l 546 1192 l 472 1192 z "},"X":{"ha":669,"x_min":18,"x_max":651,"o":"m 18 0 l 253 589 l 22 1125 l 168 1125 l 339 728 l 494 1125 l 640 1125 l 404 576 l 651 0 l 506 0 l 322 424 l 164 0 l 18 0 z "},"Y":{"ha":668,"x_min":17,"x_max":651,"o":"m 260 0 l 260 397 l 17 1125 l 163 1125 l 335 582 l 504 1125 l 651 1125 l 410 397 l 410 0 l 260 0 z "},"Ý":{"ha":668,"x_min":17,"x_max":651,"o":"m 260 0 l 260 397 l 17 1125 l 163 1125 l 335 582 l 504 1125 l 651 1125 l 410 397 l 410 0 l 260 0 m 296 1192 l 378 1467 l 526 1467 l 371 1192 l 296 1192 z "},"Ŷ":{"ha":668,"x_min":17,"x_max":651,"o":"m 260 0 l 260 397 l 17 1125 l 163 1125 l 335 582 l 504 1125 l 651 1125 l 410 397 l 410 0 l 260 0 m 139 1204 l 258 1447 l 410 1447 l 531 1204 l 418 1204 l 333 1372 l 250 1204 l 139 1204 z "},"Ÿ":{"ha":668,"x_min":17,"x_max":651,"o":"m 260 0 l 260 397 l 17 1125 l 163 1125 l 335 582 l 504 1125 l 651 1125 l 410 397 l 410 0 l 260 0 m 379 1293 l 379 1447 l 529 1447 l 529 1293 l 379 1293 m 140 1293 l 140 1447 l 290 1447 l 290 1293 l 140 1293 z "},"Ỵ":{"ha":668,"x_min":17,"x_max":651,"o":"m 260 0 l 260 397 l 17 1125 l 163 1125 l 335 582 l 504 1125 l 651 1125 l 410 397 l 410 0 l 260 0 m 260 -244 l 260 -87 l 410 -87 l 410 -244 l 260 -244 z "},"Ỳ":{"ha":668,"x_min":17,"x_max":651,"o":"m 260 0 l 260 397 l 17 1125 l 163 1125 l 335 582 l 504 1125 l 651 1125 l 410 397 l 410 0 l 260 0 m 300 1192 l 146 1467 l 294 1467 l 374 1192 l 300 1192 z "},"Ỷ":{"ha":668,"x_min":17,"x_max":651,"o":"m 260 0 l 260 397 l 17 1125 l 163 1125 l 335 582 l 504 1125 l 651 1125 l 410 397 l 410 0 l 260 0 m 336 1206 l 289 1261 q 354 1297 329 1279 q 379 1342 379 1314 q 354 1383 379 1371 q 294 1396 329 1396 q 224 1386 257 1396 l 224 1461 q 336 1475 278 1475 q 446 1446 401 1475 q 490 1354 490 1417 q 447 1260 490 1293 q 336 1206 403 1228 z "},"Ȳ":{"ha":668,"x_min":17,"x_max":651,"o":"m 260 0 l 260 397 l 17 1125 l 163 1125 l 335 582 l 504 1125 l 651 1125 l 410 397 l 410 0 l 260 0 m 201 1274 l 201 1364 l 468 1364 l 468 1274 l 201 1274 z "},"Ỹ":{"ha":668,"x_min":17,"x_max":651,"o":"m 260 0 l 260 397 l 17 1125 l 163 1125 l 335 582 l 504 1125 l 651 1125 l 410 397 l 410 0 l 260 0 m 440 1294 q 342 1328 382 1294 q 258 1363 303 1363 q 223 1349 235 1363 q 211 1306 211 1336 l 126 1306 q 150 1412 126 1368 q 238 1456 174 1456 q 330 1422 290 1456 q 414 1389 369 1389 q 449 1401 438 1389 q 460 1447 460 1414 l 543 1447 q 522 1340 543 1385 q 440 1294 501 1294 z "},"Z":{"ha":579,"x_min":53,"x_max":550,"o":"m 53 0 l 53 113 l 383 1013 l 74 1013 l 74 1125 l 550 1125 l 550 1057 l 201 113 l 550 113 l 550 0 l 53 0 z "},"Ź":{"ha":579,"x_min":53,"x_max":550,"o":"m 53 0 l 53 113 l 383 1013 l 74 1013 l 74 1125 l 550 1125 l 550 1057 l 201 113 l 550 113 l 550 0 l 53 0 m 251 1192 l 333 1467 l 482 1467 l 326 1192 l 251 1192 z "},"Ž":{"ha":579,"x_min":53,"x_max":550,"o":"m 53 0 l 53 113 l 383 1013 l 74 1013 l 74 1125 l 550 1125 l 550 1057 l 201 113 l 550 113 l 550 0 l 53 0 m 217 1207 l 96 1447 l 210 1447 l 290 1285 l 371 1447 l 485 1447 l 363 1207 l 217 1207 z "},"Ż":{"ha":579,"x_min":53,"x_max":550,"o":"m 53 0 l 53 113 l 383 1013 l 74 1013 l 74 1125 l 550 1125 l 550 1057 l 201 113 l 550 113 l 550 0 l 53 0 m 215 1254 l 215 1419 l 365 1419 l 365 1254 l 215 1254 z "},"a":{"ha":592,"x_min":58,"x_max":538,"o":"m 219 -11 q 103 47 149 -11 q 58 175 58 104 q 101 334 58 275 q 217 430 144 393 q 375 501 289 467 l 375 558 q 361 667 375 631 q 294 703 347 703 q 229 672 249 703 q 210 589 210 642 l 210 549 l 63 554 q 63 569 63 561 q 64 583 64 578 q 133 760 71 707 q 304 814 194 814 q 473 749 422 814 q 524 560 524 683 l 524 193 q 528 88 524 136 q 538 0 532 39 l 401 0 q 391 56 397 22 q 382 118 385 90 q 328 30 367 71 q 219 -11 289 -11 m 278 117 q 338 142 310 117 q 375 183 365 168 l 375 411 q 295 363 333 388 q 232 304 257 338 q 207 221 207 271 q 225 144 207 172 q 278 117 243 117 z "},"á":{"ha":592,"x_min":58,"x_max":538,"o":"m 219 -11 q 103 47 149 -11 q 58 175 58 104 q 101 334 58 275 q 217 430 144 393 q 375 501 289 467 l 375 558 q 361 667 375 631 q 294 703 347 703 q 229 672 249 703 q 210 589 210 642 l 210 549 l 63 554 q 63 569 63 561 q 64 583 64 578 q 133 760 71 707 q 304 814 194 814 q 473 749 422 814 q 524 560 524 683 l 524 193 q 528 88 524 136 q 538 0 532 39 l 401 0 q 391 56 397 22 q 382 118 385 90 q 328 30 367 71 q 219 -11 289 -11 m 278 117 q 338 142 310 117 q 375 183 365 168 l 375 411 q 295 363 333 388 q 232 304 257 338 q 207 221 207 271 q 225 144 207 172 q 278 117 243 117 m 265 869 l 347 1144 l 496 1144 l 340 869 l 265 869 z "},"ă":{"ha":592,"x_min":58,"x_max":538,"o":"m 219 -11 q 103 47 149 -11 q 58 175 58 104 q 101 334 58 275 q 217 430 144 393 q 375 501 289 467 l 375 558 q 361 667 375 631 q 294 703 347 703 q 229 672 249 703 q 210 589 210 642 l 210 549 l 63 554 q 63 569 63 561 q 64 583 64 578 q 133 760 71 707 q 304 814 194 814 q 473 749 422 814 q 524 560 524 683 l 524 193 q 528 88 524 136 q 538 0 532 39 l 401 0 q 391 56 397 22 q 382 118 385 90 q 328 30 367 71 q 219 -11 289 -11 m 278 117 q 338 142 310 117 q 375 183 365 168 l 375 411 q 295 363 333 388 q 232 304 257 338 q 207 221 207 271 q 225 144 207 172 q 278 117 243 117 m 304 890 q 163 944 204 890 q 122 1079 122 999 l 208 1079 q 231 1002 210 1029 q 304 975 253 975 q 378 1003 356 975 q 400 1079 400 1031 l 488 1079 q 447 944 488 999 q 304 890 406 890 z "},"ắ":{"ha":592,"x_min":58,"x_max":538,"o":"m 219 -11 q 103 47 149 -11 q 58 175 58 104 q 101 334 58 275 q 217 430 144 393 q 375 501 289 467 l 375 558 q 361 667 375 631 q 294 703 347 703 q 229 672 249 703 q 210 589 210 642 l 210 549 l 63 554 q 63 569 63 561 q 64 583 64 578 q 133 760 71 707 q 304 814 194 814 q 473 749 422 814 q 524 560 524 683 l 524 193 q 528 88 524 136 q 538 0 532 39 l 401 0 q 391 56 397 22 q 382 118 385 90 q 328 30 367 71 q 219 -11 289 -11 m 278 117 q 338 142 310 117 q 375 183 365 168 l 375 411 q 295 363 333 388 q 232 304 257 338 q 207 221 207 271 q 225 144 207 172 q 278 117 243 117 m 233 1121 l 322 1285 l 471 1285 l 322 1121 l 233 1121 m 304 864 q 163 918 204 864 q 122 1053 122 972 l 208 1053 q 231 976 210 1003 q 304 949 253 949 q 378 976 356 949 q 400 1053 400 1004 l 488 1053 q 447 918 488 972 q 304 864 406 864 z "},"ặ":{"ha":592,"x_min":58,"x_max":538,"o":"m 219 -11 q 103 47 149 -11 q 58 175 58 104 q 101 334 58 275 q 217 430 144 393 q 375 501 289 467 l 375 558 q 361 667 375 631 q 294 703 347 703 q 229 672 249 703 q 210 589 210 642 l 210 549 l 63 554 q 63 569 63 561 q 64 583 64 578 q 133 760 71 707 q 304 814 194 814 q 473 749 422 814 q 524 560 524 683 l 524 193 q 528 88 524 136 q 538 0 532 39 l 401 0 q 391 56 397 22 q 382 118 385 90 q 328 30 367 71 q 219 -11 289 -11 m 278 117 q 338 142 310 117 q 375 183 365 168 l 375 411 q 295 363 333 388 q 232 304 257 338 q 207 221 207 271 q 225 144 207 172 q 278 117 243 117 m 221 -244 l 221 -87 l 371 -87 l 371 -244 l 221 -244 m 304 890 q 163 944 204 890 q 122 1079 122 999 l 208 1079 q 231 1002 210 1029 q 304 975 253 975 q 378 1003 356 975 q 400 1079 400 1031 l 488 1079 q 447 944 488 999 q 304 890 406 890 z "},"ằ":{"ha":592,"x_min":58,"x_max":538,"o":"m 219 -11 q 103 47 149 -11 q 58 175 58 104 q 101 334 58 275 q 217 430 144 393 q 375 501 289 467 l 375 558 q 361 667 375 631 q 294 703 347 703 q 229 672 249 703 q 210 589 210 642 l 210 549 l 63 554 q 63 569 63 561 q 64 583 64 578 q 133 760 71 707 q 304 814 194 814 q 473 749 422 814 q 524 560 524 683 l 524 193 q 528 88 524 136 q 538 0 532 39 l 401 0 q 391 56 397 22 q 382 118 385 90 q 328 30 367 71 q 219 -11 289 -11 m 278 117 q 338 142 310 117 q 375 183 365 168 l 375 411 q 295 363 333 388 q 232 304 257 338 q 207 221 207 271 q 225 144 207 172 q 278 117 243 117 m 281 1121 l 132 1285 l 281 1285 l 369 1121 l 281 1121 m 304 864 q 163 918 204 864 q 122 1053 122 972 l 208 1053 q 231 976 210 1003 q 304 949 253 949 q 378 976 356 949 q 400 1053 400 1004 l 488 1053 q 447 918 488 972 q 304 864 406 864 z "},"ẳ":{"ha":592,"x_min":58,"x_max":538,"o":"m 219 -11 q 103 47 149 -11 q 58 175 58 104 q 101 334 58 275 q 217 430 144 393 q 375 501 289 467 l 375 558 q 361 667 375 631 q 294 703 347 703 q 229 672 249 703 q 210 589 210 642 l 210 549 l 63 554 q 63 569 63 561 q 64 583 64 578 q 133 760 71 707 q 304 814 194 814 q 473 749 422 814 q 524 560 524 683 l 524 193 q 528 88 524 136 q 538 0 532 39 l 401 0 q 391 56 397 22 q 382 118 385 90 q 328 30 367 71 q 219 -11 289 -11 m 278 117 q 338 142 310 117 q 375 183 365 168 l 375 411 q 295 363 333 388 q 232 304 257 338 q 207 221 207 271 q 225 144 207 172 q 278 117 243 117 m 310 1081 l 263 1136 q 311 1172 293 1154 q 329 1217 329 1189 q 309 1258 329 1246 q 261 1271 289 1271 q 230 1269 247 1271 q 197 1261 213 1267 l 197 1336 q 299 1350 244 1350 q 399 1321 358 1350 q 440 1229 440 1292 q 403 1138 440 1174 q 310 1081 367 1103 m 304 890 q 163 944 204 890 q 122 1079 122 999 l 208 1079 q 231 1002 210 1029 q 304 975 253 975 q 378 1003 356 975 q 400 1079 400 1031 l 488 1079 q 447 944 488 999 q 304 890 406 890 z "},"ẵ":{"ha":592,"x_min":58,"x_max":538,"o":"m 219 -11 q 103 47 149 -11 q 58 175 58 104 q 101 334 58 275 q 217 430 144 393 q 375 501 289 467 l 375 558 q 361 667 375 631 q 294 703 347 703 q 229 672 249 703 q 210 589 210 642 l 210 549 l 63 554 q 63 569 63 561 q 64 583 64 578 q 133 760 71 707 q 304 814 194 814 q 473 749 422 814 q 524 560 524 683 l 524 193 q 528 88 524 136 q 538 0 532 39 l 401 0 q 391 56 397 22 q 382 118 385 90 q 328 30 367 71 q 219 -11 289 -11 m 278 117 q 338 142 310 117 q 375 183 365 168 l 375 411 q 295 363 333 388 q 232 304 257 338 q 207 221 207 271 q 225 144 207 172 q 278 117 243 117 z "},"â":{"ha":592,"x_min":58,"x_max":538,"o":"m 219 -11 q 103 47 149 -11 q 58 175 58 104 q 101 334 58 275 q 217 430 144 393 q 375 501 289 467 l 375 558 q 361 667 375 631 q 294 703 347 703 q 229 672 249 703 q 210 589 210 642 l 210 549 l 63 554 q 63 569 63 561 q 64 583 64 578 q 133 760 71 707 q 304 814 194 814 q 473 749 422 814 q 524 560 524 683 l 524 193 q 528 88 524 136 q 538 0 532 39 l 401 0 q 391 56 397 22 q 382 118 385 90 q 328 30 367 71 q 219 -11 289 -11 m 278 117 q 338 142 310 117 q 375 183 365 168 l 375 411 q 295 363 333 388 q 232 304 257 338 q 207 221 207 271 q 225 144 207 172 q 278 117 243 117 m 108 882 l 228 1125 l 379 1125 l 500 882 l 388 882 l 303 1050 l 219 882 l 108 882 z "},"ấ":{"ha":592,"x_min":58,"x_max":683,"o":"m 219 -11 q 103 47 149 -11 q 58 175 58 104 q 101 334 58 275 q 217 430 144 393 q 375 501 289 467 l 375 558 q 361 667 375 631 q 294 703 347 703 q 229 672 249 703 q 210 589 210 642 l 210 549 l 63 554 q 63 569 63 561 q 64 583 64 578 q 133 760 71 707 q 304 814 194 814 q 473 749 422 814 q 524 560 524 683 l 524 193 q 528 88 524 136 q 538 0 532 39 l 401 0 q 391 56 397 22 q 382 118 385 90 q 328 30 367 71 q 219 -11 289 -11 m 278 117 q 338 142 310 117 q 375 183 365 168 l 375 411 q 295 363 333 388 q 232 304 257 338 q 207 221 207 271 q 225 144 207 172 q 278 117 243 117 m 108 882 l 228 1097 l 379 1097 l 500 882 l 388 882 l 303 1022 l 219 882 l 108 882 m 481 1026 l 554 1186 l 683 1186 l 572 1026 l 481 1026 z "},"ậ":{"ha":592,"x_min":58,"x_max":538,"o":"m 219 -11 q 103 47 149 -11 q 58 175 58 104 q 101 334 58 275 q 217 430 144 393 q 375 501 289 467 l 375 558 q 361 667 375 631 q 294 703 347 703 q 229 672 249 703 q 210 589 210 642 l 210 549 l 63 554 q 63 569 63 561 q 64 583 64 578 q 133 760 71 707 q 304 814 194 814 q 473 749 422 814 q 524 560 524 683 l 524 193 q 528 88 524 136 q 538 0 532 39 l 401 0 q 391 56 397 22 q 382 118 385 90 q 328 30 367 71 q 219 -11 289 -11 m 278 117 q 338 142 310 117 q 375 183 365 168 l 375 411 q 295 363 333 388 q 232 304 257 338 q 207 221 207 271 q 225 144 207 172 q 278 117 243 117 m 221 -244 l 221 -87 l 371 -87 l 371 -244 l 221 -244 m 108 882 l 228 1097 l 379 1097 l 500 882 l 388 882 l 303 1022 l 219 882 l 108 882 z "},"ầ":{"ha":592,"x_min":58,"x_max":607,"o":"m 219 -11 q 103 47 149 -11 q 58 175 58 104 q 101 334 58 275 q 217 430 144 393 q 375 501 289 467 l 375 558 q 361 667 375 631 q 294 703 347 703 q 229 672 249 703 q 210 589 210 642 l 210 549 l 63 554 q 63 569 63 561 q 64 583 64 578 q 133 760 71 707 q 304 814 194 814 q 473 749 422 814 q 524 560 524 683 l 524 193 q 528 88 524 136 q 538 0 532 39 l 401 0 q 391 56 397 22 q 382 118 385 90 q 328 30 367 71 q 219 -11 289 -11 m 278 117 q 338 142 310 117 q 375 183 365 168 l 375 411 q 295 363 333 388 q 232 304 257 338 q 207 221 207 271 q 225 144 207 172 q 278 117 243 117 m 108 882 l 228 1097 l 379 1097 l 500 882 l 388 882 l 303 1022 l 219 882 l 108 882 m 515 1026 l 404 1186 l 533 1186 l 607 1026 l 515 1026 z "},"ẩ":{"ha":592,"x_min":58,"x_max":644,"o":"m 219 -11 q 103 47 149 -11 q 58 175 58 104 q 101 334 58 275 q 217 430 144 393 q 375 501 289 467 l 375 558 q 361 667 375 631 q 294 703 347 703 q 229 672 249 703 q 210 589 210 642 l 210 549 l 63 554 q 63 569 63 561 q 64 583 64 578 q 133 760 71 707 q 304 814 194 814 q 473 749 422 814 q 524 560 524 683 l 524 193 q 528 88 524 136 q 538 0 532 39 l 401 0 q 391 56 397 22 q 382 118 385 90 q 328 30 367 71 q 219 -11 289 -11 m 278 117 q 338 142 310 117 q 375 183 365 168 l 375 411 q 295 363 333 388 q 232 304 257 338 q 207 221 207 271 q 225 144 207 172 q 278 117 243 117 m 514 996 l 467 1051 q 515 1088 497 1069 q 533 1132 533 1106 q 513 1174 533 1161 q 465 1186 493 1186 q 434 1184 451 1186 q 401 1176 417 1182 l 401 1251 q 503 1265 449 1265 q 603 1236 563 1265 q 644 1144 644 1207 q 608 1051 644 1083 q 514 996 571 1019 m 108 882 l 228 1097 l 379 1097 l 500 882 l 388 882 l 303 1022 l 219 882 l 108 882 z "},"ẫ":{"ha":592,"x_min":58,"x_max":538,"o":"m 219 -11 q 103 47 149 -11 q 58 175 58 104 q 101 334 58 275 q 217 430 144 393 q 375 501 289 467 l 375 558 q 361 667 375 631 q 294 703 347 703 q 229 672 249 703 q 210 589 210 642 l 210 549 l 63 554 q 63 569 63 561 q 64 583 64 578 q 133 760 71 707 q 304 814 194 814 q 473 749 422 814 q 524 560 524 683 l 524 193 q 528 88 524 136 q 538 0 532 39 l 401 0 q 391 56 397 22 q 382 118 385 90 q 328 30 367 71 q 219 -11 289 -11 m 278 117 q 338 142 310 117 q 375 183 365 168 l 375 411 q 295 363 333 388 q 232 304 257 338 q 207 221 207 271 q 225 144 207 172 q 278 117 243 117 z "},"ȁ":{"ha":592,"x_min":31,"x_max":538,"o":"m 219 -11 q 103 47 149 -11 q 58 175 58 104 q 101 334 58 275 q 217 430 144 393 q 375 501 289 467 l 375 558 q 361 667 375 631 q 294 703 347 703 q 229 672 249 703 q 210 589 210 642 l 210 549 l 63 554 q 63 569 63 561 q 64 583 64 578 q 133 760 71 707 q 304 814 194 814 q 473 749 422 814 q 524 560 524 683 l 524 193 q 528 88 524 136 q 538 0 532 39 l 401 0 q 391 56 397 22 q 382 118 385 90 q 328 30 367 71 q 219 -11 289 -11 m 278 117 q 338 142 310 117 q 375 183 365 168 l 375 411 q 295 363 333 388 q 232 304 257 338 q 207 221 207 271 q 225 144 207 172 q 278 117 243 117 m 186 889 l 31 1125 l 181 1125 l 261 889 l 186 889 m 364 889 l 261 1125 l 383 1125 l 439 889 l 364 889 z "},"ä":{"ha":592,"x_min":58,"x_max":538,"o":"m 219 -11 q 103 47 149 -11 q 58 175 58 104 q 101 334 58 275 q 217 430 144 393 q 375 501 289 467 l 375 558 q 361 667 375 631 q 294 703 347 703 q 229 672 249 703 q 210 589 210 642 l 210 549 l 63 554 q 63 569 63 561 q 64 583 64 578 q 133 760 71 707 q 304 814 194 814 q 473 749 422 814 q 524 560 524 683 l 524 193 q 528 88 524 136 q 538 0 532 39 l 401 0 q 391 56 397 22 q 382 118 385 90 q 328 30 367 71 q 219 -11 289 -11 m 278 117 q 338 142 310 117 q 375 183 365 168 l 375 411 q 295 363 333 388 q 232 304 257 338 q 207 221 207 271 q 225 144 207 172 q 278 117 243 117 m 349 971 l 349 1125 l 499 1125 l 499 971 l 349 971 m 110 971 l 110 1125 l 260 1125 l 260 971 l 110 971 z "},"ạ":{"ha":592,"x_min":58,"x_max":538,"o":"m 219 -11 q 103 47 149 -11 q 58 175 58 104 q 101 334 58 275 q 217 430 144 393 q 375 501 289 467 l 375 558 q 361 667 375 631 q 294 703 347 703 q 229 672 249 703 q 210 589 210 642 l 210 549 l 63 554 q 63 569 63 561 q 64 583 64 578 q 133 760 71 707 q 304 814 194 814 q 473 749 422 814 q 524 560 524 683 l 524 193 q 528 88 524 136 q 538 0 532 39 l 401 0 q 391 56 397 22 q 382 118 385 90 q 328 30 367 71 q 219 -11 289 -11 m 278 117 q 338 142 310 117 q 375 183 365 168 l 375 411 q 295 363 333 388 q 232 304 257 338 q 207 221 207 271 q 225 144 207 172 q 278 117 243 117 m 221 -244 l 221 -87 l 371 -87 l 371 -244 l 221 -244 z "},"à":{"ha":592,"x_min":58,"x_max":538,"o":"m 219 -11 q 103 47 149 -11 q 58 175 58 104 q 101 334 58 275 q 217 430 144 393 q 375 501 289 467 l 375 558 q 361 667 375 631 q 294 703 347 703 q 229 672 249 703 q 210 589 210 642 l 210 549 l 63 554 q 63 569 63 561 q 64 583 64 578 q 133 760 71 707 q 304 814 194 814 q 473 749 422 814 q 524 560 524 683 l 524 193 q 528 88 524 136 q 538 0 532 39 l 401 0 q 391 56 397 22 q 382 118 385 90 q 328 30 367 71 q 219 -11 289 -11 m 278 117 q 338 142 310 117 q 375 183 365 168 l 375 411 q 295 363 333 388 q 232 304 257 338 q 207 221 207 271 q 225 144 207 172 q 278 117 243 117 m 269 869 l 115 1144 l 264 1144 l 343 869 l 269 869 z "},"ả":{"ha":592,"x_min":58,"x_max":538,"o":"m 219 -11 q 103 47 149 -11 q 58 175 58 104 q 101 334 58 275 q 217 430 144 393 q 375 501 289 467 l 375 558 q 361 667 375 631 q 294 703 347 703 q 229 672 249 703 q 210 589 210 642 l 210 549 l 63 554 q 63 569 63 561 q 64 583 64 578 q 133 760 71 707 q 304 814 194 814 q 473 749 422 814 q 524 560 524 683 l 524 193 q 528 88 524 136 q 538 0 532 39 l 401 0 q 391 56 397 22 q 382 118 385 90 q 328 30 367 71 q 219 -11 289 -11 m 278 117 q 338 142 310 117 q 375 183 365 168 l 375 411 q 295 363 333 388 q 232 304 257 338 q 207 221 207 271 q 225 144 207 172 q 278 117 243 117 m 306 883 l 258 939 q 324 974 299 957 q 349 1019 349 992 q 324 1061 349 1049 q 264 1074 299 1074 q 193 1064 226 1074 l 193 1139 q 306 1153 247 1153 q 415 1124 371 1153 q 460 1032 460 1094 q 416 938 460 971 q 306 883 372 906 z "},"ȃ":{"ha":592,"x_min":58,"x_max":538,"o":"m 219 -11 q 103 47 149 -11 q 58 175 58 104 q 101 334 58 275 q 217 430 144 393 q 375 501 289 467 l 375 558 q 361 667 375 631 q 294 703 347 703 q 229 672 249 703 q 210 589 210 642 l 210 549 l 63 554 q 63 569 63 561 q 64 583 64 578 q 133 760 71 707 q 304 814 194 814 q 473 749 422 814 q 524 560 524 683 l 524 193 q 528 88 524 136 q 538 0 532 39 l 401 0 q 391 56 397 22 q 382 118 385 90 q 328 30 367 71 q 219 -11 289 -11 m 278 117 q 338 142 310 117 q 375 183 365 168 l 375 411 q 295 363 333 388 q 232 304 257 338 q 207 221 207 271 q 225 144 207 172 q 278 117 243 117 m 121 918 q 158 1065 122 1006 q 304 1125 193 1125 q 451 1065 415 1125 q 488 918 488 1006 l 400 918 q 378 1013 400 985 q 304 1040 357 1040 q 231 1012 253 1040 q 208 918 210 983 l 121 918 z "},"ā":{"ha":592,"x_min":58,"x_max":538,"o":"m 219 -11 q 103 47 149 -11 q 58 175 58 104 q 101 334 58 275 q 217 430 144 393 q 375 501 289 467 l 375 558 q 361 667 375 631 q 294 703 347 703 q 229 672 249 703 q 210 589 210 642 l 210 549 l 63 554 q 63 569 63 561 q 64 583 64 578 q 133 760 71 707 q 304 814 194 814 q 473 749 422 814 q 524 560 524 683 l 524 193 q 528 88 524 136 q 538 0 532 39 l 401 0 q 391 56 397 22 q 382 118 385 90 q 328 30 367 71 q 219 -11 289 -11 m 278 117 q 338 142 310 117 q 375 183 365 168 l 375 411 q 295 363 333 388 q 232 304 257 338 q 207 221 207 271 q 225 144 207 172 q 278 117 243 117 m 171 951 l 171 1042 l 438 1042 l 438 951 l 171 951 z "},"ą":{"ha":592,"x_min":58,"x_max":554,"o":"m 219 -11 q 103 47 149 -11 q 58 175 58 104 q 101 334 58 275 q 217 430 144 393 q 375 501 289 467 l 375 558 q 361 667 375 631 q 294 703 347 703 q 229 672 249 703 q 210 589 210 642 l 210 549 l 63 554 q 63 569 63 561 q 64 583 64 578 q 133 760 71 707 q 304 814 194 814 q 473 749 422 814 q 524 560 524 683 l 524 193 q 528 88 524 136 q 538 0 532 39 l 401 0 q 391 56 397 22 q 382 118 385 90 q 328 30 367 71 q 219 -11 289 -11 m 278 117 q 338 142 310 117 q 375 183 365 168 l 375 411 q 295 363 333 388 q 232 304 257 338 q 207 221 207 271 q 225 144 207 172 q 278 117 243 117 m 479 -321 q 385 -312 429 -321 q 313 -278 340 -304 q 286 -201 286 -253 q 336 -75 286 -133 q 440 0 386 -17 l 515 0 q 438 -83 476 -33 q 399 -179 399 -132 q 435 -234 399 -222 q 510 -246 471 -246 q 554 -243 529 -246 l 529 -317 q 479 -321 507 -321 z "},"å":{"ha":592,"x_min":58,"x_max":538,"o":"m 219 -11 q 103 47 149 -11 q 58 175 58 104 q 101 334 58 275 q 217 430 144 393 q 375 501 289 467 l 375 558 q 361 667 375 631 q 294 703 347 703 q 229 672 249 703 q 210 589 210 642 l 210 549 l 63 554 q 63 569 63 561 q 64 583 64 578 q 133 760 71 707 q 304 814 194 814 q 473 749 422 814 q 524 560 524 683 l 524 193 q 528 88 524 136 q 538 0 532 39 l 401 0 q 391 56 397 22 q 382 118 385 90 q 328 30 367 71 q 219 -11 289 -11 m 278 117 q 338 142 310 117 q 375 183 365 168 l 375 411 q 295 363 333 388 q 232 304 257 338 q 207 221 207 271 q 225 144 207 172 q 278 117 243 117 m 304 828 q 192 870 235 828 q 149 983 149 913 q 192 1096 149 1054 q 304 1138 235 1138 q 417 1096 374 1138 q 460 983 460 1054 q 417 870 460 913 q 304 828 374 828 m 304 903 q 363 924 340 903 q 385 983 385 946 q 363 1043 385 1022 q 304 1064 340 1064 q 245 1043 267 1064 q 224 983 224 1022 q 245 924 224 946 q 304 903 267 903 z "},"ǻ":{"ha":592,"x_min":58,"x_max":538,"o":"m 219 -11 q 103 47 149 -11 q 58 175 58 104 q 101 334 58 275 q 217 430 144 393 q 375 501 289 467 l 375 558 q 361 667 375 631 q 294 703 347 703 q 229 672 249 703 q 210 589 210 642 l 210 549 l 63 554 q 63 569 63 561 q 64 583 64 578 q 133 760 71 707 q 304 814 194 814 q 473 749 422 814 q 524 560 524 683 l 524 193 q 528 88 524 136 q 538 0 532 39 l 401 0 q 391 56 397 22 q 382 118 385 90 q 328 30 367 71 q 219 -11 289 -11 m 278 117 q 338 142 310 117 q 375 183 365 168 l 375 411 q 295 363 333 388 q 232 304 257 338 q 207 221 207 271 q 225 144 207 172 q 278 117 243 117 m 304 828 q 192 870 235 828 q 149 983 149 913 q 192 1096 149 1054 q 304 1138 235 1138 q 417 1096 374 1138 q 460 983 460 1054 q 417 870 460 913 q 304 828 374 828 m 304 903 q 363 924 340 903 q 385 983 385 946 q 363 1043 385 1022 q 304 1064 340 1064 q 245 1043 267 1064 q 224 983 224 1022 q 245 924 224 946 q 304 903 267 903 m 265 1204 l 347 1479 l 496 1479 l 340 1204 l 265 1204 z "},"ã":{"ha":592,"x_min":58,"x_max":538,"o":"m 219 -11 q 103 47 149 -11 q 58 175 58 104 q 101 334 58 275 q 217 430 144 393 q 375 501 289 467 l 375 558 q 361 667 375 631 q 294 703 347 703 q 229 672 249 703 q 210 589 210 642 l 210 549 l 63 554 q 63 569 63 561 q 64 583 64 578 q 133 760 71 707 q 304 814 194 814 q 473 749 422 814 q 524 560 524 683 l 524 193 q 528 88 524 136 q 538 0 532 39 l 401 0 q 391 56 397 22 q 382 118 385 90 q 328 30 367 71 q 219 -11 289 -11 m 278 117 q 338 142 310 117 q 375 183 365 168 l 375 411 q 295 363 333 388 q 232 304 257 338 q 207 221 207 271 q 225 144 207 172 q 278 117 243 117 m 410 972 q 312 1006 351 972 q 228 1040 272 1040 q 192 1027 204 1040 q 181 983 181 1014 l 96 983 q 119 1090 96 1046 q 207 1133 143 1133 q 299 1100 260 1133 q 383 1067 339 1067 q 418 1079 407 1067 q 429 1125 429 1092 l 513 1125 q 492 1017 513 1063 q 410 972 471 972 z "},"æ":{"ha":907,"x_min":60,"x_max":846,"o":"m 221 -11 q 105 49 150 -6 q 60 175 60 104 q 118 341 60 285 q 274 425 176 397 l 382 454 l 382 558 q 366 661 382 622 q 297 700 350 700 q 229 663 249 700 q 210 568 210 626 l 63 568 q 125 747 64 681 q 297 814 186 814 q 411 774 369 814 q 464 675 453 733 l 443 675 q 508 774 453 733 q 643 814 563 814 q 790 760 742 814 q 839 615 839 706 q 772 468 839 506 q 629 413 706 431 l 531 392 l 531 354 q 533 243 531 300 q 554 147 536 186 q 618 107 572 107 q 682 147 667 107 q 697 244 697 186 l 697 279 l 846 279 l 846 246 q 791 58 846 126 q 617 -11 736 -11 q 496 33 544 -11 q 438 151 447 78 q 354 31 407 78 q 221 -11 301 -17 m 281 104 q 351 151 319 104 q 382 293 382 199 l 382 368 q 349 358 368 365 q 318 347 331 351 q 238 293 267 325 q 208 207 208 261 q 230 131 208 158 q 281 104 251 104 m 531 472 l 607 490 q 679 528 656 506 q 703 606 703 551 q 685 667 703 642 q 621 693 667 693 q 550 654 569 693 q 531 551 531 615 l 531 472 z "},"ǽ":{"ha":907,"x_min":60,"x_max":846,"o":"m 221 -11 q 105 49 150 -6 q 60 175 60 104 q 118 341 60 285 q 274 425 176 397 l 382 454 l 382 558 q 366 661 382 622 q 297 700 350 700 q 229 663 249 700 q 210 568 210 626 l 63 568 q 125 747 64 681 q 297 814 186 814 q 411 774 369 814 q 464 675 453 733 l 443 675 q 508 774 453 733 q 643 814 563 814 q 790 760 742 814 q 839 615 839 706 q 772 468 839 506 q 629 413 706 431 l 531 392 l 531 354 q 533 243 531 300 q 554 147 536 186 q 618 107 572 107 q 682 147 667 107 q 697 244 697 186 l 697 279 l 846 279 l 846 246 q 791 58 846 126 q 617 -11 736 -11 q 496 33 544 -11 q 438 151 447 78 q 354 31 407 78 q 221 -11 301 -17 m 281 104 q 351 151 319 104 q 382 293 382 199 l 382 368 q 349 358 368 365 q 318 347 331 351 q 238 293 267 325 q 208 207 208 261 q 230 131 208 158 q 281 104 251 104 m 531 472 l 607 490 q 679 528 656 506 q 703 606 703 551 q 685 667 703 642 q 621 693 667 693 q 550 654 569 693 q 531 551 531 615 l 531 472 m 415 869 l 497 1144 l 646 1144 l 490 869 l 415 869 z "},"b":{"ha":621,"x_min":78,"x_max":561,"o":"m 363 -11 q 285 10 319 -11 q 226 58 251 31 l 226 0 l 78 0 l 78 1125 l 226 1125 l 226 739 q 290 792 253 769 q 378 814 326 814 q 500 758 461 814 q 550 632 539 703 q 561 513 561 561 l 561 318 q 521 90 561 190 q 363 -11 481 -11 m 332 106 q 401 167 389 106 q 413 318 413 229 l 413 513 q 398 642 413 588 q 326 697 383 697 q 272 685 297 697 q 226 657 246 672 l 226 142 q 273 116 246 126 q 332 106 300 106 z "},"ḃ":{"ha":621,"x_min":78,"x_max":561,"o":"m 363 -11 q 285 10 319 -11 q 226 58 251 31 l 226 0 l 78 0 l 78 1125 l 226 1125 l 226 739 q 290 792 253 769 q 378 814 326 814 q 500 758 461 814 q 550 632 539 703 q 561 513 561 561 l 561 318 q 521 90 561 190 q 363 -11 481 -11 m 332 106 q 401 167 389 106 q 413 318 413 229 l 413 513 q 398 642 413 588 q 326 697 383 697 q 272 685 297 697 q 226 657 246 672 l 226 142 q 273 116 246 126 q 332 106 300 106 m 78 1254 l 78 1419 l 228 1419 l 228 1254 l 78 1254 z "},"c":{"ha":571,"x_min":60,"x_max":514,"o":"m 294 -11 q 103 76 147 -11 q 60 308 60 164 l 60 493 q 104 729 60 644 q 294 814 149 814 q 469 749 425 814 q 514 561 514 685 l 514 514 l 379 514 l 379 563 q 362 672 379 640 q 296 704 344 704 q 224 665 240 704 q 208 524 208 625 l 208 271 q 228 133 208 168 q 297 99 247 99 q 366 138 353 99 q 379 238 379 176 l 379 303 l 514 303 l 514 247 q 469 57 514 125 q 294 -11 424 -11 z "},"ć":{"ha":571,"x_min":60,"x_max":514,"o":"m 294 -11 q 103 76 147 -11 q 60 308 60 164 l 60 493 q 104 729 60 644 q 294 814 149 814 q 469 749 425 814 q 514 561 514 685 l 514 514 l 379 514 l 379 563 q 362 672 379 640 q 296 704 344 704 q 224 665 240 704 q 208 524 208 625 l 208 271 q 228 133 208 168 q 297 99 247 99 q 366 138 353 99 q 379 238 379 176 l 379 303 l 514 303 l 514 247 q 469 57 514 125 q 294 -11 424 -11 m 247 869 l 329 1144 l 478 1144 l 322 869 l 247 869 z "},"č":{"ha":571,"x_min":60,"x_max":514,"o":"m 294 -11 q 103 76 147 -11 q 60 308 60 164 l 60 493 q 104 729 60 644 q 294 814 149 814 q 469 749 425 814 q 514 561 514 685 l 514 514 l 379 514 l 379 563 q 362 672 379 640 q 296 704 344 704 q 224 665 240 704 q 208 524 208 625 l 208 271 q 228 133 208 168 q 297 99 247 99 q 366 138 353 99 q 379 238 379 176 l 379 303 l 514 303 l 514 247 q 469 57 514 125 q 294 -11 424 -11 m 213 885 l 92 1125 l 206 1125 l 286 963 l 367 1125 l 481 1125 l 358 885 l 213 885 z "},"ç":{"ha":571,"x_min":60,"x_max":514,"o":"m 294 -11 q 103 76 147 -11 q 60 308 60 164 l 60 493 q 104 729 60 644 q 294 814 149 814 q 469 749 425 814 q 514 561 514 685 l 514 514 l 379 514 l 379 563 q 362 672 379 640 q 296 704 344 704 q 224 665 240 704 q 208 524 208 625 l 208 271 q 228 133 208 168 q 297 99 247 99 q 366 138 353 99 q 379 238 379 176 l 379 303 l 514 303 l 514 247 q 469 57 514 125 q 294 -11 424 -11 m 304 -326 q 211 -312 264 -326 l 211 -237 q 282 -247 244 -247 q 342 -235 317 -247 q 367 -193 367 -222 q 336 -140 367 -157 q 249 -115 306 -124 l 249 0 l 324 0 l 324 -78 q 435 -110 392 -78 q 478 -197 478 -142 q 428 -295 478 -264 q 304 -326 378 -326 z "},"ĉ":{"ha":571,"x_min":60,"x_max":514,"o":"m 294 -11 q 103 76 147 -11 q 60 308 60 164 l 60 493 q 104 729 60 644 q 294 814 149 814 q 469 749 425 814 q 514 561 514 685 l 514 514 l 379 514 l 379 563 q 362 672 379 640 q 296 704 344 704 q 224 665 240 704 q 208 524 208 625 l 208 271 q 228 133 208 168 q 297 99 247 99 q 366 138 353 99 q 379 238 379 176 l 379 303 l 514 303 l 514 247 q 469 57 514 125 q 294 -11 424 -11 m 90 882 l 210 1125 l 361 1125 l 482 882 l 369 882 l 285 1050 l 201 882 l 90 882 z "},"ċ":{"ha":571,"x_min":60,"x_max":514,"o":"m 294 -11 q 103 76 147 -11 q 60 308 60 164 l 60 493 q 104 729 60 644 q 294 814 149 814 q 469 749 425 814 q 514 561 514 685 l 514 514 l 379 514 l 379 563 q 362 672 379 640 q 296 704 344 704 q 224 665 240 704 q 208 524 208 625 l 208 271 q 228 133 208 168 q 297 99 247 99 q 366 138 353 99 q 379 238 379 176 l 379 303 l 514 303 l 514 247 q 469 57 514 125 q 294 -11 424 -11 m 211 932 l 211 1097 l 361 1097 l 361 932 l 211 932 z "},"d":{"ha":614,"x_min":60,"x_max":539,"o":"m 261 -11 q 109 63 158 -12 q 60 315 60 138 l 60 471 q 97 711 60 608 q 257 814 133 814 q 331 796 297 814 q 390 751 364 778 l 390 1125 l 539 1125 l 539 0 l 390 0 l 390 51 q 332 6 364 24 q 261 -11 300 -11 m 299 106 q 343 113 319 106 q 390 136 367 121 l 390 663 q 347 687 371 676 q 296 697 322 697 q 226 647 244 697 q 208 529 208 597 l 208 303 q 224 162 208 218 q 299 106 239 106 z "},"ð":{"ha":654,"x_min":72,"x_max":614,"o":"m 315 -12 q 117 74 161 -12 q 72 313 72 161 l 72 406 q 113 666 72 558 q 290 774 153 774 q 372 758 339 774 q 425 724 406 742 q 408 828 419 778 q 376 910 396 879 l 211 858 l 211 933 l 336 969 q 256 1021 307 1003 q 107 1040 206 1039 l 114 1138 q 328 1105 249 1136 q 453 1007 407 1074 l 614 1054 l 614 979 l 490 946 q 556 751 533 849 q 578 524 578 653 l 578 329 q 552 149 578 225 q 469 30 526 72 q 315 -12 411 -12 m 319 106 q 411 160 393 106 q 429 304 429 214 q 430 400 429 347 q 431 507 431 453 q 428 606 431 561 q 395 633 418 614 q 328 651 372 651 q 243 588 265 651 q 221 394 221 525 q 221 256 221 322 q 240 148 221 190 q 319 106 260 106 z "},"ď":{"ha":731,"x_min":60,"x_max":758,"o":"m 261 -11 q 109 63 158 -12 q 60 315 60 138 l 60 471 q 97 711 60 608 q 257 814 133 814 q 331 796 297 814 q 390 751 364 778 l 390 1125 l 539 1125 l 539 0 l 390 0 l 390 51 q 332 6 364 24 q 261 -11 300 -11 m 299 106 q 343 113 319 106 q 390 136 367 121 l 390 663 q 347 687 371 676 q 296 697 322 697 q 226 647 244 697 q 208 529 208 597 l 208 303 q 224 162 208 218 q 299 106 239 106 m 628 783 l 604 847 q 663 891 642 860 q 685 965 685 922 l 606 965 l 606 1125 l 758 1125 l 758 968 q 726 851 758 894 q 628 783 694 807 z "},"đ":{"ha":631,"x_min":60,"x_max":621,"o":"m 261 -11 q 109 63 158 -12 q 60 315 60 138 l 60 471 q 97 711 60 608 q 257 814 133 814 q 331 796 297 814 q 390 751 364 778 l 390 943 l 235 943 l 235 1025 l 390 1025 l 390 1125 l 539 1125 l 539 1025 l 621 1025 l 621 943 l 539 943 l 539 0 l 390 0 l 390 51 q 332 6 364 24 q 261 -11 300 -11 m 299 106 q 343 113 319 106 q 390 136 367 121 l 390 663 q 347 687 371 676 q 296 697 322 697 q 226 647 244 697 q 208 529 208 597 l 208 303 q 224 162 208 218 q 299 106 239 106 z "},"ḋ":{"ha":614,"x_min":60,"x_max":540,"o":"m 261 -11 q 109 63 158 -12 q 60 315 60 138 l 60 471 q 97 711 60 608 q 257 814 133 814 q 331 796 297 814 q 390 751 364 778 l 390 1125 l 539 1125 l 539 0 l 390 0 l 390 51 q 332 6 364 24 q 261 -11 300 -11 m 299 106 q 343 113 319 106 q 390 136 367 121 l 390 663 q 347 687 371 676 q 296 697 322 697 q 226 647 244 697 q 208 529 208 597 l 208 303 q 224 162 208 218 q 299 106 239 106 m 390 1254 l 390 1419 l 540 1419 l 540 1254 l 390 1254 z "},"ǳ":{"ha":1096,"x_min":60,"x_max":1064,"o":"m 261 -11 q 109 63 158 -12 q 60 315 60 138 l 60 471 q 97 711 60 608 q 257 814 133 814 q 331 796 297 814 q 390 751 364 778 l 390 1125 l 539 1125 l 539 0 l 390 0 l 390 51 q 332 6 364 24 q 261 -11 300 -11 m 299 106 q 343 113 319 106 q 390 136 367 121 l 390 663 q 347 687 371 676 q 296 697 322 697 q 226 647 244 697 q 208 529 208 597 l 208 303 q 224 162 208 218 q 299 106 239 106 m 658 0 l 658 100 l 904 692 l 683 692 l 683 803 l 1064 803 l 1064 722 l 817 113 l 1058 113 l 1058 0 l 658 0 z "},"ǆ":{"ha":1096,"x_min":60,"x_max":1064,"o":"m 261 -11 q 109 63 158 -12 q 60 315 60 138 l 60 471 q 97 711 60 608 q 257 814 133 814 q 331 796 297 814 q 390 751 364 778 l 390 1125 l 539 1125 l 539 0 l 390 0 l 390 51 q 332 6 364 24 q 261 -11 300 -11 m 299 106 q 343 113 319 106 q 390 136 367 121 l 390 663 q 347 687 371 676 q 296 697 322 697 q 226 647 244 697 q 208 529 208 597 l 208 303 q 224 162 208 218 q 299 106 239 106 z "},"e":{"ha":585,"x_min":60,"x_max":525,"o":"m 297 -11 q 108 71 156 -11 q 60 310 60 153 l 60 493 q 109 733 60 653 q 297 814 158 814 q 487 721 449 814 q 525 464 525 628 l 525 399 l 208 399 l 208 292 q 218 155 208 211 q 296 99 228 99 q 363 134 347 99 q 379 231 379 169 l 379 279 l 524 279 l 524 249 q 472 58 524 128 q 297 -11 419 -11 m 208 479 l 379 479 l 379 551 q 365 665 379 625 q 296 704 351 704 q 225 665 242 704 q 208 522 208 626 l 208 479 z "},"é":{"ha":585,"x_min":60,"x_max":525,"o":"m 297 -11 q 108 71 156 -11 q 60 310 60 153 l 60 493 q 109 733 60 653 q 297 814 158 814 q 487 721 449 814 q 525 464 525 628 l 525 399 l 208 399 l 208 292 q 218 155 208 211 q 296 99 228 99 q 363 134 347 99 q 379 231 379 169 l 379 279 l 524 279 l 524 249 q 472 58 524 128 q 297 -11 419 -11 m 208 479 l 379 479 l 379 551 q 365 665 379 625 q 296 704 351 704 q 225 665 242 704 q 208 522 208 626 l 208 479 m 254 869 l 336 1144 l 485 1144 l 329 869 l 254 869 z "},"ĕ":{"ha":585,"x_min":60,"x_max":525,"o":"m 297 -11 q 108 71 156 -11 q 60 310 60 153 l 60 493 q 109 733 60 653 q 297 814 158 814 q 487 721 449 814 q 525 464 525 628 l 525 399 l 208 399 l 208 292 q 218 155 208 211 q 296 99 228 99 q 363 134 347 99 q 379 231 379 169 l 379 279 l 524 279 l 524 249 q 472 58 524 128 q 297 -11 419 -11 m 208 479 l 379 479 l 379 551 q 365 665 379 625 q 296 704 351 704 q 225 665 242 704 q 208 522 208 626 l 208 479 m 293 890 q 152 944 193 890 q 111 1079 111 999 l 197 1079 q 220 1002 199 1029 q 293 975 242 975 q 367 1003 344 975 q 389 1079 389 1031 l 476 1079 q 435 944 476 999 q 293 890 394 890 z "},"ě":{"ha":585,"x_min":60,"x_max":525,"o":"m 297 -11 q 108 71 156 -11 q 60 310 60 153 l 60 493 q 109 733 60 653 q 297 814 158 814 q 487 721 449 814 q 525 464 525 628 l 525 399 l 208 399 l 208 292 q 218 155 208 211 q 296 99 228 99 q 363 134 347 99 q 379 231 379 169 l 379 279 l 524 279 l 524 249 q 472 58 524 128 q 297 -11 419 -11 m 208 479 l 379 479 l 379 551 q 365 665 379 625 q 296 704 351 704 q 225 665 242 704 q 208 522 208 626 l 208 479 m 219 885 l 99 1125 l 213 1125 l 293 963 l 374 1125 l 488 1125 l 365 885 l 219 885 z "},"ê":{"ha":585,"x_min":60,"x_max":525,"o":"m 297 -11 q 108 71 156 -11 q 60 310 60 153 l 60 493 q 109 733 60 653 q 297 814 158 814 q 487 721 449 814 q 525 464 525 628 l 525 399 l 208 399 l 208 292 q 218 155 208 211 q 296 99 228 99 q 363 134 347 99 q 379 231 379 169 l 379 279 l 524 279 l 524 249 q 472 58 524 128 q 297 -11 419 -11 m 208 479 l 379 479 l 379 551 q 365 665 379 625 q 296 704 351 704 q 225 665 242 704 q 208 522 208 626 l 208 479 m 97 882 l 217 1125 l 368 1125 l 489 882 l 376 882 l 292 1050 l 208 882 l 97 882 z "},"ế":{"ha":585,"x_min":60,"x_max":672,"o":"m 297 -11 q 108 71 156 -11 q 60 310 60 153 l 60 493 q 109 733 60 653 q 297 814 158 814 q 487 721 449 814 q 525 464 525 628 l 525 399 l 208 399 l 208 292 q 218 155 208 211 q 296 99 228 99 q 363 134 347 99 q 379 231 379 169 l 379 279 l 524 279 l 524 249 q 472 58 524 128 q 297 -11 419 -11 m 208 479 l 379 479 l 379 551 q 365 665 379 625 q 296 704 351 704 q 225 665 242 704 q 208 522 208 626 l 208 479 m 97 882 l 217 1097 l 368 1097 l 489 882 l 376 882 l 292 1022 l 208 882 l 97 882 m 469 1026 l 543 1186 l 672 1186 l 561 1026 l 469 1026 z "},"ệ":{"ha":585,"x_min":60,"x_max":525,"o":"m 297 -11 q 108 71 156 -11 q 60 310 60 153 l 60 493 q 109 733 60 653 q 297 814 158 814 q 487 721 449 814 q 525 464 525 628 l 525 399 l 208 399 l 208 292 q 218 155 208 211 q 296 99 228 99 q 363 134 347 99 q 379 231 379 169 l 379 279 l 524 279 l 524 249 q 472 58 524 128 q 297 -11 419 -11 m 208 479 l 379 479 l 379 551 q 365 665 379 625 q 296 704 351 704 q 225 665 242 704 q 208 522 208 626 l 208 479 m 218 -244 l 218 -87 l 368 -87 l 368 -244 l 218 -244 m 97 882 l 217 1097 l 368 1097 l 489 882 l 376 882 l 292 1022 l 208 882 l 97 882 z "},"ề":{"ha":585,"x_min":60,"x_max":596,"o":"m 297 -11 q 108 71 156 -11 q 60 310 60 153 l 60 493 q 109 733 60 653 q 297 814 158 814 q 487 721 449 814 q 525 464 525 628 l 525 399 l 208 399 l 208 292 q 218 155 208 211 q 296 99 228 99 q 363 134 347 99 q 379 231 379 169 l 379 279 l 524 279 l 524 249 q 472 58 524 128 q 297 -11 419 -11 m 208 479 l 379 479 l 379 551 q 365 665 379 625 q 296 704 351 704 q 225 665 242 704 q 208 522 208 626 l 208 479 m 97 882 l 217 1097 l 368 1097 l 489 882 l 376 882 l 292 1022 l 208 882 l 97 882 m 504 1026 l 393 1186 l 522 1186 l 596 1026 l 504 1026 z "},"ể":{"ha":585,"x_min":60,"x_max":633,"o":"m 297 -11 q 108 71 156 -11 q 60 310 60 153 l 60 493 q 109 733 60 653 q 297 814 158 814 q 487 721 449 814 q 525 464 525 628 l 525 399 l 208 399 l 208 292 q 218 155 208 211 q 296 99 228 99 q 363 134 347 99 q 379 231 379 169 l 379 279 l 524 279 l 524 249 q 472 58 524 128 q 297 -11 419 -11 m 208 479 l 379 479 l 379 551 q 365 665 379 625 q 296 704 351 704 q 225 665 242 704 q 208 522 208 626 l 208 479 m 503 996 l 456 1051 q 504 1088 486 1069 q 522 1132 522 1106 q 502 1174 522 1161 q 454 1186 482 1186 q 423 1184 440 1186 q 390 1176 406 1182 l 390 1251 q 492 1265 438 1265 q 592 1236 551 1265 q 633 1144 633 1207 q 597 1051 633 1083 q 503 996 560 1019 m 97 882 l 217 1097 l 368 1097 l 489 882 l 376 882 l 292 1022 l 208 882 l 97 882 z "},"ễ":{"ha":585,"x_min":60,"x_max":525,"o":"m 297 -11 q 108 71 156 -11 q 60 310 60 153 l 60 493 q 109 733 60 653 q 297 814 158 814 q 487 721 449 814 q 525 464 525 628 l 525 399 l 208 399 l 208 292 q 218 155 208 211 q 296 99 228 99 q 363 134 347 99 q 379 231 379 169 l 379 279 l 524 279 l 524 249 q 472 58 524 128 q 297 -11 419 -11 m 208 479 l 379 479 l 379 551 q 365 665 379 625 q 296 704 351 704 q 225 665 242 704 q 208 522 208 626 l 208 479 z "},"ȅ":{"ha":585,"x_min":19,"x_max":525,"o":"m 297 -11 q 108 71 156 -11 q 60 310 60 153 l 60 493 q 109 733 60 653 q 297 814 158 814 q 487 721 449 814 q 525 464 525 628 l 525 399 l 208 399 l 208 292 q 218 155 208 211 q 296 99 228 99 q 363 134 347 99 q 379 231 379 169 l 379 279 l 524 279 l 524 249 q 472 58 524 128 q 297 -11 419 -11 m 208 479 l 379 479 l 379 551 q 365 665 379 625 q 296 704 351 704 q 225 665 242 704 q 208 522 208 626 l 208 479 m 175 889 l 19 1125 l 169 1125 l 250 889 l 175 889 m 353 889 l 250 1125 l 372 1125 l 428 889 l 353 889 z "},"ë":{"ha":585,"x_min":60,"x_max":525,"o":"m 297 -11 q 108 71 156 -11 q 60 310 60 153 l 60 493 q 109 733 60 653 q 297 814 158 814 q 487 721 449 814 q 525 464 525 628 l 525 399 l 208 399 l 208 292 q 218 155 208 211 q 296 99 228 99 q 363 134 347 99 q 379 231 379 169 l 379 279 l 524 279 l 524 249 q 472 58 524 128 q 297 -11 419 -11 m 208 479 l 379 479 l 379 551 q 365 665 379 625 q 296 704 351 704 q 225 665 242 704 q 208 522 208 626 l 208 479 m 338 971 l 338 1125 l 488 1125 l 488 971 l 338 971 m 99 971 l 99 1125 l 249 1125 l 249 971 l 99 971 z "},"ė":{"ha":585,"x_min":60,"x_max":525,"o":"m 297 -11 q 108 71 156 -11 q 60 310 60 153 l 60 493 q 109 733 60 653 q 297 814 158 814 q 487 721 449 814 q 525 464 525 628 l 525 399 l 208 399 l 208 292 q 218 155 208 211 q 296 99 228 99 q 363 134 347 99 q 379 231 379 169 l 379 279 l 524 279 l 524 249 q 472 58 524 128 q 297 -11 419 -11 m 208 479 l 379 479 l 379 551 q 365 665 379 625 q 296 704 351 704 q 225 665 242 704 q 208 522 208 626 l 208 479 m 218 932 l 218 1097 l 368 1097 l 368 932 l 218 932 z "},"ẹ":{"ha":585,"x_min":60,"x_max":525,"o":"m 297 -11 q 108 71 156 -11 q 60 310 60 153 l 60 493 q 109 733 60 653 q 297 814 158 814 q 487 721 449 814 q 525 464 525 628 l 525 399 l 208 399 l 208 292 q 218 155 208 211 q 296 99 228 99 q 363 134 347 99 q 379 231 379 169 l 379 279 l 524 279 l 524 249 q 472 58 524 128 q 297 -11 419 -11 m 208 479 l 379 479 l 379 551 q 365 665 379 625 q 296 704 351 704 q 225 665 242 704 q 208 522 208 626 l 208 479 m 218 -244 l 218 -87 l 368 -87 l 368 -244 l 218 -244 z "},"è":{"ha":585,"x_min":60,"x_max":525,"o":"m 297 -11 q 108 71 156 -11 q 60 310 60 153 l 60 493 q 109 733 60 653 q 297 814 158 814 q 487 721 449 814 q 525 464 525 628 l 525 399 l 208 399 l 208 292 q 218 155 208 211 q 296 99 228 99 q 363 134 347 99 q 379 231 379 169 l 379 279 l 524 279 l 524 249 q 472 58 524 128 q 297 -11 419 -11 m 208 479 l 379 479 l 379 551 q 365 665 379 625 q 296 704 351 704 q 225 665 242 704 q 208 522 208 626 l 208 479 m 258 869 l 104 1144 l 253 1144 l 332 869 l 258 869 z "},"ẻ":{"ha":585,"x_min":60,"x_max":525,"o":"m 297 -11 q 108 71 156 -11 q 60 310 60 153 l 60 493 q 109 733 60 653 q 297 814 158 814 q 487 721 449 814 q 525 464 525 628 l 525 399 l 208 399 l 208 292 q 218 155 208 211 q 296 99 228 99 q 363 134 347 99 q 379 231 379 169 l 379 279 l 524 279 l 524 249 q 472 58 524 128 q 297 -11 419 -11 m 208 479 l 379 479 l 379 551 q 365 665 379 625 q 296 704 351 704 q 225 665 242 704 q 208 522 208 626 l 208 479 m 294 883 l 247 939 q 313 974 288 957 q 338 1019 338 992 q 313 1061 338 1049 q 253 1074 288 1074 q 182 1064 215 1074 l 182 1139 q 294 1153 236 1153 q 404 1124 360 1153 q 449 1032 449 1094 q 405 938 449 971 q 294 883 361 906 z "},"ȇ":{"ha":585,"x_min":60,"x_max":525,"o":"m 297 -11 q 108 71 156 -11 q 60 310 60 153 l 60 493 q 109 733 60 653 q 297 814 158 814 q 487 721 449 814 q 525 464 525 628 l 525 399 l 208 399 l 208 292 q 218 155 208 211 q 296 99 228 99 q 363 134 347 99 q 379 231 379 169 l 379 279 l 524 279 l 524 249 q 472 58 524 128 q 297 -11 419 -11 m 208 479 l 379 479 l 379 551 q 365 665 379 625 q 296 704 351 704 q 225 665 242 704 q 208 522 208 626 l 208 479 m 110 918 q 147 1065 111 1006 q 293 1125 182 1125 q 440 1065 404 1125 q 476 918 476 1006 l 389 918 q 367 1013 389 985 q 293 1040 346 1040 q 220 1012 242 1040 q 197 918 199 983 l 110 918 z "},"ē":{"ha":585,"x_min":60,"x_max":525,"o":"m 297 -11 q 108 71 156 -11 q 60 310 60 153 l 60 493 q 109 733 60 653 q 297 814 158 814 q 487 721 449 814 q 525 464 525 628 l 525 399 l 208 399 l 208 292 q 218 155 208 211 q 296 99 228 99 q 363 134 347 99 q 379 231 379 169 l 379 279 l 524 279 l 524 249 q 472 58 524 128 q 297 -11 419 -11 m 208 479 l 379 479 l 379 551 q 365 665 379 625 q 296 704 351 704 q 225 665 242 704 q 208 522 208 626 l 208 479 m 160 951 l 160 1042 l 426 1042 l 426 951 l 160 951 z "},"ę":{"ha":585,"x_min":60,"x_max":525,"o":"m 297 -11 q 108 71 156 -11 q 60 310 60 153 l 60 493 q 109 733 60 653 q 297 814 158 814 q 487 721 449 814 q 525 464 525 628 l 525 399 l 208 399 l 208 292 q 218 155 208 211 q 296 99 228 99 q 363 134 347 99 q 379 231 379 169 l 379 279 l 524 279 l 524 249 q 472 58 524 128 q 297 -11 419 -11 m 208 479 l 379 479 l 379 551 q 365 665 379 625 q 296 704 351 704 q 225 665 242 704 q 208 522 208 626 l 208 479 m 349 -307 q 254 -299 299 -307 q 183 -265 210 -290 q 156 -187 156 -239 q 206 -61 156 -119 q 310 14 256 -3 l 385 14 q 307 -69 346 -19 q 268 -165 268 -118 q 304 -220 268 -208 q 379 -232 340 -232 q 424 -229 399 -232 l 399 -303 q 349 -307 376 -307 z "},"ẽ":{"ha":585,"x_min":60,"x_max":525,"o":"m 297 -11 q 108 71 156 -11 q 60 310 60 153 l 60 493 q 109 733 60 653 q 297 814 158 814 q 487 721 449 814 q 525 464 525 628 l 525 399 l 208 399 l 208 292 q 218 155 208 211 q 296 99 228 99 q 363 134 347 99 q 379 231 379 169 l 379 279 l 524 279 l 524 249 q 472 58 524 128 q 297 -11 419 -11 m 208 479 l 379 479 l 379 551 q 365 665 379 625 q 296 704 351 704 q 225 665 242 704 q 208 522 208 626 l 208 479 m 399 972 q 301 1006 340 972 q 217 1040 261 1040 q 181 1027 193 1040 q 169 983 169 1014 l 85 983 q 108 1090 85 1046 q 196 1133 132 1133 q 288 1100 249 1133 q 372 1067 328 1067 q 407 1079 396 1067 q 418 1125 418 1092 l 501 1125 q 481 1017 501 1063 q 399 972 460 972 z "},"ə":{"ha":585,"x_min":60,"x_max":525,"o":"m 288 -12 q 98 80 136 -12 q 60 338 60 172 l 60 403 l 376 403 l 376 513 q 367 648 376 592 q 289 704 357 704 q 221 669 236 704 q 206 574 206 633 l 206 525 l 61 525 l 61 556 q 113 744 61 675 q 288 814 164 814 q 477 732 429 814 q 525 494 525 650 l 525 308 q 476 68 525 149 q 288 -12 426 -12 m 289 97 q 360 136 343 97 q 376 279 376 175 l 376 322 l 206 322 l 206 250 q 219 137 206 176 q 289 97 233 97 z "},"f":{"ha":399,"x_min":26,"x_max":393,"o":"m 122 0 l 122 693 l 26 693 l 26 803 l 122 803 l 122 844 q 152 1020 122 956 q 296 1085 182 1085 q 344 1083 324 1085 q 393 1078 364 1081 l 393 967 q 365 971 381 968 q 338 974 350 974 q 283 945 294 974 q 271 869 271 917 l 271 803 l 393 803 l 393 693 l 271 693 l 271 0 l 122 0 z "},"ḟ":{"ha":399,"x_min":26,"x_max":393,"o":"m 122 0 l 122 693 l 26 693 l 26 803 l 122 803 l 122 844 q 152 1020 122 956 q 296 1085 182 1085 q 344 1083 324 1085 q 393 1078 364 1081 l 393 967 q 365 971 381 968 q 338 974 350 974 q 283 945 294 974 q 271 869 271 917 l 271 803 l 393 803 l 393 693 l 271 693 l 271 0 l 122 0 m 197 1207 l 197 1372 l 347 1372 l 347 1207 l 197 1207 z "},"g":{"ha":604,"x_min":28,"x_max":621,"o":"m 325 -249 q 180 -241 247 -249 q 70 -207 113 -233 q 28 -124 28 -181 q 63 -12 28 -57 q 143 57 99 33 q 84 92 103 68 q 65 143 65 117 q 89 219 65 188 q 154 289 113 251 q 85 378 108 324 q 61 528 61 432 q 119 741 61 668 q 288 814 176 814 q 392 792 353 814 q 453 725 432 769 q 490 763 460 736 q 561 808 521 789 l 583 818 l 621 722 q 544 699 594 717 q 485 671 494 681 q 502 603 494 647 q 510 524 510 558 q 462 323 510 400 q 288 246 414 246 q 211 256 250 246 q 194 226 204 243 q 185 194 185 210 q 251 158 185 164 q 285 156 254 158 q 345 150 315 153 q 376 147 375 147 q 515 90 467 139 q 563 -49 563 42 q 503 -203 563 -158 q 325 -249 444 -249 m 322 -132 q 417 -113 386 -132 q 449 -53 449 -94 q 426 3 449 -17 q 339 29 404 22 l 213 40 q 176 1 200 31 q 153 -64 153 -28 q 183 -115 153 -99 q 322 -132 213 -132 m 288 350 q 351 371 331 350 q 377 432 371 392 q 383 528 383 472 q 377 625 383 583 q 351 689 371 667 q 289 711 331 711 q 226 690 247 711 q 198 627 206 668 q 190 528 190 586 q 197 438 190 478 q 225 374 204 397 q 288 350 246 350 z "},"ǵ":{"ha":604,"x_min":28,"x_max":621,"o":"m 325 -249 q 180 -241 247 -249 q 70 -207 113 -233 q 28 -124 28 -181 q 63 -12 28 -57 q 143 57 99 33 q 84 92 103 68 q 65 143 65 117 q 89 219 65 188 q 154 289 113 251 q 85 378 108 324 q 61 528 61 432 q 119 741 61 668 q 288 814 176 814 q 392 792 353 814 q 453 725 432 769 q 490 763 460 736 q 561 808 521 789 l 583 818 l 621 722 q 544 699 594 717 q 485 671 494 681 q 502 603 494 647 q 510 524 510 558 q 462 323 510 400 q 288 246 414 246 q 211 256 250 246 q 194 226 204 243 q 185 194 185 210 q 251 158 185 164 q 285 156 254 158 q 345 150 315 153 q 376 147 375 147 q 515 90 467 139 q 563 -49 563 42 q 503 -203 563 -158 q 325 -249 444 -249 m 322 -132 q 417 -113 386 -132 q 449 -53 449 -94 q 426 3 449 -17 q 339 29 404 22 l 213 40 q 176 1 200 31 q 153 -64 153 -28 q 183 -115 153 -99 q 322 -132 213 -132 m 288 350 q 351 371 331 350 q 377 432 371 392 q 383 528 383 472 q 377 625 383 583 q 351 689 371 667 q 289 711 331 711 q 226 690 247 711 q 198 627 206 668 q 190 528 190 586 q 197 438 190 478 q 225 374 204 397 q 288 350 246 350 m 264 869 l 346 1144 l 494 1144 l 339 869 l 264 869 z "},"ğ":{"ha":604,"x_min":28,"x_max":621,"o":"m 325 -249 q 180 -241 247 -249 q 70 -207 113 -233 q 28 -124 28 -181 q 63 -12 28 -57 q 143 57 99 33 q 84 92 103 68 q 65 143 65 117 q 89 219 65 188 q 154 289 113 251 q 85 378 108 324 q 61 528 61 432 q 119 741 61 668 q 288 814 176 814 q 392 792 353 814 q 453 725 432 769 q 490 763 460 736 q 561 808 521 789 l 583 818 l 621 722 q 544 699 594 717 q 485 671 494 681 q 502 603 494 647 q 510 524 510 558 q 462 323 510 400 q 288 246 414 246 q 211 256 250 246 q 194 226 204 243 q 185 194 185 210 q 251 158 185 164 q 285 156 254 158 q 345 150 315 153 q 376 147 375 147 q 515 90 467 139 q 563 -49 563 42 q 503 -203 563 -158 q 325 -249 444 -249 m 322 -132 q 417 -113 386 -132 q 449 -53 449 -94 q 426 3 449 -17 q 339 29 404 22 l 213 40 q 176 1 200 31 q 153 -64 153 -28 q 183 -115 153 -99 q 322 -132 213 -132 m 288 350 q 351 371 331 350 q 377 432 371 392 q 383 528 383 472 q 377 625 383 583 q 351 689 371 667 q 289 711 331 711 q 226 690 247 711 q 198 627 206 668 q 190 528 190 586 q 197 438 190 478 q 225 374 204 397 q 288 350 246 350 m 303 890 q 162 944 203 890 q 121 1079 121 999 l 207 1079 q 230 1002 208 1029 q 303 975 251 975 q 376 1003 354 975 q 399 1079 399 1031 l 486 1079 q 445 944 486 999 q 303 890 404 890 z "},"ǧ":{"ha":604,"x_min":28,"x_max":621,"o":"m 325 -249 q 180 -241 247 -249 q 70 -207 113 -233 q 28 -124 28 -181 q 63 -12 28 -57 q 143 57 99 33 q 84 92 103 68 q 65 143 65 117 q 89 219 65 188 q 154 289 113 251 q 85 378 108 324 q 61 528 61 432 q 119 741 61 668 q 288 814 176 814 q 392 792 353 814 q 453 725 432 769 q 490 763 460 736 q 561 808 521 789 l 583 818 l 621 722 q 544 699 594 717 q 485 671 494 681 q 502 603 494 647 q 510 524 510 558 q 462 323 510 400 q 288 246 414 246 q 211 256 250 246 q 194 226 204 243 q 185 194 185 210 q 251 158 185 164 q 285 156 254 158 q 345 150 315 153 q 376 147 375 147 q 515 90 467 139 q 563 -49 563 42 q 503 -203 563 -158 q 325 -249 444 -249 m 322 -132 q 417 -113 386 -132 q 449 -53 449 -94 q 426 3 449 -17 q 339 29 404 22 l 213 40 q 176 1 200 31 q 153 -64 153 -28 q 183 -115 153 -99 q 322 -132 213 -132 m 288 350 q 351 371 331 350 q 377 432 371 392 q 383 528 383 472 q 377 625 383 583 q 351 689 371 667 q 289 711 331 711 q 226 690 247 711 q 198 627 206 668 q 190 528 190 586 q 197 438 190 478 q 225 374 204 397 q 288 350 246 350 m 229 885 l 108 1125 l 222 1125 l 303 963 l 383 1125 l 497 1125 l 375 885 l 229 885 z "},"ĝ":{"ha":604,"x_min":28,"x_max":621,"o":"m 325 -249 q 180 -241 247 -249 q 70 -207 113 -233 q 28 -124 28 -181 q 63 -12 28 -57 q 143 57 99 33 q 84 92 103 68 q 65 143 65 117 q 89 219 65 188 q 154 289 113 251 q 85 378 108 324 q 61 528 61 432 q 119 741 61 668 q 288 814 176 814 q 392 792 353 814 q 453 725 432 769 q 490 763 460 736 q 561 808 521 789 l 583 818 l 621 722 q 544 699 594 717 q 485 671 494 681 q 502 603 494 647 q 510 524 510 558 q 462 323 510 400 q 288 246 414 246 q 211 256 250 246 q 194 226 204 243 q 185 194 185 210 q 251 158 185 164 q 285 156 254 158 q 345 150 315 153 q 376 147 375 147 q 515 90 467 139 q 563 -49 563 42 q 503 -203 563 -158 q 325 -249 444 -249 m 322 -132 q 417 -113 386 -132 q 449 -53 449 -94 q 426 3 449 -17 q 339 29 404 22 l 213 40 q 176 1 200 31 q 153 -64 153 -28 q 183 -115 153 -99 q 322 -132 213 -132 m 288 350 q 351 371 331 350 q 377 432 371 392 q 383 528 383 472 q 377 625 383 583 q 351 689 371 667 q 289 711 331 711 q 226 690 247 711 q 198 627 206 668 q 190 528 190 586 q 197 438 190 478 q 225 374 204 397 q 288 350 246 350 m 107 882 l 226 1125 l 378 1125 l 499 882 l 386 882 l 301 1050 l 218 882 l 107 882 z "},"ģ":{"ha":604,"x_min":28,"x_max":621,"o":"m 325 -249 q 180 -241 247 -249 q 70 -207 113 -233 q 28 -124 28 -181 q 63 -12 28 -57 q 143 57 99 33 q 84 92 103 68 q 65 143 65 117 q 89 219 65 188 q 154 289 113 251 q 85 378 108 324 q 61 528 61 432 q 119 741 61 668 q 288 814 176 814 q 392 792 353 814 q 453 725 432 769 q 490 763 460 736 q 561 808 521 789 l 583 818 l 621 722 q 544 699 594 717 q 485 671 494 681 q 502 603 494 647 q 510 524 510 558 q 462 323 510 400 q 288 246 414 246 q 211 256 250 246 q 194 226 204 243 q 185 194 185 210 q 251 158 185 164 q 285 156 254 158 q 345 150 315 153 q 376 147 375 147 q 515 90 467 139 q 563 -49 563 42 q 503 -203 563 -158 q 325 -249 444 -249 m 322 -132 q 417 -113 386 -132 q 449 -53 449 -94 q 426 3 449 -17 q 339 29 404 22 l 213 40 q 176 1 200 31 q 153 -64 153 -28 q 183 -115 153 -99 q 322 -132 213 -132 m 288 350 q 351 371 331 350 q 377 432 371 392 q 383 528 383 472 q 377 625 383 583 q 351 689 371 667 q 289 711 331 711 q 226 690 247 711 q 198 627 206 668 q 190 528 190 586 q 197 438 190 478 q 225 374 204 397 q 288 350 246 350 z "},"ġ":{"ha":604,"x_min":28,"x_max":621,"o":"m 325 -249 q 180 -241 247 -249 q 70 -207 113 -233 q 28 -124 28 -181 q 63 -12 28 -57 q 143 57 99 33 q 84 92 103 68 q 65 143 65 117 q 89 219 65 188 q 154 289 113 251 q 85 378 108 324 q 61 528 61 432 q 119 741 61 668 q 288 814 176 814 q 392 792 353 814 q 453 725 432 769 q 490 763 460 736 q 561 808 521 789 l 583 818 l 621 722 q 544 699 594 717 q 485 671 494 681 q 502 603 494 647 q 510 524 510 558 q 462 323 510 400 q 288 246 414 246 q 211 256 250 246 q 194 226 204 243 q 185 194 185 210 q 251 158 185 164 q 285 156 254 158 q 345 150 315 153 q 376 147 375 147 q 515 90 467 139 q 563 -49 563 42 q 503 -203 563 -158 q 325 -249 444 -249 m 322 -132 q 417 -113 386 -132 q 449 -53 449 -94 q 426 3 449 -17 q 339 29 404 22 l 213 40 q 176 1 200 31 q 153 -64 153 -28 q 183 -115 153 -99 q 322 -132 213 -132 m 288 350 q 351 371 331 350 q 377 432 371 392 q 383 528 383 472 q 377 625 383 583 q 351 689 371 667 q 289 711 331 711 q 226 690 247 711 q 198 627 206 668 q 190 528 190 586 q 197 438 190 478 q 225 374 204 397 q 288 350 246 350 m 228 932 l 228 1097 l 378 1097 l 378 932 l 228 932 z "},"h":{"ha":618,"x_min":79,"x_max":549,"o":"m 79 0 l 79 1125 l 228 1125 l 228 719 q 318 786 268 758 q 429 814 368 814 q 524 761 500 814 q 549 650 549 708 l 549 0 l 400 0 l 400 607 q 388 674 400 650 q 336 697 375 697 q 281 682 310 697 q 228 644 253 667 l 228 0 l 79 0 z "},"ħ":{"ha":618,"x_min":-8,"x_max":549,"o":"m 79 0 l 79 958 l -8 958 l -8 1042 l 79 1042 l 79 1125 l 228 1125 l 228 1042 l 397 1042 l 397 958 l 228 958 l 228 719 q 317 786 267 758 q 428 814 367 814 q 524 761 500 814 q 549 650 549 708 l 549 0 l 400 0 l 400 607 q 388 674 400 650 q 336 697 375 697 q 281 682 310 697 q 228 644 253 667 l 228 0 l 79 0 z "},"ĥ":{"ha":618,"x_min":-42,"x_max":549,"o":"m 79 0 l 79 1125 l 228 1125 l 228 719 q 318 786 268 758 q 429 814 368 814 q 524 761 500 814 q 549 650 549 708 l 549 0 l 400 0 l 400 607 q 388 674 400 650 q 336 697 375 697 q 281 682 310 697 q 228 644 253 667 l 228 0 l 79 0 m -42 1204 l 78 1447 l 229 1447 l 350 1204 l 238 1204 l 153 1372 l 69 1204 l -42 1204 z "},"i":{"ha":318,"x_min":85,"x_max":233,"o":"m 85 0 l 85 803 l 233 803 l 233 0 l 85 0 m 85 922 l 85 1078 l 233 1078 l 233 922 l 85 922 z "},"ı":{"ha":311,"x_min":85,"x_max":233,"o":"m 85 0 l 85 803 l 233 803 l 233 0 l 85 0 z "},"í":{"ha":311,"x_min":85,"x_max":351,"o":"m 85 0 l 85 803 l 233 803 l 233 0 l 85 0 m 121 869 l 203 1144 l 351 1144 l 196 869 l 121 869 z "},"ĭ":{"ha":311,"x_min":-22,"x_max":343,"o":"m 85 0 l 85 803 l 233 803 l 233 0 l 85 0 m 160 890 q 19 944 60 890 q -22 1079 -22 999 l 64 1079 q 87 1002 65 1029 q 160 975 108 975 q 233 1003 211 975 q 256 1079 256 1031 l 343 1079 q 302 944 343 999 q 160 890 261 890 z "},"î":{"ha":311,"x_min":-36,"x_max":356,"o":"m 85 0 l 85 803 l 233 803 l 233 0 l 85 0 m -36 882 l 83 1125 l 235 1125 l 356 882 l 243 882 l 158 1050 l 75 882 l -36 882 z "},"ȉ":{"ha":311,"x_min":-114,"x_max":294,"o":"m 85 0 l 85 803 l 233 803 l 233 0 l 85 0 m 42 889 l -114 1125 l 36 1125 l 117 889 l 42 889 m 219 889 l 117 1125 l 239 1125 l 294 889 l 219 889 z "},"ï":{"ha":311,"x_min":-35,"x_max":354,"o":"m 85 0 l 85 803 l 233 803 l 233 0 l 85 0 m 204 971 l 204 1125 l 354 1125 l 354 971 l 204 971 m -35 971 l -35 1125 l 115 1125 l 115 971 l -35 971 z "},"ị":{"ha":318,"x_min":85,"x_max":235,"o":"m 85 0 l 85 803 l 233 803 l 233 0 l 85 0 m 85 922 l 85 1078 l 233 1078 l 233 922 l 85 922 m 85 -244 l 85 -87 l 235 -87 l 235 -244 l 85 -244 z "},"ì":{"ha":311,"x_min":-29,"x_max":233,"o":"m 85 0 l 85 803 l 233 803 l 233 0 l 85 0 m 125 869 l -29 1144 l 119 1144 l 199 869 l 125 869 z "},"ỉ":{"ha":311,"x_min":49,"x_max":315,"o":"m 85 0 l 85 803 l 233 803 l 233 0 l 85 0 m 161 883 l 114 939 q 179 974 154 957 q 204 1019 204 992 q 179 1061 204 1049 q 119 1074 154 1074 q 49 1064 82 1074 l 49 1139 q 161 1153 103 1153 q 271 1124 226 1153 q 315 1032 315 1094 q 272 938 315 971 q 161 883 228 906 z "},"ȋ":{"ha":311,"x_min":-24,"x_max":343,"o":"m 85 0 l 85 803 l 233 803 l 233 0 l 85 0 m -24 918 q 13 1065 -22 1006 q 160 1125 49 1125 q 307 1065 271 1125 q 343 918 343 1006 l 256 918 q 234 1013 256 985 q 160 1040 213 1040 q 87 1012 108 1040 q 64 918 65 983 l -24 918 z "},"ĳ":{"ha":638,"x_min":85,"x_max":564,"o":"m 85 0 l 85 803 l 233 803 l 233 0 l 85 0 m 85 922 l 85 1078 l 233 1078 l 233 922 l 85 922 m 368 -203 q 328 -201 349 -203 q 292 -193 307 -200 l 292 -86 q 311 -89 299 -87 q 331 -90 324 -90 q 397 -63 379 -90 q 414 7 414 -36 l 414 803 l 563 803 l 563 -8 q 510 -153 563 -103 q 368 -203 458 -203 m 414 922 l 414 1078 l 564 1078 l 564 922 l 414 922 z "},"ī":{"ha":311,"x_min":26,"x_max":293,"o":"m 85 0 l 85 803 l 233 803 l 233 0 l 85 0 m 26 951 l 26 1042 l 293 1042 l 293 951 l 26 951 z "},"į":{"ha":318,"x_min":-31,"x_max":238,"o":"m 85 0 l 85 803 l 233 803 l 233 0 l 85 0 m 85 922 l 85 1078 l 233 1078 l 233 922 l 85 922 m 163 -321 q 68 -312 113 -321 q -3 -278 24 -304 q -31 -201 -31 -253 q 19 -75 -31 -133 q 124 0 69 -17 l 199 0 q 121 -83 160 -33 q 82 -179 82 -132 q 118 -234 82 -222 q 193 -246 154 -246 q 238 -243 213 -246 l 213 -317 q 163 -321 190 -321 z "},"ĩ":{"ha":311,"x_min":-49,"x_max":368,"o":"m 85 0 l 85 803 l 233 803 l 233 0 l 85 0 m 265 972 q 167 1006 207 972 q 83 1040 128 1040 q 48 1027 60 1040 q 36 983 36 1014 l -49 983 q -25 1090 -49 1046 q 63 1133 -1 1133 q 155 1100 115 1133 q 239 1067 194 1067 q 274 1079 263 1067 q 285 1125 285 1092 l 368 1125 q 347 1017 368 1063 q 265 972 326 972 z "},"j":{"ha":319,"x_min":-26,"x_max":246,"o":"m 50 -203 q 10 -201 31 -203 q -26 -193 -11 -200 l -26 -86 q -7 -89 -19 -87 q 13 -90 6 -90 q 78 -63 61 -90 q 96 7 96 -36 l 96 803 l 244 803 l 244 -8 q 192 -153 244 -103 q 50 -203 140 -203 m 96 922 l 96 1078 l 246 1078 l 246 922 l 96 922 z "},"ȷ":{"ha":319,"x_min":-26,"x_max":244,"o":"m 50 -203 q 10 -201 31 -203 q -26 -193 -11 -200 l -26 -86 q -7 -89 -19 -87 q 13 -90 6 -90 q 78 -63 61 -90 q 96 7 96 -36 l 96 803 l 244 803 l 244 -8 q 192 -153 244 -103 q 50 -203 140 -203 z "},"ĵ":{"ha":319,"x_min":-26,"x_max":367,"o":"m 50 -203 q 10 -201 31 -203 q -26 -193 -11 -200 l -26 -86 q -7 -89 -19 -87 q 13 -90 6 -90 q 78 -63 61 -90 q 96 7 96 -36 l 96 803 l 244 803 l 244 -8 q 192 -153 244 -103 q 50 -203 140 -203 m -25 882 l 94 1125 l 246 1125 l 367 882 l 254 882 l 169 1050 l 86 882 l -25 882 z "},"k":{"ha":596,"x_min":78,"x_max":599,"o":"m 78 1 l 78 1126 l 226 1126 l 226 456 l 443 803 l 599 803 l 410 489 l 593 0 l 444 0 l 294 411 l 226 308 l 226 1 l 78 1 z "},"ķ":{"ha":596,"x_min":78,"x_max":599,"o":"m 78 1 l 78 1126 l 226 1126 l 226 456 l 443 803 l 599 803 l 410 489 l 593 0 l 444 0 l 294 411 l 226 308 l 226 1 l 78 1 m 260 -399 l 222 -325 q 283 -301 265 -322 q 300 -239 300 -279 l 224 -239 l 224 -87 l 375 -87 l 374 -231 q 352 -350 372 -304 q 260 -399 332 -396 z "},"ĸ":{"ha":597,"x_min":82,"x_max":592,"o":"m 82 0 l 82 803 l 231 803 l 231 450 l 442 803 l 592 803 l 408 496 l 592 0 l 443 0 l 308 394 l 231 278 l 231 0 l 82 0 z "},"l":{"ha":318,"x_min":89,"x_max":238,"o":"m 89 0 l 89 1125 l 238 1125 l 238 0 l 89 0 z "},"ĺ":{"ha":318,"x_min":89,"x_max":356,"o":"m 89 0 l 89 1125 l 238 1125 l 238 0 l 89 0 m 125 1192 l 207 1467 l 356 1467 l 200 1192 l 125 1192 z "},"ľ":{"ha":429,"x_min":89,"x_max":457,"o":"m 89 0 l 89 1125 l 238 1125 l 238 0 l 89 0 m 326 783 l 303 847 q 362 891 340 860 q 383 965 383 922 l 304 965 l 304 1125 l 457 1125 l 457 968 q 425 851 457 894 q 326 783 393 807 z "},"ļ":{"ha":318,"x_min":88,"x_max":240,"o":"m 89 0 l 89 1125 l 238 1125 l 238 0 l 89 0 m 125 -399 l 88 -325 q 148 -301 131 -322 q 165 -239 165 -279 l 89 -239 l 89 -87 l 240 -87 l 239 -231 q 217 -350 238 -304 q 125 -399 197 -396 z "},"ŀ":{"ha":394,"x_min":89,"x_max":414,"o":"m 89 0 l 89 1125 l 238 1125 l 238 0 l 89 0 m 306 531 l 306 683 l 414 683 l 414 531 l 306 531 z "},"ǉ":{"ha":638,"x_min":89,"x_max":564,"o":"m 89 0 l 89 1125 l 238 1125 l 238 0 l 89 0 m 368 -203 q 328 -201 349 -203 q 292 -193 307 -200 l 292 -86 q 311 -89 299 -87 q 331 -90 324 -90 q 397 -63 379 -90 q 414 7 414 -36 l 414 803 l 563 803 l 563 -8 q 510 -153 563 -103 q 368 -203 458 -203 m 414 922 l 414 1078 l 564 1078 l 564 922 l 414 922 z "},"ł":{"ha":371,"x_min":24,"x_max":351,"o":"m 118 0 l 118 578 l 24 532 l 24 649 l 118 693 l 118 1125 l 267 1125 l 267 761 l 351 803 l 351 688 l 267 646 l 267 0 l 118 0 z "},"m":{"ha":944,"x_min":75,"x_max":874,"o":"m 75 0 l 75 803 l 213 803 l 213 726 q 301 794 253 772 q 401 817 350 817 q 481 794 444 817 q 532 715 517 772 q 626 792 575 767 q 732 817 676 817 q 832 774 790 817 q 874 631 874 731 l 874 0 l 738 0 l 738 621 q 719 700 738 679 q 668 719 700 721 q 604 702 638 719 q 543 654 571 685 q 543 642 543 647 q 543 631 543 636 l 543 0 l 407 0 l 407 621 q 388 700 407 679 q 338 719 369 721 q 274 702 307 719 q 213 654 242 685 l 213 0 l 75 0 z "},"ṁ":{"ha":944,"x_min":75,"x_max":874,"o":"m 75 0 l 75 803 l 213 803 l 213 726 q 301 794 253 772 q 401 817 350 817 q 481 794 444 817 q 532 715 517 772 q 626 792 575 767 q 732 817 676 817 q 832 774 790 817 q 874 631 874 731 l 874 0 l 738 0 l 738 621 q 719 700 738 679 q 668 719 700 721 q 604 702 638 719 q 543 654 571 685 q 543 642 543 647 q 543 631 543 636 l 543 0 l 407 0 l 407 621 q 388 700 407 679 q 338 719 369 721 q 274 702 307 719 q 213 654 242 685 l 213 0 l 75 0 m 397 932 l 397 1097 l 547 1097 l 547 932 l 397 932 z "},"n":{"ha":610,"x_min":75,"x_max":540,"o":"m 75 0 l 75 803 l 224 803 l 224 724 q 313 788 264 761 q 419 814 361 814 q 516 761 492 814 q 540 650 540 708 l 540 0 l 392 0 l 392 607 q 379 674 392 650 q 328 697 367 697 q 276 683 303 697 q 224 647 249 668 l 224 0 l 75 0 z "},"ń":{"ha":610,"x_min":75,"x_max":540,"o":"m 75 0 l 75 803 l 224 803 l 224 724 q 313 788 264 761 q 419 814 361 814 q 516 761 492 814 q 540 650 540 708 l 540 0 l 392 0 l 392 607 q 379 674 392 650 q 328 697 367 697 q 276 683 303 697 q 224 647 249 668 l 224 0 l 75 0 m 267 869 l 349 1144 l 497 1144 l 342 869 l 267 869 z "},"ŉ":{"ha":696,"x_min":14,"x_max":639,"o":"m 38 839 l 14 903 q 73 947 51 915 q 94 1021 94 978 l 15 1021 l 15 1181 l 168 1181 l 168 1024 q 136 906 168 950 q 38 839 104 863 m 174 0 l 174 803 l 322 803 l 322 724 q 411 788 363 761 q 518 814 460 814 q 615 761 590 814 q 639 650 639 708 l 639 0 l 490 0 l 490 607 q 478 674 490 650 q 426 697 465 697 q 374 683 401 697 q 322 647 347 668 l 322 0 l 174 0 z "},"ň":{"ha":610,"x_min":75,"x_max":540,"o":"m 75 0 l 75 803 l 224 803 l 224 724 q 313 788 264 761 q 419 814 361 814 q 516 761 492 814 q 540 650 540 708 l 540 0 l 392 0 l 392 607 q 379 674 392 650 q 328 697 367 697 q 276 683 303 697 q 224 647 249 668 l 224 0 l 75 0 m 232 885 l 111 1125 l 225 1125 l 306 963 l 386 1125 l 500 1125 l 378 885 l 232 885 z "},"ņ":{"ha":610,"x_min":75,"x_max":540,"o":"m 75 0 l 75 803 l 224 803 l 224 724 q 313 788 264 761 q 419 814 361 814 q 516 761 492 814 q 540 650 540 708 l 540 0 l 392 0 l 392 607 q 379 674 392 650 q 328 697 367 697 q 276 683 303 697 q 224 647 249 668 l 224 0 l 75 0 m 267 -399 l 229 -325 q 290 -301 272 -322 q 307 -239 307 -279 l 231 -239 l 231 -87 l 382 -87 l 381 -231 q 359 -350 379 -304 q 267 -399 339 -396 z "},"ŋ":{"ha":539,"x_min":61,"x_max":526,"o":"m 214 -256 l 214 -143 q 347 -109 317 -143 q 378 -7 378 -75 l 378 607 q 365 674 378 650 q 314 697 353 697 q 262 683 289 697 q 210 647 235 668 l 210 0 l 61 0 l 61 803 l 210 803 l 210 724 q 299 788 250 761 q 407 814 347 814 q 502 761 478 814 q 526 650 526 708 l 526 -8 q 452 -194 526 -132 q 258 -256 378 -256 l 214 -256 z "},"ǌ":{"ha":929,"x_min":75,"x_max":856,"o":"m 75 0 l 75 803 l 224 803 l 224 724 q 313 788 264 761 q 419 814 361 814 q 516 761 492 814 q 540 650 540 708 l 540 0 l 392 0 l 392 607 q 379 674 392 650 q 328 697 367 697 q 276 683 303 697 q 224 647 249 668 l 224 0 l 75 0 m 660 -203 q 619 -201 640 -203 q 583 -193 599 -200 l 583 -86 q 603 -89 590 -87 q 622 -90 615 -90 q 688 -63 671 -90 q 706 7 706 -36 l 706 803 l 854 803 l 854 -8 q 802 -153 854 -103 q 660 -203 750 -203 m 706 922 l 706 1078 l 856 1078 l 856 922 l 706 922 z "},"ñ":{"ha":610,"x_min":75,"x_max":540,"o":"m 75 0 l 75 803 l 224 803 l 224 724 q 313 788 264 761 q 419 814 361 814 q 516 761 492 814 q 540 650 540 708 l 540 0 l 392 0 l 392 607 q 379 674 392 650 q 328 697 367 697 q 276 683 303 697 q 224 647 249 668 l 224 0 l 75 0 m 411 972 q 313 1006 353 972 q 229 1040 274 1040 q 194 1027 206 1040 q 182 983 182 1014 l 97 983 q 121 1090 97 1046 q 208 1133 144 1133 q 301 1100 261 1133 q 385 1067 340 1067 q 419 1079 408 1067 q 431 1125 431 1092 l 514 1125 q 493 1017 514 1063 q 411 972 472 972 z "},"o":{"ha":589,"x_min":60,"x_max":528,"o":"m 294 -11 q 110 69 160 -11 q 60 285 60 150 l 60 518 q 110 733 60 653 q 294 814 160 814 q 478 733 428 814 q 528 518 528 653 l 528 285 q 478 69 528 150 q 294 -11 428 -11 m 294 99 q 369 153 358 99 q 379 275 379 207 l 379 526 q 369 649 379 594 q 294 704 358 704 q 219 649 231 704 q 208 526 208 594 l 208 275 q 219 153 208 207 q 294 99 231 99 z "},"ó":{"ha":589,"x_min":60,"x_max":528,"o":"m 294 -11 q 110 69 160 -11 q 60 285 60 150 l 60 518 q 110 733 60 653 q 294 814 160 814 q 478 733 428 814 q 528 518 528 653 l 528 285 q 478 69 528 150 q 294 -11 428 -11 m 294 99 q 369 153 358 99 q 379 275 379 207 l 379 526 q 369 649 379 594 q 294 704 358 704 q 219 649 231 704 q 208 526 208 594 l 208 275 q 219 153 208 207 q 294 99 231 99 m 256 869 l 338 1144 l 486 1144 l 331 869 l 256 869 z "},"ŏ":{"ha":589,"x_min":60,"x_max":528,"o":"m 294 -11 q 110 69 160 -11 q 60 285 60 150 l 60 518 q 110 733 60 653 q 294 814 160 814 q 478 733 428 814 q 528 518 528 653 l 528 285 q 478 69 528 150 q 294 -11 428 -11 m 294 99 q 369 153 358 99 q 379 275 379 207 l 379 526 q 369 649 379 594 q 294 704 358 704 q 219 649 231 704 q 208 526 208 594 l 208 275 q 219 153 208 207 q 294 99 231 99 m 294 890 q 153 944 194 890 q 113 1079 113 999 l 199 1079 q 222 1002 200 1029 q 294 975 243 975 q 368 1003 346 975 q 390 1079 390 1031 l 478 1079 q 437 944 478 999 q 294 890 396 890 z "},"ô":{"ha":589,"x_min":60,"x_max":528,"o":"m 294 -11 q 110 69 160 -11 q 60 285 60 150 l 60 518 q 110 733 60 653 q 294 814 160 814 q 478 733 428 814 q 528 518 528 653 l 528 285 q 478 69 528 150 q 294 -11 428 -11 m 294 99 q 369 153 358 99 q 379 275 379 207 l 379 526 q 369 649 379 594 q 294 704 358 704 q 219 649 231 704 q 208 526 208 594 l 208 275 q 219 153 208 207 q 294 99 231 99 m 99 882 l 218 1125 l 369 1125 l 490 882 l 378 882 l 293 1050 l 210 882 l 99 882 z "},"ố":{"ha":589,"x_min":60,"x_max":674,"o":"m 294 -11 q 110 69 160 -11 q 60 285 60 150 l 60 518 q 110 733 60 653 q 294 814 160 814 q 478 733 428 814 q 528 518 528 653 l 528 285 q 478 69 528 150 q 294 -11 428 -11 m 294 99 q 369 153 358 99 q 379 275 379 207 l 379 526 q 369 649 379 594 q 294 704 358 704 q 219 649 231 704 q 208 526 208 594 l 208 275 q 219 153 208 207 q 294 99 231 99 m 99 882 l 218 1097 l 369 1097 l 490 882 l 378 882 l 293 1022 l 210 882 l 99 882 m 471 1026 l 544 1186 l 674 1186 l 563 1026 l 471 1026 z "},"ộ":{"ha":589,"x_min":60,"x_max":528,"o":"m 294 -11 q 110 69 160 -11 q 60 285 60 150 l 60 518 q 110 733 60 653 q 294 814 160 814 q 478 733 428 814 q 528 518 528 653 l 528 285 q 478 69 528 150 q 294 -11 428 -11 m 294 99 q 369 153 358 99 q 379 275 379 207 l 379 526 q 369 649 379 594 q 294 704 358 704 q 219 649 231 704 q 208 526 208 594 l 208 275 q 219 153 208 207 q 294 99 231 99 m 219 -244 l 219 -87 l 369 -87 l 369 -244 l 219 -244 m 99 882 l 218 1097 l 369 1097 l 490 882 l 378 882 l 293 1022 l 210 882 l 99 882 z "},"ồ":{"ha":589,"x_min":60,"x_max":597,"o":"m 294 -11 q 110 69 160 -11 q 60 285 60 150 l 60 518 q 110 733 60 653 q 294 814 160 814 q 478 733 428 814 q 528 518 528 653 l 528 285 q 478 69 528 150 q 294 -11 428 -11 m 294 99 q 369 153 358 99 q 379 275 379 207 l 379 526 q 369 649 379 594 q 294 704 358 704 q 219 649 231 704 q 208 526 208 594 l 208 275 q 219 153 208 207 q 294 99 231 99 m 99 882 l 218 1097 l 369 1097 l 490 882 l 378 882 l 293 1022 l 210 882 l 99 882 m 506 1026 l 394 1186 l 524 1186 l 597 1026 l 506 1026 z "},"ổ":{"ha":589,"x_min":60,"x_max":635,"o":"m 294 -11 q 110 69 160 -11 q 60 285 60 150 l 60 518 q 110 733 60 653 q 294 814 160 814 q 478 733 428 814 q 528 518 528 653 l 528 285 q 478 69 528 150 q 294 -11 428 -11 m 294 99 q 369 153 358 99 q 379 275 379 207 l 379 526 q 369 649 379 594 q 294 704 358 704 q 219 649 231 704 q 208 526 208 594 l 208 275 q 219 153 208 207 q 294 99 231 99 m 504 996 l 457 1051 q 506 1088 488 1069 q 524 1132 524 1106 q 503 1174 524 1161 q 456 1186 483 1186 q 424 1184 442 1186 q 392 1176 407 1182 l 392 1251 q 493 1265 439 1265 q 594 1236 553 1265 q 635 1144 635 1207 q 598 1051 635 1083 q 504 996 561 1019 m 99 882 l 218 1097 l 369 1097 l 490 882 l 378 882 l 293 1022 l 210 882 l 99 882 z "},"ỗ":{"ha":589,"x_min":60,"x_max":528,"o":"m 294 -11 q 110 69 160 -11 q 60 285 60 150 l 60 518 q 110 733 60 653 q 294 814 160 814 q 478 733 428 814 q 528 518 528 653 l 528 285 q 478 69 528 150 q 294 -11 428 -11 m 294 99 q 369 153 358 99 q 379 275 379 207 l 379 526 q 369 649 379 594 q 294 704 358 704 q 219 649 231 704 q 208 526 208 594 l 208 275 q 219 153 208 207 q 294 99 231 99 z "},"ȍ":{"ha":589,"x_min":21,"x_max":528,"o":"m 294 -11 q 110 69 160 -11 q 60 285 60 150 l 60 518 q 110 733 60 653 q 294 814 160 814 q 478 733 428 814 q 528 518 528 653 l 528 285 q 478 69 528 150 q 294 -11 428 -11 m 294 99 q 369 153 358 99 q 379 275 379 207 l 379 526 q 369 649 379 594 q 294 704 358 704 q 219 649 231 704 q 208 526 208 594 l 208 275 q 219 153 208 207 q 294 99 231 99 m 176 889 l 21 1125 l 171 1125 l 251 889 l 176 889 m 354 889 l 251 1125 l 374 1125 l 429 889 l 354 889 z "},"ö":{"ha":589,"x_min":60,"x_max":528,"o":"m 294 -11 q 110 69 160 -11 q 60 285 60 150 l 60 518 q 110 733 60 653 q 294 814 160 814 q 478 733 428 814 q 528 518 528 653 l 528 285 q 478 69 528 150 q 294 -11 428 -11 m 294 99 q 369 153 358 99 q 379 275 379 207 l 379 526 q 369 649 379 594 q 294 704 358 704 q 219 649 231 704 q 208 526 208 594 l 208 275 q 219 153 208 207 q 294 99 231 99 m 339 971 l 339 1125 l 489 1125 l 489 971 l 339 971 m 100 971 l 100 1125 l 250 1125 l 250 971 l 100 971 z "},"ȫ":{"ha":589,"x_min":60,"x_max":528,"o":"m 294 -11 q 110 69 160 -11 q 60 285 60 150 l 60 518 q 110 733 60 653 q 294 814 160 814 q 478 733 428 814 q 528 518 528 653 l 528 285 q 478 69 528 150 q 294 -11 428 -11 m 294 99 q 369 153 358 99 q 379 275 379 207 l 379 526 q 369 649 379 594 q 294 704 358 704 q 219 649 231 704 q 208 526 208 594 l 208 275 q 219 153 208 207 q 294 99 231 99 m 339 971 l 339 1125 l 489 1125 l 489 971 l 339 971 m 100 971 l 100 1125 l 250 1125 l 250 971 l 100 971 m 161 1274 l 161 1364 l 428 1364 l 428 1274 l 161 1274 z "},"ȱ":{"ha":589,"x_min":60,"x_max":528,"o":"m 294 -11 q 110 69 160 -11 q 60 285 60 150 l 60 518 q 110 733 60 653 q 294 814 160 814 q 478 733 428 814 q 528 518 528 653 l 528 285 q 478 69 528 150 q 294 -11 428 -11 m 294 99 q 369 153 358 99 q 379 275 379 207 l 379 526 q 369 649 379 594 q 294 704 358 704 q 219 649 231 704 q 208 526 208 594 l 208 275 q 219 153 208 207 q 294 99 231 99 m 219 932 l 219 1097 l 369 1097 l 369 932 l 219 932 m 161 1246 l 161 1336 l 428 1336 l 428 1246 l 161 1246 z "},"ọ":{"ha":589,"x_min":60,"x_max":528,"o":"m 294 -11 q 110 69 160 -11 q 60 285 60 150 l 60 518 q 110 733 60 653 q 294 814 160 814 q 478 733 428 814 q 528 518 528 653 l 528 285 q 478 69 528 150 q 294 -11 428 -11 m 294 99 q 369 153 358 99 q 379 275 379 207 l 379 526 q 369 649 379 594 q 294 704 358 704 q 219 649 231 704 q 208 526 208 594 l 208 275 q 219 153 208 207 q 294 99 231 99 m 219 -244 l 219 -87 l 369 -87 l 369 -244 l 219 -244 z "},"ò":{"ha":589,"x_min":60,"x_max":528,"o":"m 294 -11 q 110 69 160 -11 q 60 285 60 150 l 60 518 q 110 733 60 653 q 294 814 160 814 q 478 733 428 814 q 528 518 528 653 l 528 285 q 478 69 528 150 q 294 -11 428 -11 m 294 99 q 369 153 358 99 q 379 275 379 207 l 379 526 q 369 649 379 594 q 294 704 358 704 q 219 649 231 704 q 208 526 208 594 l 208 275 q 219 153 208 207 q 294 99 231 99 m 260 869 l 106 1144 l 254 1144 l 333 869 l 260 869 z "},"ỏ":{"ha":589,"x_min":60,"x_max":528,"o":"m 294 -11 q 110 69 160 -11 q 60 285 60 150 l 60 518 q 110 733 60 653 q 294 814 160 814 q 478 733 428 814 q 528 518 528 653 l 528 285 q 478 69 528 150 q 294 -11 428 -11 m 294 99 q 369 153 358 99 q 379 275 379 207 l 379 526 q 369 649 379 594 q 294 704 358 704 q 219 649 231 704 q 208 526 208 594 l 208 275 q 219 153 208 207 q 294 99 231 99 m 296 883 l 249 939 q 314 974 289 957 q 339 1019 339 992 q 314 1061 339 1049 q 254 1074 289 1074 q 183 1064 217 1074 l 183 1139 q 296 1153 238 1153 q 406 1124 361 1153 q 450 1032 450 1094 q 406 938 450 971 q 296 883 363 906 z "},"ơ":{"ha":589,"x_min":60,"x_max":528,"o":"m 294 -11 q 110 69 160 -11 q 60 285 60 150 l 60 518 q 110 733 60 653 q 294 814 160 814 q 478 733 428 814 q 528 518 528 653 l 528 285 q 478 69 528 150 q 294 -11 428 -11 m 294 99 q 369 153 358 99 q 379 275 379 207 l 379 526 q 369 649 379 594 q 294 704 358 704 q 219 649 231 704 q 208 526 208 594 l 208 275 q 219 153 208 207 q 294 99 231 99 m 324 725 l 324 803 l 338 803 q 413 906 413 803 l 528 906 q 479 770 528 815 q 340 725 431 725 l 324 725 z "},"ớ":{"ha":589,"x_min":60,"x_max":528,"o":"m 294 -11 q 110 69 160 -11 q 60 285 60 150 l 60 518 q 110 733 60 653 q 294 814 160 814 q 478 733 428 814 q 528 518 528 653 l 528 285 q 478 69 528 150 q 294 -11 428 -11 m 294 99 q 369 153 358 99 q 379 275 379 207 l 379 526 q 369 649 379 594 q 294 704 358 704 q 219 649 231 704 q 208 526 208 594 l 208 275 q 219 153 208 207 q 294 99 231 99 m 324 725 l 324 803 l 338 803 q 413 906 413 803 l 528 906 q 479 770 528 815 q 340 725 431 725 l 324 725 m 256 869 l 338 1144 l 486 1144 l 331 869 l 256 869 z "},"ợ":{"ha":589,"x_min":60,"x_max":528,"o":"m 294 -11 q 110 69 160 -11 q 60 285 60 150 l 60 518 q 110 733 60 653 q 294 814 160 814 q 478 733 428 814 q 528 518 528 653 l 528 285 q 478 69 528 150 q 294 -11 428 -11 m 294 99 q 369 153 358 99 q 379 275 379 207 l 379 526 q 369 649 379 594 q 294 704 358 704 q 219 649 231 704 q 208 526 208 594 l 208 275 q 219 153 208 207 q 294 99 231 99 m 324 725 l 324 803 l 338 803 q 413 906 413 803 l 528 906 q 479 770 528 815 q 340 725 431 725 l 324 725 m 219 -244 l 219 -87 l 369 -87 l 369 -244 l 219 -244 z "},"ờ":{"ha":589,"x_min":60,"x_max":528,"o":"m 294 -11 q 110 69 160 -11 q 60 285 60 150 l 60 518 q 110 733 60 653 q 294 814 160 814 q 478 733 428 814 q 528 518 528 653 l 528 285 q 478 69 528 150 q 294 -11 428 -11 m 294 99 q 369 153 358 99 q 379 275 379 207 l 379 526 q 369 649 379 594 q 294 704 358 704 q 219 649 231 704 q 208 526 208 594 l 208 275 q 219 153 208 207 q 294 99 231 99 m 324 725 l 324 803 l 338 803 q 413 906 413 803 l 528 906 q 479 770 528 815 q 340 725 431 725 l 324 725 m 260 869 l 106 1144 l 254 1144 l 333 869 l 260 869 z "},"ở":{"ha":589,"x_min":60,"x_max":528,"o":"m 294 -11 q 110 69 160 -11 q 60 285 60 150 l 60 518 q 110 733 60 653 q 294 814 160 814 q 478 733 428 814 q 528 518 528 653 l 528 285 q 478 69 528 150 q 294 -11 428 -11 m 294 99 q 369 153 358 99 q 379 275 379 207 l 379 526 q 369 649 379 594 q 294 704 358 704 q 219 649 231 704 q 208 526 208 594 l 208 275 q 219 153 208 207 q 294 99 231 99 m 324 725 l 324 803 l 338 803 q 413 906 413 803 l 528 906 q 479 770 528 815 q 340 725 431 725 l 324 725 m 296 883 l 249 939 q 314 974 289 957 q 339 1019 339 992 q 314 1061 339 1049 q 254 1074 289 1074 q 183 1064 217 1074 l 183 1139 q 296 1153 238 1153 q 406 1124 361 1153 q 450 1032 450 1094 q 406 938 450 971 q 296 883 363 906 z "},"ỡ":{"ha":589,"x_min":60,"x_max":528,"o":"m 294 -11 q 110 69 160 -11 q 60 285 60 150 l 60 518 q 110 733 60 653 q 294 814 160 814 q 478 733 428 814 q 528 518 528 653 l 528 285 q 478 69 528 150 q 294 -11 428 -11 m 294 99 q 369 153 358 99 q 379 275 379 207 l 379 526 q 369 649 379 594 q 294 704 358 704 q 219 649 231 704 q 208 526 208 594 l 208 275 q 219 153 208 207 q 294 99 231 99 m 324 725 l 324 803 l 338 803 q 413 906 413 803 l 528 906 q 479 770 528 815 q 340 725 431 725 l 324 725 m 400 972 q 302 1006 342 972 q 218 1040 263 1040 q 183 1027 194 1040 q 171 983 171 1014 l 86 983 q 110 1090 86 1046 q 197 1133 133 1133 q 290 1100 250 1133 q 374 1067 329 1067 q 408 1079 397 1067 q 419 1125 419 1092 l 503 1125 q 482 1017 503 1063 q 400 972 461 972 z "},"ő":{"ha":589,"x_min":60,"x_max":581,"o":"m 294 -11 q 110 69 160 -11 q 60 285 60 150 l 60 518 q 110 733 60 653 q 294 814 160 814 q 478 733 428 814 q 528 518 528 653 l 528 285 q 478 69 528 150 q 294 -11 428 -11 m 294 99 q 369 153 358 99 q 379 275 379 207 l 379 526 q 369 649 379 594 q 294 704 358 704 q 219 649 231 704 q 208 526 208 594 l 208 275 q 219 153 208 207 q 294 99 231 99 m 350 889 l 431 1126 l 581 1126 l 426 889 l 350 889 m 175 889 l 229 1126 l 351 1126 l 250 889 l 175 889 z "},"ȏ":{"ha":589,"x_min":60,"x_max":528,"o":"m 294 -11 q 110 69 160 -11 q 60 285 60 150 l 60 518 q 110 733 60 653 q 294 814 160 814 q 478 733 428 814 q 528 518 528 653 l 528 285 q 478 69 528 150 q 294 -11 428 -11 m 294 99 q 369 153 358 99 q 379 275 379 207 l 379 526 q 369 649 379 594 q 294 704 358 704 q 219 649 231 704 q 208 526 208 594 l 208 275 q 219 153 208 207 q 294 99 231 99 m 111 918 q 148 1065 113 1006 q 294 1125 183 1125 q 442 1065 406 1125 q 478 918 478 1006 l 390 918 q 369 1013 390 985 q 294 1040 347 1040 q 222 1012 243 1040 q 199 918 200 983 l 111 918 z "},"ō":{"ha":589,"x_min":60,"x_max":528,"o":"m 294 -11 q 110 69 160 -11 q 60 285 60 150 l 60 518 q 110 733 60 653 q 294 814 160 814 q 478 733 428 814 q 528 518 528 653 l 528 285 q 478 69 528 150 q 294 -11 428 -11 m 294 99 q 369 153 358 99 q 379 275 379 207 l 379 526 q 369 649 379 594 q 294 704 358 704 q 219 649 231 704 q 208 526 208 594 l 208 275 q 219 153 208 207 q 294 99 231 99 m 161 951 l 161 1042 l 428 1042 l 428 951 l 161 951 z "},"ǫ":{"ha":589,"x_min":60,"x_max":528,"o":"m 294 -11 q 110 69 160 -11 q 60 285 60 150 l 60 518 q 110 733 60 653 q 294 814 160 814 q 478 733 428 814 q 528 518 528 653 l 528 285 q 478 69 528 150 q 294 -11 428 -11 m 294 99 q 369 153 358 99 q 379 275 379 207 l 379 526 q 369 649 379 594 q 294 704 358 704 q 219 649 231 704 q 208 526 208 594 l 208 275 q 219 153 208 207 q 294 99 231 99 m 367 -310 q 272 -301 317 -310 q 201 -267 228 -293 q 174 -190 174 -242 q 224 -64 174 -122 q 328 11 274 -6 l 403 11 q 325 -72 364 -22 q 286 -168 286 -121 q 322 -223 286 -211 q 397 -235 358 -235 q 442 -232 417 -235 l 417 -306 q 367 -310 394 -310 z "},"ø":{"ha":589,"x_min":60,"x_max":528,"o":"m 133 -132 l 89 -117 l 458 928 l 510 911 l 133 -132 m 294 -11 q 110 69 160 -11 q 60 285 60 150 l 60 518 q 110 733 60 653 q 294 814 160 814 q 478 733 428 814 q 528 518 528 653 l 528 285 q 478 69 528 150 q 294 -11 428 -11 m 294 99 q 369 153 358 99 q 379 275 379 207 l 379 526 q 369 649 379 594 q 294 704 358 704 q 219 649 231 704 q 208 526 208 594 l 208 275 q 219 153 208 207 q 294 99 231 99 z "},"ǿ":{"ha":589,"x_min":60,"x_max":528,"o":"m 133 -132 l 89 -117 l 458 928 l 510 911 l 133 -132 m 294 -11 q 110 69 160 -11 q 60 285 60 150 l 60 518 q 110 733 60 653 q 294 814 160 814 q 478 733 428 814 q 528 518 528 653 l 528 285 q 478 69 528 150 q 294 -11 428 -11 m 294 99 q 369 153 358 99 q 379 275 379 207 l 379 526 q 369 649 379 594 q 294 704 358 704 q 219 649 231 704 q 208 526 208 594 l 208 275 q 219 153 208 207 q 294 99 231 99 m 256 869 l 338 1144 l 486 1144 l 331 869 l 256 869 z "},"õ":{"ha":589,"x_min":60,"x_max":528,"o":"m 294 -11 q 110 69 160 -11 q 60 285 60 150 l 60 518 q 110 733 60 653 q 294 814 160 814 q 478 733 428 814 q 528 518 528 653 l 528 285 q 478 69 528 150 q 294 -11 428 -11 m 294 99 q 369 153 358 99 q 379 275 379 207 l 379 526 q 369 649 379 594 q 294 704 358 704 q 219 649 231 704 q 208 526 208 594 l 208 275 q 219 153 208 207 q 294 99 231 99 m 400 972 q 302 1006 342 972 q 218 1040 263 1040 q 183 1027 194 1040 q 171 983 171 1014 l 86 983 q 110 1090 86 1046 q 197 1133 133 1133 q 290 1100 250 1133 q 374 1067 329 1067 q 408 1079 397 1067 q 419 1125 419 1092 l 503 1125 q 482 1017 503 1063 q 400 972 461 972 z "},"ȭ":{"ha":589,"x_min":60,"x_max":528,"o":"m 294 -11 q 110 69 160 -11 q 60 285 60 150 l 60 518 q 110 733 60 653 q 294 814 160 814 q 478 733 428 814 q 528 518 528 653 l 528 285 q 478 69 528 150 q 294 -11 428 -11 m 294 99 q 369 153 358 99 q 379 275 379 207 l 379 526 q 369 649 379 594 q 294 704 358 704 q 219 649 231 704 q 208 526 208 594 l 208 275 q 219 153 208 207 q 294 99 231 99 m 400 972 q 302 1006 342 972 q 218 1040 263 1040 q 183 1027 194 1040 q 171 983 171 1014 l 86 983 q 110 1090 86 1046 q 197 1133 133 1133 q 290 1100 250 1133 q 374 1067 329 1067 q 408 1079 397 1067 q 419 1125 419 1092 l 503 1125 q 482 1017 503 1063 q 400 972 461 972 m 161 1282 l 161 1372 l 428 1372 l 428 1282 l 161 1282 z "},"œ":{"ha":951,"x_min":79,"x_max":872,"o":"m 314 -11 q 130 68 181 -11 q 79 282 79 147 l 79 521 q 128 735 79 656 q 307 814 178 814 q 414 788 374 814 q 476 719 454 761 q 546 789 499 764 q 658 814 593 814 q 833 725 793 814 q 872 472 872 636 l 872 404 l 550 404 l 550 354 q 560 194 550 275 q 638 111 569 114 q 703 133 683 108 q 724 225 724 158 l 724 279 l 872 279 l 872 226 q 816 44 872 103 q 638 -11 760 -15 q 536 17 576 -8 q 476 86 496 42 q 417 15 457 42 q 314 -11 378 -11 m 314 111 q 390 163 378 111 q 401 282 401 215 l 401 521 q 390 640 401 588 q 314 693 378 693 q 239 640 250 693 q 228 521 228 588 l 228 282 q 239 163 228 215 q 314 111 250 111 m 550 479 l 724 479 l 724 522 q 711 639 724 585 q 638 693 699 693 q 565 640 579 693 q 550 522 550 588 l 550 479 z "},"p":{"ha":619,"x_min":75,"x_max":560,"o":"m 75 -264 l 75 803 l 224 803 l 224 739 q 288 792 250 769 q 376 814 325 814 q 499 758 461 814 q 549 632 538 703 q 560 513 560 561 l 560 318 q 519 90 560 190 q 360 -11 478 -11 q 283 10 317 -11 q 224 60 250 32 l 224 -264 l 75 -264 m 331 106 q 399 167 388 106 q 411 318 411 229 l 411 513 q 397 642 411 588 q 325 697 382 697 q 269 685 296 697 q 224 656 243 672 l 224 142 q 271 116 244 126 q 331 106 297 106 z "},"ṗ":{"ha":619,"x_min":75,"x_max":560,"o":"m 75 -264 l 75 803 l 224 803 l 224 739 q 288 792 250 769 q 376 814 325 814 q 499 758 461 814 q 549 632 538 703 q 560 513 560 561 l 560 318 q 519 90 560 190 q 360 -11 478 -11 q 283 10 317 -11 q 224 60 250 32 l 224 -264 l 75 -264 m 331 106 q 399 167 388 106 q 411 318 411 229 l 411 513 q 397 642 411 588 q 325 697 382 697 q 269 685 296 697 q 224 656 243 672 l 224 142 q 271 116 244 126 q 331 106 297 106 m 235 932 l 235 1097 l 385 1097 l 385 932 l 235 932 z "},"þ":{"ha":621,"x_min":76,"x_max":561,"o":"m 76 -264 l 76 1125 l 225 1125 l 225 739 q 288 792 251 769 q 378 814 325 814 q 500 758 461 814 q 550 632 539 703 q 561 513 561 561 l 561 318 q 521 90 561 190 q 361 -11 481 -11 q 285 10 318 -11 q 225 60 251 32 l 225 -264 l 76 -264 m 332 106 q 401 167 389 106 q 413 318 413 229 l 413 513 q 398 642 413 588 q 325 697 383 697 q 270 685 296 697 q 225 656 244 672 l 225 142 q 272 116 246 126 q 332 106 299 106 z "},"q":{"ha":615,"x_min":61,"x_max":540,"o":"m 392 -264 l 392 51 q 334 6 365 24 q 263 -11 303 -11 q 111 63 161 -12 q 61 315 61 138 l 61 471 q 99 711 61 608 q 258 814 136 814 q 332 796 299 814 q 392 751 365 778 l 392 803 l 540 803 l 540 -264 l 392 -264 m 300 106 q 345 113 321 106 q 392 136 369 121 l 392 663 q 349 687 372 676 q 297 697 325 697 q 227 647 244 697 q 210 529 210 597 l 210 303 q 225 162 210 218 q 300 106 240 106 z "},"r":{"ha":446,"x_min":79,"x_max":429,"o":"m 79 0 l 79 803 l 228 803 l 228 689 q 317 787 272 761 q 406 813 361 813 q 416 813 411 813 q 429 811 421 813 l 429 647 q 391 658 413 653 q 347 664 369 664 q 284 648 313 664 q 228 586 256 632 l 228 0 l 79 0 z "},"ŕ":{"ha":446,"x_min":79,"x_max":447,"o":"m 79 0 l 79 803 l 228 803 l 228 689 q 317 787 272 761 q 406 813 361 813 q 416 813 411 813 q 429 811 421 813 l 429 647 q 391 658 413 653 q 347 664 369 664 q 284 648 313 664 q 228 586 256 632 l 228 0 l 79 0 m 217 869 l 299 1144 l 447 1144 l 292 869 l 217 869 z "},"ř":{"ha":446,"x_min":61,"x_max":450,"o":"m 79 0 l 79 803 l 228 803 l 228 689 q 317 787 272 761 q 406 813 361 813 q 416 813 411 813 q 429 811 421 813 l 429 647 q 391 658 413 653 q 347 664 369 664 q 284 648 313 664 q 228 586 256 632 l 228 0 l 79 0 m 182 885 l 61 1125 l 175 1125 l 256 963 l 336 1125 l 450 1125 l 328 885 l 182 885 z "},"ŗ":{"ha":446,"x_min":78,"x_max":429,"o":"m 79 0 l 79 803 l 228 803 l 228 689 q 317 787 272 761 q 406 813 361 813 q 416 813 411 813 q 429 811 421 813 l 429 647 q 391 658 413 653 q 347 664 369 664 q 284 648 313 664 q 228 586 256 632 l 228 0 l 79 0 m 115 -399 l 78 -325 q 138 -301 121 -322 q 156 -239 156 -279 l 79 -239 l 79 -87 l 231 -87 l 229 -231 q 208 -350 228 -304 q 115 -399 188 -396 z "},"ȑ":{"ha":446,"x_min":-18,"x_max":429,"o":"m 79 0 l 79 803 l 228 803 l 228 689 q 317 787 272 761 q 406 813 361 813 q 416 813 411 813 q 429 811 421 813 l 429 647 q 391 658 413 653 q 347 664 369 664 q 284 648 313 664 q 228 586 256 632 l 228 0 l 79 0 m 138 889 l -18 1125 l 132 1125 l 213 889 l 138 889 m 315 889 l 213 1125 l 335 1125 l 390 889 l 315 889 z "},"ȓ":{"ha":446,"x_min":72,"x_max":439,"o":"m 79 0 l 79 803 l 228 803 l 228 689 q 317 787 272 761 q 406 813 361 813 q 416 813 411 813 q 429 811 421 813 l 429 647 q 391 658 413 653 q 347 664 369 664 q 284 648 313 664 q 228 586 256 632 l 228 0 l 79 0 m 72 918 q 109 1065 74 1006 q 256 1125 144 1125 q 403 1065 367 1125 q 439 918 439 1006 l 351 918 q 330 1013 351 985 q 256 1040 308 1040 q 183 1012 204 1040 q 160 918 161 983 l 72 918 z "},"s":{"ha":519,"x_min":35,"x_max":483,"o":"m 261 -11 q 103 51 163 -11 q 35 214 43 113 l 158 251 q 194 137 168 175 q 267 99 219 99 q 333 124 307 99 q 356 190 358 150 q 338 246 353 217 q 290 303 322 275 l 153 421 q 82 501 111 456 q 54 617 53 546 q 112 763 57 711 q 261 814 167 814 q 408 752 357 814 q 465 603 458 690 l 365 565 q 335 666 357 628 q 267 704 314 704 q 208 680 231 704 q 188 622 186 656 q 197 581 188 600 q 228 542 206 561 l 369 411 q 449 322 414 372 q 483 194 483 272 q 422 40 483 92 q 261 -11 360 -11 z "},"ś":{"ha":519,"x_min":35,"x_max":483,"o":"m 261 -11 q 103 51 163 -11 q 35 214 43 113 l 158 251 q 194 137 168 175 q 267 99 219 99 q 333 124 307 99 q 356 190 358 150 q 338 246 353 217 q 290 303 322 275 l 153 421 q 82 501 111 456 q 54 617 53 546 q 112 763 57 711 q 261 814 167 814 q 408 752 357 814 q 465 603 458 690 l 365 565 q 335 666 357 628 q 267 704 314 704 q 208 680 231 704 q 188 622 186 656 q 197 581 188 600 q 228 542 206 561 l 369 411 q 449 322 414 372 q 483 194 483 272 q 422 40 483 92 q 261 -11 360 -11 m 221 869 l 303 1144 l 451 1144 l 296 869 l 221 869 z "},"š":{"ha":519,"x_min":35,"x_max":483,"o":"m 261 -11 q 103 51 163 -11 q 35 214 43 113 l 158 251 q 194 137 168 175 q 267 99 219 99 q 333 124 307 99 q 356 190 358 150 q 338 246 353 217 q 290 303 322 275 l 153 421 q 82 501 111 456 q 54 617 53 546 q 112 763 57 711 q 261 814 167 814 q 408 752 357 814 q 465 603 458 690 l 365 565 q 335 666 357 628 q 267 704 314 704 q 208 680 231 704 q 188 622 186 656 q 197 581 188 600 q 228 542 206 561 l 369 411 q 449 322 414 372 q 483 194 483 272 q 422 40 483 92 q 261 -11 360 -11 m 186 885 l 65 1125 l 179 1125 l 260 963 l 340 1125 l 454 1125 l 332 885 l 186 885 z "},"ş":{"ha":519,"x_min":35,"x_max":483,"o":"m 261 -11 q 103 51 163 -11 q 35 214 43 113 l 158 251 q 194 137 168 175 q 267 99 219 99 q 333 124 307 99 q 356 190 358 150 q 338 246 353 217 q 290 303 322 275 l 153 421 q 82 501 111 456 q 54 617 53 546 q 112 763 57 711 q 261 814 167 814 q 408 752 357 814 q 465 603 458 690 l 365 565 q 335 666 357 628 q 267 704 314 704 q 208 680 231 704 q 188 622 186 656 q 197 581 188 600 q 228 542 206 561 l 369 411 q 449 322 414 372 q 483 194 483 272 q 422 40 483 92 q 261 -11 360 -11 m 278 -326 q 185 -312 238 -326 l 185 -237 q 256 -247 218 -247 q 315 -235 290 -247 q 340 -193 340 -222 q 310 -140 340 -157 q 222 -115 279 -124 l 222 0 l 297 0 l 297 -78 q 408 -110 365 -78 q 451 -197 451 -142 q 401 -295 451 -264 q 278 -326 351 -326 z "},"ŝ":{"ha":519,"x_min":35,"x_max":483,"o":"m 261 -11 q 103 51 163 -11 q 35 214 43 113 l 158 251 q 194 137 168 175 q 267 99 219 99 q 333 124 307 99 q 356 190 358 150 q 338 246 353 217 q 290 303 322 275 l 153 421 q 82 501 111 456 q 54 617 53 546 q 112 763 57 711 q 261 814 167 814 q 408 752 357 814 q 465 603 458 690 l 365 565 q 335 666 357 628 q 267 704 314 704 q 208 680 231 704 q 188 622 186 656 q 197 581 188 600 q 228 542 206 561 l 369 411 q 449 322 414 372 q 483 194 483 272 q 422 40 483 92 q 261 -11 360 -11 m 64 882 l 183 1125 l 335 1125 l 456 882 l 343 882 l 258 1050 l 175 882 l 64 882 z "},"ș":{"ha":519,"x_min":35,"x_max":483,"o":"m 261 -11 q 103 51 163 -11 q 35 214 43 113 l 158 251 q 194 137 168 175 q 267 99 219 99 q 333 124 307 99 q 356 190 358 150 q 338 246 353 217 q 290 303 322 275 l 153 421 q 82 501 111 456 q 54 617 53 546 q 112 763 57 711 q 261 814 167 814 q 408 752 357 814 q 465 603 458 690 l 365 565 q 335 666 357 628 q 267 704 314 704 q 208 680 231 704 q 188 622 186 656 q 197 581 188 600 q 228 542 206 561 l 369 411 q 449 322 414 372 q 483 194 483 272 q 422 40 483 92 q 261 -11 360 -11 m 221 -399 l 183 -325 q 244 -301 226 -322 q 261 -239 261 -279 l 185 -239 l 185 -87 l 336 -87 l 335 -231 q 313 -350 333 -304 q 221 -399 293 -396 z "},"ṡ":{"ha":519,"x_min":35,"x_max":483,"o":"m 261 -11 q 103 51 163 -11 q 35 214 43 113 l 158 251 q 194 137 168 175 q 267 99 219 99 q 333 124 307 99 q 356 190 358 150 q 338 246 353 217 q 290 303 322 275 l 153 421 q 82 501 111 456 q 54 617 53 546 q 112 763 57 711 q 261 814 167 814 q 408 752 357 814 q 465 603 458 690 l 365 565 q 335 666 357 628 q 267 704 314 704 q 208 680 231 704 q 188 622 186 656 q 197 581 188 600 q 228 542 206 561 l 369 411 q 449 322 414 372 q 483 194 483 272 q 422 40 483 92 q 261 -11 360 -11 m 185 932 l 185 1097 l 335 1097 l 335 932 l 185 932 z "},"ß":{"ha":715,"x_min":82,"x_max":638,"o":"m 310 -12 l 310 111 q 424 136 385 111 q 476 208 463 161 q 490 322 490 256 q 449 465 490 410 q 319 521 408 521 l 321 644 q 423 708 396 644 q 450 849 450 772 q 429 968 450 921 q 339 1015 408 1015 q 252 972 274 1015 q 231 851 231 928 l 231 0 l 82 0 l 82 850 q 110 1002 82 938 q 194 1102 139 1067 q 335 1138 250 1138 q 531 1063 467 1138 q 596 849 596 989 q 561 690 596 750 q 458 594 526 631 q 591 500 544 572 q 638 322 638 428 q 604 142 638 217 q 499 27 571 67 q 310 -12 426 -12 z "},"t":{"ha":428,"x_min":31,"x_max":393,"o":"m 289 -11 q 188 11 225 -11 q 133 76 150 33 q 115 181 117 119 l 115 704 l 31 704 l 31 803 l 115 803 l 115 1038 l 264 1038 l 264 803 l 393 803 l 393 704 l 264 704 l 264 190 q 279 123 264 143 q 338 103 294 103 q 363 104 347 103 q 392 107 378 106 l 392 -3 q 340 -9 364 -7 q 289 -11 317 -11 z "},"ŧ":{"ha":339,"x_min":31,"x_max":403,"o":"m 36 472 l 36 549 l 403 549 l 403 472 l 36 472 m 289 -11 q 188 11 225 -11 q 133 76 150 33 q 115 181 117 119 l 115 704 l 31 704 l 31 803 l 115 803 l 115 1038 l 264 1038 l 264 803 l 393 803 l 393 704 l 264 704 l 264 190 q 279 123 264 143 q 338 103 294 103 q 363 104 347 103 q 392 107 378 106 l 392 -3 q 340 -9 364 -7 q 289 -11 317 -11 z "},"ť":{"ha":460,"x_min":31,"x_max":476,"o":"m 289 -11 q 188 11 225 -11 q 133 76 150 33 q 115 181 117 119 l 115 704 l 31 704 l 31 803 l 115 803 l 115 1038 l 264 1038 l 264 803 l 393 803 l 393 704 l 264 704 l 264 190 q 279 123 264 143 q 338 103 294 103 q 363 104 347 103 q 392 107 378 106 l 392 -3 q 340 -9 364 -7 q 289 -11 317 -11 m 346 860 l 322 924 q 381 967 360 936 q 403 1042 403 999 l 324 1042 l 324 1201 l 476 1201 l 476 1044 q 444 927 476 971 q 346 860 413 883 z "},"ţ":{"ha":428,"x_min":31,"x_max":481,"o":"m 289 -11 q 188 11 225 -11 q 133 76 150 33 q 115 181 117 119 l 115 704 l 31 704 l 31 803 l 115 803 l 115 1038 l 264 1038 l 264 803 l 393 803 l 393 704 l 264 704 l 264 190 q 279 123 264 143 q 338 103 294 103 q 363 104 347 103 q 392 107 378 106 l 392 -3 q 340 -9 364 -7 q 289 -11 317 -11 m 307 -326 q 214 -312 267 -326 l 214 -237 q 285 -247 247 -247 q 344 -235 319 -247 q 369 -193 369 -222 q 339 -140 369 -157 q 251 -115 308 -124 l 251 0 l 326 0 l 326 -78 q 438 -110 394 -78 q 481 -197 481 -142 q 431 -295 481 -264 q 307 -326 381 -326 z "},"ț":{"ha":428,"x_min":31,"x_max":393,"o":"m 289 -11 q 188 11 225 -11 q 133 76 150 33 q 115 181 117 119 l 115 704 l 31 704 l 31 803 l 115 803 l 115 1038 l 264 1038 l 264 803 l 393 803 l 393 704 l 264 704 l 264 190 q 279 123 264 143 q 338 103 294 103 q 363 104 347 103 q 392 107 378 106 l 392 -3 q 340 -9 364 -7 q 289 -11 317 -11 m 250 -399 l 213 -325 q 273 -301 256 -322 q 290 -239 290 -279 l 214 -239 l 214 -87 l 365 -87 l 364 -231 q 342 -350 363 -304 q 250 -399 322 -396 z "},"ṫ":{"ha":428,"x_min":31,"x_max":393,"o":"m 289 -11 q 188 11 225 -11 q 133 76 150 33 q 115 181 117 119 l 115 704 l 31 704 l 31 803 l 115 803 l 115 1038 l 264 1038 l 264 803 l 393 803 l 393 704 l 264 704 l 264 190 q 279 123 264 143 q 338 103 294 103 q 363 104 347 103 q 392 107 378 106 l 392 -3 q 340 -9 364 -7 q 289 -11 317 -11 m 115 1167 l 115 1332 l 265 1332 l 265 1167 l 115 1167 z "},"u":{"ha":611,"x_min":69,"x_max":535,"o":"m 190 -11 q 94 42 118 -11 q 69 153 69 94 l 69 803 l 218 803 l 218 197 q 231 130 218 154 q 282 106 243 106 q 334 120 307 106 q 386 156 361 135 l 386 803 l 535 803 l 535 0 l 386 0 l 386 79 q 298 15 347 42 q 190 -11 249 -11 z "},"ú":{"ha":611,"x_min":69,"x_max":535,"o":"m 190 -11 q 94 42 118 -11 q 69 153 69 94 l 69 803 l 218 803 l 218 197 q 231 130 218 154 q 282 106 243 106 q 334 120 307 106 q 386 156 361 135 l 386 803 l 535 803 l 535 0 l 386 0 l 386 79 q 298 15 347 42 q 190 -11 249 -11 m 267 869 l 349 1144 l 497 1144 l 342 869 l 267 869 z "},"ŭ":{"ha":611,"x_min":69,"x_max":535,"o":"m 190 -11 q 94 42 118 -11 q 69 153 69 94 l 69 803 l 218 803 l 218 197 q 231 130 218 154 q 282 106 243 106 q 334 120 307 106 q 386 156 361 135 l 386 803 l 535 803 l 535 0 l 386 0 l 386 79 q 298 15 347 42 q 190 -11 249 -11 m 306 890 q 165 944 206 890 q 124 1079 124 999 l 210 1079 q 233 1002 211 1029 q 306 975 254 975 q 379 1003 357 975 q 401 1079 401 1031 l 489 1079 q 448 944 489 999 q 306 890 407 890 z "},"û":{"ha":611,"x_min":69,"x_max":535,"o":"m 190 -11 q 94 42 118 -11 q 69 153 69 94 l 69 803 l 218 803 l 218 197 q 231 130 218 154 q 282 106 243 106 q 334 120 307 106 q 386 156 361 135 l 386 803 l 535 803 l 535 0 l 386 0 l 386 79 q 298 15 347 42 q 190 -11 249 -11 m 110 882 l 229 1125 l 381 1125 l 501 882 l 389 882 l 304 1050 l 221 882 l 110 882 z "},"ȕ":{"ha":611,"x_min":32,"x_max":535,"o":"m 190 -11 q 94 42 118 -11 q 69 153 69 94 l 69 803 l 218 803 l 218 197 q 231 130 218 154 q 282 106 243 106 q 334 120 307 106 q 386 156 361 135 l 386 803 l 535 803 l 535 0 l 386 0 l 386 79 q 298 15 347 42 q 190 -11 249 -11 m 188 889 l 32 1125 l 182 1125 l 263 889 l 188 889 m 365 889 l 263 1125 l 385 1125 l 440 889 l 365 889 z "},"ü":{"ha":611,"x_min":69,"x_max":535,"o":"m 190 -11 q 94 42 118 -11 q 69 153 69 94 l 69 803 l 218 803 l 218 197 q 231 130 218 154 q 282 106 243 106 q 334 120 307 106 q 386 156 361 135 l 386 803 l 535 803 l 535 0 l 386 0 l 386 79 q 298 15 347 42 q 190 -11 249 -11 m 350 971 l 350 1125 l 500 1125 l 500 971 l 350 971 m 111 971 l 111 1125 l 261 1125 l 261 971 l 111 971 z "},"ụ":{"ha":611,"x_min":69,"x_max":535,"o":"m 190 -11 q 94 42 118 -11 q 69 153 69 94 l 69 803 l 218 803 l 218 197 q 231 130 218 154 q 282 106 243 106 q 334 120 307 106 q 386 156 361 135 l 386 803 l 535 803 l 535 0 l 386 0 l 386 79 q 298 15 347 42 q 190 -11 249 -11 m 231 -244 l 231 -87 l 381 -87 l 381 -244 l 231 -244 z "},"ù":{"ha":611,"x_min":69,"x_max":535,"o":"m 190 -11 q 94 42 118 -11 q 69 153 69 94 l 69 803 l 218 803 l 218 197 q 231 130 218 154 q 282 106 243 106 q 334 120 307 106 q 386 156 361 135 l 386 803 l 535 803 l 535 0 l 386 0 l 386 79 q 298 15 347 42 q 190 -11 249 -11 m 271 869 l 117 1144 l 265 1144 l 344 869 l 271 869 z "},"ủ":{"ha":611,"x_min":69,"x_max":535,"o":"m 190 -11 q 94 42 118 -11 q 69 153 69 94 l 69 803 l 218 803 l 218 197 q 231 130 218 154 q 282 106 243 106 q 334 120 307 106 q 386 156 361 135 l 386 803 l 535 803 l 535 0 l 386 0 l 386 79 q 298 15 347 42 q 190 -11 249 -11 m 307 883 l 260 939 q 325 974 300 957 q 350 1019 350 992 q 325 1061 350 1049 q 265 1074 300 1074 q 194 1064 228 1074 l 194 1139 q 307 1153 249 1153 q 417 1124 372 1153 q 461 1032 461 1094 q 417 938 461 971 q 307 883 374 906 z "},"ư":{"ha":611,"x_min":69,"x_max":611,"o":"m 190 -11 q 94 42 118 -11 q 69 153 69 94 l 69 803 l 218 803 l 218 197 q 231 130 218 154 q 282 106 243 106 q 334 120 307 106 q 386 156 361 135 l 386 803 l 535 803 l 535 0 l 386 0 l 386 79 q 298 15 347 42 q 190 -11 249 -11 m 407 725 l 407 803 l 421 803 q 496 906 496 803 l 611 906 q 563 770 611 815 q 424 725 514 725 l 407 725 z "},"ứ":{"ha":611,"x_min":69,"x_max":611,"o":"m 190 -11 q 94 42 118 -11 q 69 153 69 94 l 69 803 l 218 803 l 218 197 q 231 130 218 154 q 282 106 243 106 q 334 120 307 106 q 386 156 361 135 l 386 803 l 535 803 l 535 0 l 386 0 l 386 79 q 298 15 347 42 q 190 -11 249 -11 m 407 725 l 407 803 l 421 803 q 496 906 496 803 l 611 906 q 563 770 611 815 q 424 725 514 725 l 407 725 m 267 869 l 349 1144 l 497 1144 l 342 869 l 267 869 z "},"ự":{"ha":611,"x_min":69,"x_max":611,"o":"m 190 -11 q 94 42 118 -11 q 69 153 69 94 l 69 803 l 218 803 l 218 197 q 231 130 218 154 q 282 106 243 106 q 334 120 307 106 q 386 156 361 135 l 386 803 l 535 803 l 535 0 l 386 0 l 386 79 q 298 15 347 42 q 190 -11 249 -11 m 407 725 l 407 803 l 421 803 q 496 906 496 803 l 611 906 q 563 770 611 815 q 424 725 514 725 l 407 725 m 231 -244 l 231 -87 l 381 -87 l 381 -244 l 231 -244 z "},"ừ":{"ha":611,"x_min":69,"x_max":611,"o":"m 190 -11 q 94 42 118 -11 q 69 153 69 94 l 69 803 l 218 803 l 218 197 q 231 130 218 154 q 282 106 243 106 q 334 120 307 106 q 386 156 361 135 l 386 803 l 535 803 l 535 0 l 386 0 l 386 79 q 298 15 347 42 q 190 -11 249 -11 m 407 725 l 407 803 l 421 803 q 496 906 496 803 l 611 906 q 563 770 611 815 q 424 725 514 725 l 407 725 m 271 869 l 117 1144 l 265 1144 l 344 869 l 271 869 z "},"ử":{"ha":611,"x_min":69,"x_max":611,"o":"m 190 -11 q 94 42 118 -11 q 69 153 69 94 l 69 803 l 218 803 l 218 197 q 231 130 218 154 q 282 106 243 106 q 334 120 307 106 q 386 156 361 135 l 386 803 l 535 803 l 535 0 l 386 0 l 386 79 q 298 15 347 42 q 190 -11 249 -11 m 407 725 l 407 803 l 421 803 q 496 906 496 803 l 611 906 q 563 770 611 815 q 424 725 514 725 l 407 725 m 307 883 l 260 939 q 325 974 300 957 q 350 1019 350 992 q 325 1061 350 1049 q 265 1074 300 1074 q 194 1064 228 1074 l 194 1139 q 307 1153 249 1153 q 417 1124 372 1153 q 461 1032 461 1094 q 417 938 461 971 q 307 883 374 906 z "},"ữ":{"ha":611,"x_min":69,"x_max":611,"o":"m 190 -11 q 94 42 118 -11 q 69 153 69 94 l 69 803 l 218 803 l 218 197 q 231 130 218 154 q 282 106 243 106 q 334 120 307 106 q 386 156 361 135 l 386 803 l 535 803 l 535 0 l 386 0 l 386 79 q 298 15 347 42 q 190 -11 249 -11 m 407 725 l 407 803 l 421 803 q 496 906 496 803 l 611 906 q 563 770 611 815 q 424 725 514 725 l 407 725 m 411 972 q 313 1006 353 972 q 229 1040 274 1040 q 194 1027 206 1040 q 182 983 182 1014 l 97 983 q 121 1090 97 1046 q 208 1133 144 1133 q 301 1100 261 1133 q 385 1067 340 1067 q 419 1079 408 1067 q 431 1125 431 1092 l 514 1125 q 493 1017 514 1063 q 411 972 472 972 z "},"ű":{"ha":611,"x_min":69,"x_max":592,"o":"m 190 -11 q 94 42 118 -11 q 69 153 69 94 l 69 803 l 218 803 l 218 197 q 231 130 218 154 q 282 106 243 106 q 334 120 307 106 q 386 156 361 135 l 386 803 l 535 803 l 535 0 l 386 0 l 386 79 q 298 15 347 42 q 190 -11 249 -11 m 361 889 l 442 1126 l 592 1126 l 438 889 l 361 889 m 186 889 l 240 1126 l 363 1126 l 261 889 l 186 889 z "},"ȗ":{"ha":611,"x_min":69,"x_max":535,"o":"m 190 -11 q 94 42 118 -11 q 69 153 69 94 l 69 803 l 218 803 l 218 197 q 231 130 218 154 q 282 106 243 106 q 334 120 307 106 q 386 156 361 135 l 386 803 l 535 803 l 535 0 l 386 0 l 386 79 q 298 15 347 42 q 190 -11 249 -11 m 122 918 q 159 1065 124 1006 q 306 1125 194 1125 q 453 1065 417 1125 q 489 918 489 1006 l 401 918 q 380 1013 401 985 q 306 1040 358 1040 q 233 1012 254 1040 q 210 918 211 983 l 122 918 z "},"ū":{"ha":611,"x_min":69,"x_max":535,"o":"m 190 -11 q 94 42 118 -11 q 69 153 69 94 l 69 803 l 218 803 l 218 197 q 231 130 218 154 q 282 106 243 106 q 334 120 307 106 q 386 156 361 135 l 386 803 l 535 803 l 535 0 l 386 0 l 386 79 q 298 15 347 42 q 190 -11 249 -11 m 172 951 l 172 1042 l 439 1042 l 439 951 l 172 951 z "},"ų":{"ha":611,"x_min":69,"x_max":539,"o":"m 190 -11 q 94 42 118 -11 q 69 153 69 94 l 69 803 l 218 803 l 218 197 q 231 130 218 154 q 282 106 243 106 q 334 120 307 106 q 386 156 361 135 l 386 803 l 535 803 l 535 0 l 386 0 l 386 79 q 298 15 347 42 q 190 -11 249 -11 m 464 -321 q 369 -312 414 -321 q 298 -278 325 -304 q 271 -201 271 -253 q 321 -75 271 -133 q 425 0 371 -17 l 500 0 q 422 -83 461 -33 q 383 -179 383 -132 q 419 -234 383 -222 q 494 -246 456 -246 q 539 -243 514 -246 l 514 -317 q 464 -321 492 -321 z "},"ů":{"ha":611,"x_min":69,"x_max":535,"o":"m 190 -11 q 94 42 118 -11 q 69 153 69 94 l 69 803 l 218 803 l 218 197 q 231 130 218 154 q 282 106 243 106 q 334 120 307 106 q 386 156 361 135 l 386 803 l 535 803 l 535 0 l 386 0 l 386 79 q 298 15 347 42 q 190 -11 249 -11 m 306 828 q 193 870 236 828 q 150 983 150 913 q 193 1096 150 1054 q 306 1138 236 1138 q 418 1096 375 1138 q 461 983 461 1054 q 418 870 461 913 q 306 828 375 828 m 306 903 q 364 924 342 903 q 386 983 386 946 q 364 1043 386 1022 q 306 1064 342 1064 q 247 1043 268 1064 q 225 983 225 1022 q 247 924 225 946 q 306 903 268 903 z "},"ũ":{"ha":611,"x_min":69,"x_max":535,"o":"m 190 -11 q 94 42 118 -11 q 69 153 69 94 l 69 803 l 218 803 l 218 197 q 231 130 218 154 q 282 106 243 106 q 334 120 307 106 q 386 156 361 135 l 386 803 l 535 803 l 535 0 l 386 0 l 386 79 q 298 15 347 42 q 190 -11 249 -11 m 411 972 q 313 1006 353 972 q 229 1040 274 1040 q 194 1027 206 1040 q 182 983 182 1014 l 97 983 q 121 1090 97 1046 q 208 1133 144 1133 q 301 1100 261 1133 q 385 1067 340 1067 q 419 1079 408 1067 q 431 1125 431 1092 l 514 1125 q 493 1017 514 1063 q 411 972 472 972 z "},"v":{"ha":535,"x_min":21,"x_max":514,"o":"m 179 0 l 21 803 l 171 803 l 269 157 l 369 803 l 514 803 l 361 0 l 179 0 z "},"w":{"ha":817,"x_min":39,"x_max":778,"o":"m 168 0 l 39 803 l 161 803 l 244 211 l 351 803 l 465 803 l 572 214 l 656 803 l 778 803 l 644 0 l 519 0 l 410 567 l 301 0 l 168 0 z "},"ẃ":{"ha":817,"x_min":39,"x_max":778,"o":"m 168 0 l 39 803 l 161 803 l 244 211 l 351 803 l 465 803 l 572 214 l 656 803 l 778 803 l 644 0 l 519 0 l 410 567 l 301 0 l 168 0 m 369 869 l 451 1144 l 600 1144 l 444 869 l 369 869 z "},"ŵ":{"ha":817,"x_min":39,"x_max":778,"o":"m 168 0 l 39 803 l 161 803 l 244 211 l 351 803 l 465 803 l 572 214 l 656 803 l 778 803 l 644 0 l 519 0 l 410 567 l 301 0 l 168 0 m 213 882 l 332 1125 l 483 1125 l 604 882 l 492 882 l 407 1050 l 324 882 l 213 882 z "},"ẅ":{"ha":817,"x_min":39,"x_max":778,"o":"m 168 0 l 39 803 l 161 803 l 244 211 l 351 803 l 465 803 l 572 214 l 656 803 l 778 803 l 644 0 l 519 0 l 410 567 l 301 0 l 168 0 m 453 971 l 453 1125 l 603 1125 l 603 971 l 453 971 m 214 971 l 214 1125 l 364 1125 l 364 971 l 214 971 z "},"ẁ":{"ha":817,"x_min":39,"x_max":778,"o":"m 168 0 l 39 803 l 161 803 l 244 211 l 351 803 l 465 803 l 572 214 l 656 803 l 778 803 l 644 0 l 519 0 l 410 567 l 301 0 l 168 0 m 374 869 l 219 1144 l 368 1144 l 447 869 l 374 869 z "},"x":{"ha":540,"x_min":13,"x_max":529,"o":"m 13 0 l 193 422 l 17 803 l 158 803 l 276 549 l 381 803 l 526 803 l 343 404 l 529 0 l 388 0 l 261 272 l 153 0 l 13 0 z "},"y":{"ha":544,"x_min":17,"x_max":529,"o":"m 63 -201 l 63 -87 q 189 -69 161 -87 q 203 8 217 -50 q 190 64 197 36 q 178 119 183 92 q 147 249 164 181 q 114 389 131 317 q 80 533 97 461 q 47 674 63 606 q 17 803 31 742 l 167 803 l 275 203 l 379 803 l 529 803 l 338 -44 q 254 -167 318 -132 q 81 -201 190 -201 l 63 -201 z "},"ý":{"ha":544,"x_min":17,"x_max":529,"o":"m 63 -201 l 63 -87 q 189 -69 161 -87 q 203 8 217 -50 q 190 64 197 36 q 178 119 183 92 q 147 249 164 181 q 114 389 131 317 q 80 533 97 461 q 47 674 63 606 q 17 803 31 742 l 167 803 l 275 203 l 379 803 l 529 803 l 338 -44 q 254 -167 318 -132 q 81 -201 190 -201 l 63 -201 m 233 869 l 315 1144 l 464 1144 l 308 869 l 233 869 z "},"ŷ":{"ha":544,"x_min":17,"x_max":529,"o":"m 63 -201 l 63 -87 q 189 -69 161 -87 q 203 8 217 -50 q 190 64 197 36 q 178 119 183 92 q 147 249 164 181 q 114 389 131 317 q 80 533 97 461 q 47 674 63 606 q 17 803 31 742 l 167 803 l 275 203 l 379 803 l 529 803 l 338 -44 q 254 -167 318 -132 q 81 -201 190 -201 l 63 -201 m 76 882 l 196 1125 l 347 1125 l 468 882 l 356 882 l 271 1050 l 188 882 l 76 882 z "},"ÿ":{"ha":544,"x_min":17,"x_max":529,"o":"m 63 -201 l 63 -87 q 189 -69 161 -87 q 203 8 217 -50 q 190 64 197 36 q 178 119 183 92 q 147 249 164 181 q 114 389 131 317 q 80 533 97 461 q 47 674 63 606 q 17 803 31 742 l 167 803 l 275 203 l 379 803 l 529 803 l 338 -44 q 254 -167 318 -132 q 81 -201 190 -201 l 63 -201 m 317 971 l 317 1125 l 467 1125 l 467 971 l 317 971 m 78 971 l 78 1125 l 228 1125 l 228 971 l 78 971 z "},"ỵ":{"ha":544,"x_min":17,"x_max":529,"o":"m 63 -201 l 63 -87 q 189 -69 161 -87 q 203 8 217 -50 q 190 64 197 36 q 178 119 183 92 q 147 249 164 181 q 114 389 131 317 q 80 533 97 461 q 47 674 63 606 q 17 803 31 742 l 167 803 l 275 203 l 379 803 l 529 803 l 338 -44 q 254 -167 318 -132 q 81 -201 190 -201 l 63 -201 m 367 -244 l 367 -87 l 517 -87 l 517 -244 l 367 -244 z "},"ỳ":{"ha":544,"x_min":17,"x_max":529,"o":"m 63 -201 l 63 -87 q 189 -69 161 -87 q 203 8 217 -50 q 190 64 197 36 q 178 119 183 92 q 147 249 164 181 q 114 389 131 317 q 80 533 97 461 q 47 674 63 606 q 17 803 31 742 l 167 803 l 275 203 l 379 803 l 529 803 l 338 -44 q 254 -167 318 -132 q 81 -201 190 -201 l 63 -201 m 238 869 l 83 1144 l 232 1144 l 311 869 l 238 869 z "},"ỷ":{"ha":544,"x_min":17,"x_max":529,"o":"m 63 -201 l 63 -87 q 189 -69 161 -87 q 203 8 217 -50 q 190 64 197 36 q 178 119 183 92 q 147 249 164 181 q 114 389 131 317 q 80 533 97 461 q 47 674 63 606 q 17 803 31 742 l 167 803 l 275 203 l 379 803 l 529 803 l 338 -44 q 254 -167 318 -132 q 81 -201 190 -201 l 63 -201 m 274 883 l 226 939 q 292 974 267 957 q 317 1019 317 992 q 292 1061 317 1049 q 232 1074 267 1074 q 161 1064 194 1074 l 161 1139 q 274 1153 215 1153 q 383 1124 339 1153 q 428 1032 428 1094 q 384 938 428 971 q 274 883 340 906 z "},"ȳ":{"ha":544,"x_min":17,"x_max":529,"o":"m 63 -201 l 63 -87 q 189 -69 161 -87 q 203 8 217 -50 q 190 64 197 36 q 178 119 183 92 q 147 249 164 181 q 114 389 131 317 q 80 533 97 461 q 47 674 63 606 q 17 803 31 742 l 167 803 l 275 203 l 379 803 l 529 803 l 338 -44 q 254 -167 318 -132 q 81 -201 190 -201 l 63 -201 m 139 951 l 139 1042 l 406 1042 l 406 951 l 139 951 z "},"ỹ":{"ha":544,"x_min":17,"x_max":529,"o":"m 63 -201 l 63 -87 q 189 -69 161 -87 q 203 8 217 -50 q 190 64 197 36 q 178 119 183 92 q 147 249 164 181 q 114 389 131 317 q 80 533 97 461 q 47 674 63 606 q 17 803 31 742 l 167 803 l 275 203 l 379 803 l 529 803 l 338 -44 q 254 -167 318 -132 q 81 -201 190 -201 l 63 -201 m 378 972 q 280 1006 319 972 q 196 1040 240 1040 q 160 1027 172 1040 q 149 983 149 1014 l 64 983 q 88 1090 64 1046 q 175 1133 111 1133 q 267 1100 228 1133 q 351 1067 307 1067 q 386 1079 375 1067 q 397 1125 397 1092 l 481 1125 q 460 1017 481 1063 q 378 972 439 972 z "},"z":{"ha":482,"x_min":44,"x_max":450,"o":"m 44 0 l 44 100 l 290 692 l 69 692 l 69 803 l 450 803 l 450 722 l 203 113 l 444 113 l 444 0 l 44 0 z "},"ź":{"ha":482,"x_min":44,"x_max":450,"o":"m 44 0 l 44 100 l 290 692 l 69 692 l 69 803 l 450 803 l 450 722 l 203 113 l 444 113 l 444 0 l 44 0 m 203 869 l 285 1144 l 433 1144 l 278 869 l 203 869 z "},"ž":{"ha":482,"x_min":44,"x_max":450,"o":"m 44 0 l 44 100 l 290 692 l 69 692 l 69 803 l 450 803 l 450 722 l 203 113 l 444 113 l 444 0 l 44 0 m 168 885 l 47 1125 l 161 1125 l 242 963 l 322 1125 l 436 1125 l 314 885 l 168 885 z "},"ż":{"ha":482,"x_min":44,"x_max":450,"o":"m 44 0 l 44 100 l 290 692 l 69 692 l 69 803 l 450 803 l 450 722 l 203 113 l 444 113 l 444 0 l 44 0 m 167 932 l 167 1097 l 317 1097 l 317 932 l 167 932 z "},"ﬁ":{"ha":682,"x_min":26,"x_max":600,"o":"m 122 0 l 122 693 l 26 693 l 26 803 l 122 803 l 122 844 q 163 1024 122 964 q 313 1083 203 1083 q 393 1078 354 1083 l 393 967 q 365 971 378 969 q 342 972 353 972 q 284 949 297 972 q 271 869 271 925 l 271 803 l 599 803 l 599 0 l 450 0 l 450 693 l 271 693 l 271 0 l 122 0 m 464 922 l 464 1078 l 600 1078 l 600 922 l 464 922 z "},"ﬂ":{"ha":715,"x_min":26,"x_max":635,"o":"m 122 0 l 122 693 l 26 693 l 26 803 l 122 803 l 122 844 q 134 965 122 903 q 199 1070 146 1028 q 379 1113 253 1113 q 492 1104 429 1113 q 635 1078 556 1096 l 635 0 l 486 0 l 486 996 q 440 1000 461 999 q 401 1001 419 1001 q 288 958 304 1001 q 271 847 271 915 q 271 825 271 836 q 271 803 271 814 l 393 803 l 393 693 l 271 693 l 271 0 l 122 0 z "},"ª":{"ha":615,"x_min":107,"x_max":514,"o":"m 247 446 q 147 490 186 446 q 107 600 107 533 q 148 722 107 678 q 253 791 189 765 q 383 840 317 817 l 383 914 q 372 1000 383 965 q 324 1035 361 1035 q 267 999 283 1035 q 251 913 251 964 l 129 913 q 181 1078 131 1014 q 325 1142 232 1142 q 476 1071 439 1142 q 514 872 514 1000 l 514 454 l 394 454 l 394 543 q 335 474 374 503 q 247 446 297 446 m 296 560 q 349 580 325 560 q 383 625 372 600 l 383 782 q 283 720 328 753 q 239 631 239 688 q 254 578 239 596 q 296 560 269 560 z "},"º":{"ha":615,"x_min":93,"x_max":522,"o":"m 308 444 q 140 514 186 444 q 93 701 93 583 l 93 885 q 140 1072 93 1003 q 308 1142 186 1142 q 473 1070 424 1142 q 522 885 522 999 l 522 701 q 473 516 522 588 q 308 444 424 444 m 306 553 q 381 603 369 553 q 392 718 392 653 l 392 868 q 381 983 392 933 q 306 1032 369 1032 q 230 983 243 1032 q 217 868 217 933 l 217 718 q 230 603 217 653 q 306 553 243 553 z "},"А":{"ha":682,"x_min":25,"x_max":657,"o":"m 25 0 l 265 1125 l 415 1125 l 657 0 l 507 0 l 456 283 l 226 283 l 174 0 l 25 0 m 247 396 l 435 396 l 342 903 l 247 396 z "},"Б":{"ha":686,"x_min":88,"x_max":640,"o":"m 88 0 l 88 1125 l 571 1125 l 571 1011 l 244 1011 l 244 657 l 279 657 q 551 590 461 657 q 640 329 640 522 q 603 141 640 214 q 487 34 565 68 q 288 0 408 0 l 88 0 m 244 113 l 289 113 q 442 152 393 113 q 492 331 492 192 q 447 494 492 444 q 285 543 403 543 l 244 543 l 244 113 z "},"В":{"ha":728,"x_min":88,"x_max":676,"o":"m 88 0 l 88 1125 l 346 1125 q 514 1094 447 1125 q 613 1001 581 1064 q 646 843 646 939 q 606 678 646 739 q 485 606 567 617 q 631 511 586 582 q 676 321 676 440 q 646 151 676 224 q 552 40 615 79 q 388 0 489 0 l 88 0 m 244 113 l 350 113 q 491 162 456 113 q 526 321 526 211 q 483 481 526 426 q 338 536 440 536 l 244 536 l 244 113 m 244 656 l 338 656 q 473 699 436 656 q 510 843 510 743 q 456 983 510 958 q 282 1008 401 1008 l 244 1008 l 244 656 z "},"Г":{"ha":536,"x_min":88,"x_max":515,"o":"m 88 0 l 88 1125 l 515 1125 l 515 1008 l 244 1008 l 244 0 l 88 0 z "},"Ѓ":{"ha":536,"x_min":88,"x_max":515,"o":"m 88 0 l 88 1125 l 515 1125 l 515 1008 l 244 1008 l 244 0 l 88 0 z "},"Ґ":{"ha":524,"x_min":88,"x_max":517,"o":"m 88 0 l 88 1125 l 418 1125 l 418 1275 l 517 1275 l 517 1008 l 244 1008 l 244 0 l 88 0 z "},"Д":{"ha":871,"x_min":15,"x_max":840,"o":"m 15 -204 l 15 113 l 67 113 q 124 175 96 138 q 175 283 151 213 q 216 476 199 354 q 243 792 233 599 l 261 1125 l 732 1125 l 732 113 l 840 113 l 840 -204 l 719 -204 l 707 0 l 149 0 l 136 -204 l 15 -204 m 213 113 l 576 113 l 576 1008 l 394 1008 l 383 754 q 360 452 376 567 q 321 274 343 338 q 271 176 299 210 q 213 113 243 142 z "},"Е":{"ha":564,"x_min":88,"x_max":526,"o":"m 88 0 l 88 1125 l 524 1125 l 524 1008 l 244 1008 l 244 636 l 471 636 l 471 525 l 244 525 l 244 113 l 526 113 l 526 0 l 88 0 z "},"Ѐ":{"ha":564,"x_min":88,"x_max":526,"o":"m 88 0 l 88 1125 l 524 1125 l 524 1008 l 244 1008 l 244 636 l 471 636 l 471 525 l 244 525 l 244 113 l 526 113 l 526 0 l 88 0 m 286 1192 l 132 1467 l 281 1467 l 360 1192 l 286 1192 z "},"Ё":{"ha":564,"x_min":88,"x_max":526,"o":"m 88 0 l 88 1125 l 524 1125 l 524 1008 l 244 1008 l 244 636 l 471 636 l 471 525 l 244 525 l 244 113 l 526 113 l 526 0 l 88 0 z "},"Ж":{"ha":939,"x_min":6,"x_max":935,"o":"m 6 0 l 267 575 l 32 1125 l 183 1125 l 394 582 l 403 582 l 403 1125 l 536 1125 l 536 582 l 546 582 l 756 1125 l 908 1125 l 672 575 l 935 0 l 781 0 l 547 563 l 536 563 l 536 0 l 403 0 l 403 563 l 393 563 l 158 0 l 6 0 z "},"З":{"ha":667,"x_min":35,"x_max":611,"o":"m 333 -12 q 127 65 196 -12 q 58 276 58 142 l 58 314 l 206 314 q 206 294 206 304 q 207 275 206 283 q 234 157 208 203 q 333 111 260 111 q 438 167 414 111 q 463 317 463 224 q 424 463 463 404 q 276 528 385 521 q 256 529 268 529 q 233 529 243 529 l 233 649 q 254 649 242 649 q 274 650 267 649 q 422 706 381 656 q 463 844 463 756 q 433 967 463 921 q 326 1014 403 1014 q 221 967 253 1014 q 183 846 189 921 q 183 828 183 838 q 183 810 183 819 l 35 810 l 35 847 q 109 1058 35 982 q 321 1135 183 1135 q 535 1057 460 1135 q 611 844 611 979 q 567 678 611 742 q 450 594 522 615 q 568 500 525 569 q 611 317 611 431 q 547 77 611 167 q 333 -12 483 -12 z "},"И":{"ha":757,"x_min":88,"x_max":668,"o":"m 88 0 l 88 1125 l 226 1125 l 226 346 l 556 1125 l 668 1125 l 668 0 l 531 0 l 531 792 l 204 0 l 88 0 z "},"Й":{"ha":757,"x_min":88,"x_max":668,"o":"m 88 0 l 88 1125 l 226 1125 l 226 346 l 556 1125 l 668 1125 l 668 0 l 531 0 l 531 792 l 204 0 l 88 0 z "},"Ѝ":{"ha":757,"x_min":88,"x_max":668,"o":"m 88 0 l 88 1125 l 226 1125 l 226 346 l 556 1125 l 668 1125 l 668 0 l 531 0 l 531 792 l 204 0 l 88 0 m 357 1192 l 203 1467 l 351 1467 l 431 1192 l 357 1192 z "},"К":{"ha":706,"x_min":88,"x_max":689,"o":"m 88 0 l 88 1125 l 244 1125 l 244 625 l 303 625 l 504 1125 l 661 1125 l 439 590 l 689 0 l 532 0 l 304 549 l 244 549 l 244 0 l 88 0 z "},"Ќ":{"ha":706,"x_min":88,"x_max":689,"o":"m 88 0 l 88 1125 l 244 1125 l 244 625 l 303 625 l 504 1125 l 661 1125 l 439 590 l 689 0 l 532 0 l 304 549 l 244 549 l 244 0 l 88 0 z "},"Л":{"ha":807,"x_min":3,"x_max":718,"o":"m 3 0 l 3 117 q 72 126 42 115 q 124 174 101 136 q 161 297 146 213 q 186 526 176 381 l 224 1125 l 718 1125 l 718 0 l 561 0 l 561 1008 l 358 1008 l 332 526 q 307 290 324 392 q 256 121 290 188 q 160 24 221 54 q 3 0 100 -7 z "},"М":{"ha":917,"x_min":85,"x_max":832,"o":"m 85 0 l 106 1125 l 247 1125 l 458 258 l 669 1125 l 811 1125 l 832 0 l 708 0 l 700 757 l 503 0 l 414 0 l 218 757 l 210 0 l 85 0 z "},"Н":{"ha":779,"x_min":88,"x_max":690,"o":"m 88 0 l 88 1125 l 244 1125 l 244 639 l 533 639 l 533 1125 l 690 1125 l 690 0 l 533 0 l 533 526 l 244 526 l 244 0 l 88 0 z "},"О":{"ha":750,"x_min":67,"x_max":683,"o":"m 375 -12 q 135 86 203 -12 q 67 353 67 185 l 67 779 q 135 1040 67 946 q 375 1135 204 1135 q 614 1040 544 1135 q 683 779 683 944 l 683 351 q 615 87 683 186 q 375 -12 546 -12 m 375 111 q 497 168 469 111 q 525 318 525 225 l 525 811 q 497 959 525 906 q 375 1013 469 1013 q 253 959 281 1013 q 225 811 225 906 l 225 318 q 253 168 225 225 q 375 111 281 111 z "},"П":{"ha":794,"x_min":88,"x_max":707,"o":"m 88 0 l 88 1125 l 707 1125 l 707 0 l 550 0 l 550 1013 l 244 1013 l 244 0 l 88 0 z "},"Р":{"ha":665,"x_min":88,"x_max":644,"o":"m 88 0 l 88 1125 l 367 1125 q 581 1043 518 1125 q 644 814 644 961 q 614 660 644 725 q 522 559 583 594 q 368 524 460 524 l 244 524 l 244 0 l 88 0 m 244 636 l 317 636 q 457 672 418 636 q 496 813 496 708 q 466 972 496 932 q 318 1013 436 1013 l 244 1013 l 244 636 z "},"С":{"ha":714,"x_min":67,"x_max":653,"o":"m 369 -12 q 128 96 190 -12 q 67 361 67 204 l 67 758 q 128 1032 67 929 q 369 1135 190 1135 q 590 1049 526 1135 q 653 811 653 964 l 653 722 l 504 722 l 504 801 q 487 953 504 894 q 371 1013 469 1013 q 248 949 271 1013 q 225 782 225 886 l 225 336 q 257 160 225 208 q 371 111 289 111 q 485 173 465 111 q 504 335 504 235 l 504 418 l 653 418 l 653 335 q 594 83 653 179 q 369 -12 535 -12 z "},"Т":{"ha":558,"x_min":1,"x_max":561,"o":"m 207 0 l 207 1008 l 1 1008 l 1 1125 l 561 1125 l 561 1008 l 364 1008 l 364 0 l 207 0 z "},"У":{"ha":628,"x_min":26,"x_max":611,"o":"m 74 -171 l 74 -50 q 210 -44 169 -60 q 255 14 250 -28 q 249 125 260 56 l 26 1125 l 175 1125 l 269 646 l 326 289 l 376 643 l 461 1125 l 611 1125 l 410 122 q 370 -59 388 8 q 291 -153 353 -126 q 74 -171 229 -181 z "},"Ў":{"ha":628,"x_min":26,"x_max":611,"o":"m 74 -171 l 74 -50 q 210 -44 169 -60 q 255 14 250 -28 q 249 125 260 56 l 26 1125 l 175 1125 l 269 646 l 326 289 l 376 643 l 461 1125 l 611 1125 l 410 122 q 370 -59 388 8 q 291 -153 353 -126 q 74 -171 229 -181 z "},"Ф":{"ha":919,"x_min":67,"x_max":853,"o":"m 379 -50 l 379 139 q 357 136 372 138 q 331 135 342 135 q 135 197 203 135 q 67 432 67 260 l 67 713 q 131 947 67 881 q 311 1013 196 1013 q 350 1012 331 1013 q 379 1010 369 1011 l 379 1226 l 536 1226 l 536 1010 q 571 1012 550 1011 q 607 1013 592 1013 q 789 946 725 1013 q 853 713 853 879 l 853 432 q 789 199 853 263 q 626 135 725 135 q 581 135 603 135 q 536 139 558 136 l 536 -50 l 379 -50 m 340 229 q 361 230 350 229 q 379 232 372 231 l 379 915 q 354 917 367 917 q 331 918 342 918 q 235 876 261 918 q 210 713 210 833 l 210 432 q 233 269 210 310 q 340 229 257 229 m 588 229 q 685 269 661 229 q 710 432 710 310 l 710 713 q 686 876 710 833 q 585 918 663 918 q 536 915 564 918 l 536 232 q 560 230 546 231 q 588 229 574 229 z "},"Х":{"ha":669,"x_min":18,"x_max":651,"o":"m 18 0 l 253 589 l 22 1125 l 168 1125 l 339 728 l 494 1125 l 640 1125 l 404 576 l 651 0 l 506 0 l 322 424 l 164 0 l 18 0 z "},"Ч":{"ha":747,"x_min":68,"x_max":660,"o":"m 501 0 l 501 519 q 336 499 410 499 q 136 563 204 499 q 68 760 68 628 l 68 1125 l 210 1125 l 210 760 q 245 640 210 679 q 367 601 281 601 q 430 606 396 601 q 501 618 464 610 l 501 1125 l 660 1125 l 660 0 l 501 0 z "},"Ц":{"ha":864,"x_min":88,"x_max":828,"o":"m 707 -204 l 694 0 l 88 0 l 88 1125 l 244 1125 l 244 113 l 564 113 l 564 1125 l 721 1125 l 721 113 l 828 113 l 828 -204 l 707 -204 z "},"Ш":{"ha":1042,"x_min":88,"x_max":954,"o":"m 88 0 l 88 1125 l 244 1125 l 244 114 l 447 114 l 447 1125 l 604 1125 l 604 114 l 797 114 l 797 1125 l 954 1125 l 954 0 l 88 0 z "},"Щ":{"ha":1097,"x_min":88,"x_max":1063,"o":"m 940 -204 l 928 0 l 88 0 l 88 1125 l 244 1125 l 244 113 l 447 113 l 447 1125 l 604 1125 l 604 113 l 797 113 l 797 1125 l 956 1125 l 956 113 l 1063 113 l 1063 -204 l 940 -204 z "},"Џ":{"ha":760,"x_min":88,"x_max":671,"o":"m 324 -204 l 314 0 l 88 0 l 88 1125 l 244 1125 l 244 113 l 515 113 l 515 1125 l 671 1125 l 671 0 l 451 0 l 442 -204 l 324 -204 z "},"Ь":{"ha":686,"x_min":88,"x_max":649,"o":"m 88 0 l 88 1125 l 244 1125 l 244 657 l 289 657 q 560 590 471 657 q 649 329 649 522 q 611 141 649 214 q 495 34 574 68 q 296 0 417 0 l 88 0 m 244 113 l 296 113 q 451 152 401 113 q 501 331 501 192 q 456 494 501 444 q 293 543 411 543 l 244 543 l 244 113 z "},"Ъ":{"ha":788,"x_min":7,"x_max":751,"o":"m 189 0 l 189 1006 l 7 1006 l 7 1125 l 346 1125 l 346 657 l 389 657 q 662 590 572 657 q 751 329 751 522 q 713 141 751 214 q 597 34 675 68 q 397 0 519 0 l 189 0 m 346 113 l 399 113 q 553 152 503 113 q 603 331 603 192 q 558 494 603 444 q 394 543 514 543 l 346 543 l 346 113 z "},"Ы":{"ha":1011,"x_min":88,"x_max":922,"o":"m 88 0 l 88 1125 l 244 1125 l 244 657 l 289 657 q 560 590 471 657 q 649 329 649 522 q 611 141 649 214 q 495 34 574 68 q 296 0 417 0 l 88 0 m 244 113 l 296 113 q 451 152 401 113 q 501 331 501 192 q 456 494 501 444 q 293 543 411 543 l 244 543 l 244 113 m 765 0 l 765 1125 l 922 1125 l 922 0 l 765 0 z "},"Љ":{"ha":1161,"x_min":19,"x_max":1115,"o":"m 50 -1 l 19 0 l 19 117 q 114 143 78 113 q 171 257 150 174 q 201 496 192 340 l 236 1125 l 733 1125 l 733 657 l 754 657 q 1026 590 938 657 q 1115 329 1115 522 q 1078 141 1115 214 q 962 34 1040 68 q 763 0 883 0 l 576 0 l 576 1008 l 375 1008 l 344 496 q 305 213 335 325 q 214 48 275 101 q 50 -1 153 -6 m 733 113 l 763 113 q 918 152 868 113 q 968 331 968 192 q 923 494 968 444 q 760 543 878 543 l 733 543 l 733 113 z "},"Њ":{"ha":1086,"x_min":88,"x_max":1047,"o":"m 88 0 l 88 1126 l 244 1126 l 244 656 l 507 656 l 507 1126 l 665 1126 l 665 657 l 688 657 q 958 590 869 657 q 1047 329 1047 522 q 1010 141 1047 214 q 894 34 972 68 q 694 0 817 0 l 507 0 l 507 543 l 244 543 l 244 0 l 88 0 m 665 113 l 694 113 q 850 152 800 113 q 900 331 900 192 q 856 494 900 444 q 693 543 811 543 l 665 543 l 665 113 z "},"Ѕ":{"ha":650,"x_min":54,"x_max":622,"o":"m 353 -12 q 134 78 206 -12 q 54 315 63 169 l 193 353 q 231 187 200 263 q 353 111 263 111 q 445 144 414 111 q 476 243 476 178 q 441 365 476 319 q 354 460 406 411 l 165 626 q 83 733 110 676 q 57 875 57 790 q 128 1066 57 999 q 321 1135 199 1133 q 471 1104 411 1136 q 563 1008 531 1072 q 604 844 594 943 l 471 808 q 436 956 464 892 q 321 1014 408 1019 q 230 981 263 1010 q 197 890 197 951 q 215 806 197 839 q 271 738 232 772 l 461 571 q 573 438 524 514 q 622 256 622 361 q 547 59 622 131 q 353 -12 471 -12 z "},"Є":{"ha":699,"x_min":67,"x_max":653,"o":"m 369 -12 q 128 96 190 -12 q 67 361 67 204 l 67 758 q 128 1032 67 929 q 369 1135 190 1135 q 590 1049 526 1135 q 653 811 653 964 l 653 771 l 504 771 l 504 801 q 487 953 504 894 q 371 1013 469 1013 q 248 949 271 1013 q 225 782 225 886 l 225 638 l 503 638 l 503 529 l 225 529 l 225 336 q 257 160 225 208 q 371 111 289 111 q 485 173 465 111 q 504 335 504 235 l 504 381 l 653 381 l 653 335 q 594 83 653 179 q 369 -12 535 -12 z "},"Э":{"ha":721,"x_min":68,"x_max":654,"o":"m 353 3 q 131 89 194 3 q 68 326 68 175 l 68 382 l 217 382 l 217 338 q 235 185 217 244 q 351 125 253 125 q 473 189 450 125 q 496 358 496 253 l 496 536 l 299 536 l 299 639 l 496 639 l 496 803 q 464 979 496 931 q 351 1028 432 1028 q 237 966 257 1028 q 217 804 217 904 l 217 756 l 68 756 l 68 806 q 127 1056 68 960 q 353 1151 186 1151 q 593 1043 532 1151 q 654 778 654 935 l 654 381 q 592 106 654 208 q 353 3 531 3 z "},"І":{"ha":344,"x_min":96,"x_max":250,"o":"m 96 0 l 96 1125 l 250 1125 l 250 0 l 96 0 z "},"Ї":{"ha":344,"x_min":96,"x_max":250,"o":"m 96 0 l 96 1125 l 250 1125 l 250 0 l 96 0 z "},"Ј":{"ha":418,"x_min":10,"x_max":329,"o":"m 10 -26 l 10 86 q 142 118 111 86 q 174 257 174 150 l 174 1125 l 329 1125 l 329 254 q 280 42 329 110 q 85 -26 231 -26 l 10 -26 z "},"Ћ":{"ha":694,"x_min":-7,"x_max":625,"o":"m 157 0 l 157 1008 l -7 1008 l -7 1125 l 492 1125 l 492 1008 l 310 1008 l 310 610 q 353 633 313 611 q 460 654 393 654 q 578 618 532 654 q 625 521 625 582 l 625 0 l 476 0 l 476 488 q 463 540 476 521 q 411 560 450 560 q 343 542 372 560 q 310 522 314 525 l 310 0 l 157 0 z "},"Ю":{"ha":999,"x_min":88,"x_max":932,"o":"m 647 -12 q 424 88 485 -12 q 363 356 363 188 l 363 515 l 235 515 l 235 0 l 88 0 l 88 1125 l 235 1125 l 235 635 l 363 635 l 363 775 q 424 1039 363 943 q 647 1135 485 1135 q 870 1038 808 1135 q 932 775 932 940 l 932 356 q 870 89 932 190 q 647 -12 808 -12 m 647 111 q 763 168 736 111 q 790 318 790 225 l 790 811 q 763 959 790 906 q 647 1013 736 1013 q 530 959 557 1013 q 503 811 503 906 l 503 318 q 530 168 503 225 q 647 111 557 111 z "},"Я":{"ha":757,"x_min":18,"x_max":669,"o":"m 18 0 l 254 506 q 134 616 179 539 q 89 814 89 693 q 167 1038 89 950 q 442 1125 244 1125 l 669 1125 l 669 0 l 513 0 l 513 467 l 424 467 q 406 467 421 467 q 388 468 390 468 l 193 0 l 18 0 m 454 579 l 513 579 l 513 1013 l 450 1013 q 291 967 344 1013 q 238 815 238 921 q 286 638 238 696 q 454 579 335 579 z "}}}
